UFO
<glyph name="exclam" format="2">
	<advance width="253"/>
	<unicode hex="0021"/>
	<outline>
		<contour>
			<point x="90" y="215" type="line"/>
			<point x="163" y="215" type="line"/>
			<point x="181" y="752" type="line"/>
			<point x="72" y="752" type="line"/>
		</contour>
		<contour>
			<point x="127" y="-14" type="curve" smooth="yes"/>
			<point x="164" y="-14"/>
			<point x="194" y="15"/>
			<point x="194" y="53" type="curve" smooth="yes"/>
			<point x="194" y="91"/>
			<point x="164" y="120"/>
			<point x="127" y="120" type="curve" smooth="yes"/>
			<point x="90" y="120"/>
			<point x="59" y="91"/>
			<point x="59" y="53" type="curve" smooth="yes"/>
			<point x="59" y="15"/>
			<point x="90" y="-14"/>
		</contour>
	</outline>
</glyph>
<glyph name="quotedbl" format="2">
	<advance width="372"/>
	<unicode hex="0022"/>
	<outline>
		<contour>
			<point x="61" y="462" type="line"/>
			<point x="129" y="462" type="line"/>
			<point x="157" y="772" type="line"/>
			<point x="51" y="772" type="line"/>
		</contour>
		<contour>
			<point x="241" y="462" type="line"/>
			<point x="309" y="462" type="line"/>
			<point x="337" y="772" type="line"/>
			<point x="231" y="772" type="line"/>
		</contour>
	</outline>
</glyph>
<glyph name="numbersign" format="2">
	<advance width="645"/>
	<unicode hex="0023"/>
	<outline>
		<contour>
			<point x="63" y="554" type="line"/>
			<point x="49" y="475" type="line"/>
			<point x="616" y="475" type="line"/>
			<point x="630" y="554" type="line"/>
		</contour>
		<contour>
			<point x="34" y="290" type="line"/>
			<point x="20" y="211" type="line"/>
			<point x="587" y="211" type="line"/>
			<point x="601" y="290" type="line"/>
		</contour>
		<contour>
			<point x="219" y="752" type="line"/>
			<point x="113" y="0" type="line"/>
			<point x="193" y="0" type="line"/>
			<point x="299" y="752" type="line"/>
		</contour>
		<contour>
			<point x="449" y="752" type="line"/>
			<point x="343" y="0" type="line"/>
			<point x="423" y="0" type="line"/>
			<point x="529" y="752" type="line"/>
		</contour>
	</outline>
</glyph>
<glyph name="percent" format="2">
	<advance width="898"/>
	<unicode hex="0025"/>
	<outline>
		<contour>
			<point x="211" y="392" type="curve" smooth="yes"/>
			<point x="338" y="392"/>
			<point x="385" y="461"/>
			<point x="385" y="577" type="curve" smooth="yes"/>
			<point x="385" y="693"/>
			<point x="338" y="762"/>
			<point x="211" y="762" type="curve" smooth="yes"/>
			<point x="83" y="762"/>
			<point x="36" y="693"/>
			<point x="36" y="577" type="curve" smooth="yes"/>
			<point x="36" y="461"/>
			<point x="83" y="392"/>
		</contour>
		<contour>
			<point x="211" y="463" type="curve" smooth="yes"/>
			<point x="137" y="463"/>
			<point x="110" y="496"/>
			<point x="110" y="577" type="curve" smooth="yes"/>
			<point x="110" y="659"/>
			<point x="137" y="692"/>
			<point x="211" y="692" type="curve" smooth="yes"/>
			<point x="284" y="692"/>
			<point x="311" y="659"/>
			<point x="311" y="577" type="curve" smooth="yes"/>
			<point x="311" y="496"/>
			<point x="284" y="463"/>
		</contour>
		<contour>
			<point x="702" y="-3" type="curve" smooth="yes"/>
			<point x="829" y="-3"/>
			<point x="876" y="66"/>
			<point x="876" y="182" type="curve" smooth="yes"/>
			<point x="876" y="298"/>
			<point x="829" y="367"/>
			<point x="702" y="367" type="curve" smooth="yes"/>
			<point x="574" y="367"/>
			<point x="527" y="298"/>
			<point x="527" y="182" type="curve" smooth="yes"/>
			<point x="527" y="66"/>
			<point x="574" y="-3"/>
		</contour>
		<contour>
			<point x="702" y="68" type="curve" smooth="yes"/>
			<point x="628" y="68"/>
			<point x="601" y="101"/>
			<point x="601" y="182" type="curve" smooth="yes"/>
			<point x="601" y="264"/>
			<point x="628" y="297"/>
			<point x="702" y="297" type="curve" smooth="yes"/>
			<point x="775" y="297"/>
			<point x="802" y="264"/>
			<point x="802" y="182" type="curve" smooth="yes"/>
			<point x="802" y="101"/>
			<point x="775" y="68"/>
		</contour>
		<contour>
			<point x="128" y="0" type="line"/>
			<point x="226" y="0" type="line"/>
			<point x="784" y="763" type="line"/>
			<point x="686" y="763" type="line"/>
		</contour>
	</outline>
</glyph>
<glyph name="parenleft" format="2">
	<advance width="323"/>
	<unicode hex="0028"/>
	<outline>
		<contour>
			<point x="180" y="-187" type="curve"/>
			<point x="281" y="-187" type="line"/>
			<point x="193" y="-43"/>
			<point x="156" y="127"/>
			<point x="156" y="298" type="curve" smooth="yes"/>
			<point x="156" y="469"/>
			<point x="193" y="639"/>
			<point x="281" y="783" type="curve"/>
			<point x="180" y="783" type="line"/>
			<point x="92" y="609"/>
			<point x="61" y="493"/>
			<point x="61" y="298" type="curve" smooth="yes"/>
			<point x="61" y="103"/>
			<point x="92" y="-12"/>
		</contour>
	</outline>
</glyph>
<glyph name="parenright" format="2">
	<advance width="323"/>
	<unicode hex="0029"/>
	<outline>
		<contour>
			<point x="143" y="-187" type="line"/>
			<point x="231" y="-12"/>
			<point x="262" y="103"/>
			<point x="262" y="298" type="curve" smooth="yes"/>
			<point x="262" y="493"/>
			<point x="231" y="609"/>
			<point x="143" y="783" type="curve"/>
			<point x="42" y="783" type="line"/>
			<point x="130" y="639"/>
			<point x="167" y="469"/>
			<point x="167" y="298" type="curve" smooth="yes"/>
			<point x="167" y="127"/>
			<point x="130" y="-43"/>
			<point x="42" y="-187" type="curve"/>
		</contour>
	</outline>
</glyph>
<glyph name="plus" format="2">
	<advance width="584"/>
	<unicode hex="002B"/>
	<outline>
		<contour>
			<point x="35" y="282" type="line"/>
			<point x="252" y="282" type="line"/>
			<point x="252" y="63" type="line"/>
			<point x="331" y="63" type="line"/>
			<point x="331" y="282" type="line"/>
			<point x="549" y="282" type="line"/>
			<point x="549" y="361" type="line"/>
			<point x="331" y="361" type="line"/>
			<point x="331" y="581" type="line"/>
			<point x="252" y="581" type="line"/>
			<point x="252" y="361" type="line"/>
			<point x="35" y="361" type="line"/>
		</contour>
	</outline>
</glyph>
<glyph name="comma" format="2">
	<advance width="240"/>
	<unicode hex="002C"/>
	<outline>
		<contour>
			<point x="48" y="-122" type="curve"/>
			<point x="60" y="-122" type="line" smooth="yes"/>
			<point x="78" y="-122"/>
			<point x="194" y="-84"/>
			<point x="194" y="55" type="curve" smooth="yes"/>
			<point x="194" y="86"/>
			<point x="166" y="120"/>
			<point x="129" y="120" type="curve" smooth="yes"/>
			<point x="92" y="120"/>
			<point x="65" y="86"/>
			<point x="65" y="55" type="curve" smooth="yes"/>
			<point x="65" y="-11"/>
			<point x="120" y="-15"/>
		</contour>
	</outline>
</glyph>
<glyph name="slash" format="2">
	<advance width="345"/>
	<unicode hex="002F"/>
	<outline>
		<contour>
			<point x="8" y="-254" type="line"/>
			<point x="97" y="-254" type="line"/>
			<point x="337" y="752" type="line"/>
			<point x="248" y="752" type="line"/>
		</contour>
	</outline>
</glyph>
<glyph name="zero" format="2">
	<advance width="680"/>
	<unicode hex="0030"/>
	<outline>
		<contour>
			<point x="340" y="-14" type="curve" smooth="yes"/>
			<point x="577" y="-14"/>
			<point x="645" y="164"/>
			<point x="645" y="379" type="curve" smooth="yes"/>
			<point x="645" y="594"/>
			<point x="577" y="772"/>
			<point x="340" y="772" type="curve" smooth="yes"/>
			<point x="103" y="772"/>
			<point x="35" y="594"/>
			<point x="35" y="379" type="curve" smooth="yes"/>
			<point x="35" y="164"/>
			<point x="103" y="-14"/>
		</contour>
		<contour>
			<point x="340" y="75" type="curve" smooth="yes"/>
			<point x="171" y="75"/>
			<point x="130" y="203"/>
			<point x="130" y="379" type="curve" smooth="yes"/>
			<point x="130" y="554"/>
			<point x="171" y="683"/>
			<point x="340" y="683" type="curve" smooth="yes"/>
			<point x="509" y="683"/>
			<point x="550" y="554"/>
			<point x="550" y="379" type="curve" smooth="yes"/>
			<point x="550" y="203"/>
			<point x="509" y="75"/>
		</contour>
	</outline>
</glyph>
<glyph name="one" format="2">
	<advance width="356"/>
	<unicode hex="0031"/>
	<outline>
		<contour>
			<point x="184" y="0" type="line"/>
			<point x="278" y="0" type="line"/>
			<point x="278" y="752" type="line"/>
			<point x="184" y="752" type="line"/>
			<point x="134" y="710"/>
			<point x="84" y="687"/>
			<point x="34" y="672" type="curve"/>
			<point x="34" y="555" type="line"/>
			<point x="84" y="575"/>
			<point x="134" y="601"/>
			<point x="184" y="659" type="curve"/>
		</contour>
	</outline>
</glyph>
<glyph name="two" format="2">
	<advance width="607"/>
	<unicode hex="0032"/>
	<outline>
		<contour>
			<point x="37" y="0" type="line"/>
			<point x="577" y="0" type="line"/>
			<point x="577" y="90" type="line"/>
			<point x="178" y="90" type="line"/>
			<point x="362" y="255" type="line" smooth="yes"/>
			<point x="484" y="364"/>
			<point x="557" y="442"/>
			<point x="557" y="552" type="curve" smooth="yes"/>
			<point x="557" y="681"/>
			<point x="498" y="772"/>
			<point x="315" y="772" type="curve" smooth="yes"/>
			<point x="130" y="772"/>
			<point x="59" y="670"/>
			<point x="59" y="555" type="curve"/>
			<point x="156" y="555" type="line"/>
			<point x="167" y="645"/>
			<point x="195" y="683"/>
			<point x="315" y="683" type="curve" smooth="yes"/>
			<point x="427" y="683"/>
			<point x="460" y="640"/>
			<point x="460" y="552" type="curve" smooth="yes"/>
			<point x="460" y="485"/>
			<point x="395" y="412"/>
			<point x="310" y="335" type="curve" smooth="yes"/>
			<point x="98" y="141" type="line" smooth="yes"/>
			<point x="53" y="99"/>
			<point x="37" y="61"/>
			<point x="37" y="16" type="curve"/>
		</contour>
	</outline>
</glyph>
<glyph name="three" format="2">
	<advance width="569"/>
	<unicode hex="0033"/>
	<outline>
		<contour>
			<point x="290" y="-14" type="curve" smooth="yes"/>
			<point x="478" y="-14"/>
			<point x="552" y="85"/>
			<point x="552" y="207" type="curve" smooth="yes"/>
			<point x="552" y="295"/>
			<point x="516" y="354"/>
			<point x="439" y="399" type="curve"/>
			<point x="496" y="435"/>
			<point x="529" y="488"/>
			<point x="529" y="562" type="curve" smooth="yes"/>
			<point x="529" y="690"/>
			<point x="444" y="772"/>
			<point x="290" y="772" type="curve" smooth="yes"/>
			<point x="136" y="772"/>
			<point x="51" y="680"/>
			<point x="51" y="562" type="curve"/>
			<point x="140" y="562" type="line"/>
			<point x="140" y="651"/>
			<point x="205" y="691"/>
			<point x="290" y="691" type="curve" smooth="yes"/>
			<point x="375" y="691"/>
			<point x="440" y="651"/>
			<point x="440" y="562" type="curve" smooth="yes"/>
			<point x="440" y="473"/>
			<point x="381" y="436"/>
			<point x="291" y="436" type="curve" smooth="yes"/>
			<point x="279" y="436"/>
			<point x="213" y="436"/>
			<point x="200" y="436" type="curve"/>
			<point x="200" y="348" type="line"/>
			<point x="213" y="348"/>
			<point x="279" y="348"/>
			<point x="291" y="348" type="curve" smooth="yes"/>
			<point x="391" y="348"/>
			<point x="457" y="308"/>
			<point x="457" y="207" type="curve" smooth="yes"/>
			<point x="457" y="106"/>
			<point x="383" y="76"/>
			<point x="290" y="76" type="curve" smooth="yes"/>
			<point x="201" y="76"/>
			<point x="138" y="108"/>
			<point x="133" y="194" type="curve"/>
			<point x="38" y="194" type="line"/>
			<point x="42" y="82"/>
			<point x="106" y="-14"/>
		</contour>
	</outline>
</glyph>
<glyph name="four" format="2">
	<advance width="590"/>
	<unicode hex="0034"/>
	<outline>
		<contour>
			<point x="422" y="0" type="line"/>
			<point x="516" y="0" type="line"/>
			<point x="516" y="147" type="line"/>
			<point x="580" y="147" type="line"/>
			<point x="580" y="237" type="line"/>
			<point x="516" y="237" type="line"/>
			<point x="516" y="752" type="line"/>
			<point x="412" y="752" type="line"/>
			<point x="94" y="313" type="line"/>
			<point x="44" y="253"/>
			<point x="39" y="217"/>
			<point x="39" y="147" type="curve"/>
			<point x="422" y="147" type="line"/>
		</contour>
		<contour>
			<point x="147" y="237" type="line"/>
			<point x="422" y="618" type="line"/>
			<point x="422" y="237" type="line"/>
		</contour>
	</outline>
</glyph>
<glyph name="five" format="2">
	<advance width="589"/>
	<unicode hex="0035"/>
	<outline>
		<contour>
			<point x="297" y="-14" type="curve" smooth="yes"/>
			<point x="478" y="-14"/>
			<point x="569" y="100"/>
			<point x="569" y="234" type="curve" smooth="yes"/>
			<point x="569" y="364"/>
			<point x="511" y="488"/>
			<point x="297" y="488" type="curve" smooth="yes"/>
			<point x="172" y="488"/>
			<point x="93" y="414"/>
			<point x="68" y="354" type="curve"/>
			<point x="159" y="354" type="line"/>
			<point x="179" y="380"/>
			<point x="232" y="400"/>
			<point x="297" y="400" type="curve" smooth="yes"/>
			<point x="412" y="400"/>
			<point x="475" y="361"/>
			<point x="475" y="234" type="curve" smooth="yes"/>
			<point x="475" y="131"/>
			<point x="402" y="75"/>
			<point x="297" y="75" type="curve" smooth="yes"/>
			<point x="192" y="75"/>
			<point x="155" y="142"/>
			<point x="149" y="193" type="curve"/>
			<point x="52" y="193" type="line"/>
			<point x="52" y="108"/>
			<point x="116" y="-14"/>
		</contour>
		<contour>
			<point x="66" y="354" type="line"/>
			<point x="159" y="354" type="line"/>
			<point x="190" y="752" type="line"/>
			<point x="97" y="752" type="line"/>
		</contour>
		<contour>
			<point x="108" y="662" type="line"/>
			<point x="530" y="662" type="line"/>
			<point x="530" y="752" type="line"/>
			<point x="115" y="752" type="line"/>
		</contour>
	</outline>
</glyph>
<glyph name="six" format="2">
	<advance width="655"/>
	<unicode hex="0036"/>
	<outline>
		<contour>
			<point x="346" y="-14" type="curve" smooth="yes"/>
			<point x="527" y="-14"/>
			<point x="618" y="110"/>
			<point x="618" y="234" type="curve" smooth="yes"/>
			<point x="618" y="374"/>
			<point x="541" y="488"/>
			<point x="346" y="488" type="curve" smooth="yes"/>
			<point x="256" y="488"/>
			<point x="191" y="451"/>
			<point x="147" y="402" type="curve"/>
			<point x="154" y="561"/>
			<point x="198" y="683"/>
			<point x="348" y="683" type="curve" smooth="yes"/>
			<point x="454" y="683"/>
			<point x="504" y="634"/>
			<point x="522" y="552" type="curve"/>
			<point x="620" y="552" type="line"/>
			<point x="589" y="687"/>
			<point x="519" y="772"/>
			<point x="348" y="772" type="curve" smooth="yes"/>
			<point x="123" y="772"/>
			<point x="59" y="594"/>
			<point x="59" y="379" type="curve" smooth="yes"/>
			<point x="59" y="164"/>
			<point x="116" y="-14"/>
		</contour>
		<contour>
			<point x="346" y="75" type="curve" smooth="yes"/>
			<point x="274" y="75"/>
			<point x="212" y="102"/>
			<point x="182" y="169" type="curve" smooth="yes"/>
			<point x="173" y="189"/>
			<point x="168" y="210"/>
			<point x="168" y="234" type="curve" smooth="yes"/>
			<point x="168" y="341"/>
			<point x="241" y="400"/>
			<point x="346" y="400" type="curve" smooth="yes"/>
			<point x="456" y="400"/>
			<point x="524" y="351"/>
			<point x="524" y="234" type="curve" smooth="yes"/>
			<point x="524" y="141"/>
			<point x="451" y="75"/>
		</contour>
	</outline>
</glyph>
<glyph name="seven" format="2">
	<advance width="528"/>
	<unicode hex="0037"/>
	<outline>
		<contour>
			<point x="99" y="0" type="line"/>
			<point x="208" y="0" type="line"/>
			<point x="456" y="556" type="line" smooth="yes"/>
			<point x="496" y="646"/>
			<point x="504" y="667"/>
			<point x="504" y="711" type="curve"/>
			<point x="504" y="752" type="line"/>
			<point x="13" y="752" type="line"/>
			<point x="13" y="662" type="line"/>
			<point x="395" y="662" type="line"/>
		</contour>
	</outline>
</glyph>
<glyph name="eight" format="2">
	<advance width="589"/>
	<unicode hex="0038"/>
	<outline>
		<contour>
			<point x="299" y="-14" type="curve" smooth="yes"/>
			<point x="487" y="-14"/>
			<point x="561" y="85"/>
			<point x="561" y="207" type="curve" smooth="yes"/>
			<point x="561" y="295"/>
			<point x="520" y="354"/>
			<point x="443" y="399" type="curve"/>
			<point x="500" y="435"/>
			<point x="538" y="488"/>
			<point x="538" y="562" type="curve" smooth="yes"/>
			<point x="538" y="690"/>
			<point x="453" y="772"/>
			<point x="299" y="772" type="curve" smooth="yes"/>
			<point x="145" y="772"/>
			<point x="60" y="680"/>
			<point x="60" y="562" type="curve" smooth="yes"/>
			<point x="60" y="488"/>
			<point x="98" y="435"/>
			<point x="155" y="399" type="curve"/>
			<point x="78" y="354"/>
			<point x="37" y="295"/>
			<point x="37" y="207" type="curve" smooth="yes"/>
			<point x="37" y="85"/>
			<point x="111" y="-14"/>
		</contour>
		<contour>
			<point x="299" y="76" type="curve" smooth="yes"/>
			<point x="206" y="76"/>
			<point x="132" y="106"/>
			<point x="132" y="207" type="curve" smooth="yes"/>
			<point x="132" y="308"/>
			<point x="203" y="346"/>
			<point x="299" y="346" type="curve" smooth="yes"/>
			<point x="395" y="346"/>
			<point x="466" y="308"/>
			<point x="466" y="207" type="curve" smooth="yes"/>
			<point x="466" y="106"/>
			<point x="392" y="76"/>
		</contour>
		<contour>
			<point x="299" y="437" type="curve" smooth="yes"/>
			<point x="214" y="437"/>
			<point x="149" y="473"/>
			<point x="149" y="562" type="curve" smooth="yes"/>
			<point x="149" y="651"/>
			<point x="214" y="691"/>
			<point x="299" y="691" type="curve" smooth="yes"/>
			<point x="384" y="691"/>
			<point x="449" y="651"/>
			<point x="449" y="562" type="curve" smooth="yes"/>
			<point x="449" y="473"/>
			<point x="384" y="437"/>
		</contour>
	</outline>
</glyph>
<glyph name="nine" format="2">
	<advance width="633"/>
	<unicode hex="0039"/>
	<outline>
		<contour>
			<point x="318" y="-14" type="curve" smooth="yes"/>
			<point x="545" y="-14"/>
			<point x="590" y="164"/>
			<point x="590" y="379" type="curve" smooth="yes"/>
			<point x="590" y="634"/>
			<point x="556" y="772"/>
			<point x="311" y="772" type="curve" smooth="yes"/>
			<point x="110" y="772"/>
			<point x="40" y="653"/>
			<point x="40" y="525" type="curve" smooth="yes"/>
			<point x="40" y="385"/>
			<point x="127" y="265"/>
			<point x="311" y="265" type="curve" smooth="yes"/>
			<point x="401" y="265"/>
			<point x="465" y="308"/>
			<point x="508" y="361" type="curve"/>
			<point x="508" y="195"/>
			<point x="473" y="75"/>
			<point x="318" y="75" type="curve" smooth="yes"/>
			<point x="217" y="75"/>
			<point x="170" y="112"/>
			<point x="157" y="186" type="curve"/>
			<point x="55" y="186" type="line"/>
			<point x="77" y="58"/>
			<point x="157" y="-14"/>
		</contour>
		<contour>
			<point x="311" y="354" type="curve" smooth="yes"/>
			<point x="206" y="354"/>
			<point x="134" y="402"/>
			<point x="134" y="524" type="curve" smooth="yes"/>
			<point x="134" y="644"/>
			<point x="216" y="681"/>
			<point x="311" y="681" type="curve" smooth="yes"/>
			<point x="406" y="681"/>
			<point x="489" y="645"/>
			<point x="489" y="524" type="curve" smooth="yes"/>
			<point x="489" y="402"/>
			<point x="416" y="354"/>
		</contour>
	</outline>
</glyph>
<glyph name="colon" format="2">
	<advance width="239"/>
	<unicode hex="003A"/>
	<outline>
		<contour>
			<point x="120" y="-14" type="curve" smooth="yes"/>
			<point x="157" y="-14"/>
			<point x="187" y="15"/>
			<point x="187" y="53" type="curve" smooth="yes"/>
			<point x="187" y="91"/>
			<point x="157" y="120"/>
			<point x="120" y="120" type="curve" smooth="yes"/>
			<point x="83" y="120"/>
			<point x="52" y="91"/>
			<point x="52" y="53" type="curve" smooth="yes"/>
			<point x="52" y="15"/>
			<point x="83" y="-14"/>
		</contour>
		<contour>
			<point x="120" y="348" type="curve" smooth="yes"/>
			<point x="157" y="348"/>
			<point x="187" y="377"/>
			<point x="187" y="415" type="curve" smooth="yes"/>
			<point x="187" y="453"/>
			<point x="157" y="482"/>
			<point x="120" y="482" type="curve" smooth="yes"/>
			<point x="83" y="482"/>
			<point x="52" y="453"/>
			<point x="52" y="415" type="curve" smooth="yes"/>
			<point x="52" y="377"/>
			<point x="83" y="348"/>
		</contour>
	</outline>
</glyph>
<glyph name="semicolon" format="2">
	<advance width="248"/>
	<unicode hex="003B"/>
	<outline>
		<contour>
			<point x="127" y="348" type="curve" smooth="yes"/>
			<point x="164" y="348"/>
			<point x="194" y="377"/>
			<point x="194" y="415" type="curve" smooth="yes"/>
			<point x="194" y="453"/>
			<point x="164" y="482"/>
			<point x="127" y="482" type="curve" smooth="yes"/>
			<point x="90" y="482"/>
			<point x="59" y="453"/>
			<point x="59" y="415" type="curve" smooth="yes"/>
			<point x="59" y="377"/>
			<point x="90" y="348"/>
		</contour>
		<contour>
			<point x="50" y="-122" type="curve"/>
			<point x="62" y="-122" type="line" smooth="yes"/>
			<point x="80" y="-122"/>
			<point x="196" y="-84"/>
			<point x="196" y="55" type="curve" smooth="yes"/>
			<point x="196" y="86"/>
			<point x="168" y="120"/>
			<point x="131" y="120" type="curve" smooth="yes"/>
			<point x="94" y="120"/>
			<point x="67" y="86"/>
			<point x="67" y="55" type="curve" smooth="yes"/>
			<point x="67" y="-11"/>
			<point x="122" y="-15"/>
		</contour>
	</outline>
</glyph>
<glyph name="A" format="2">
	<advance width="692"/>
	<unicode hex="0041"/>
	<anchor x="677" y="0" name="ogonek"/>
	<anchor x="346" y="0" name="bottom"/>
	<anchor x="346" y="752" name="top"/>
	<outline>
		<contour>
			<point x="571" y="0" type="line"/>
			<point x="669" y="0" type="line"/>
			<point x="391" y="752" type="line"/>
			<point x="302" y="752" type="line"/>
		</contour>
		<contour>
			<point x="158" y="195" type="line"/>
			<point x="527" y="195" type="line"/>
			<point x="527" y="272" type="line"/>
			<point x="158" y="272" type="line"/>
		</contour>
		<contour>
			<point x="23" y="0" type="line"/>
			<point x="120" y="0" type="line"/>
			<point x="390" y="752" type="line"/>
			<point x="301" y="752" type="line"/>
		</contour>
	</outline>
</glyph>
<glyph name="L" format="2">
	<advance width="564"/>
	<unicode hex="004C"/>
	<anchor x="282" y="376" name="center"/>
	<anchor x="125" y="752" name="top"/>
	<anchor x="354" y="601" name="topright"/>
	<anchor x="282" y="0" name="bottom"/>
	<outline>
		<contour>
			<point x="78" y="0" type="line"/>
			<point x="533" y="0" type="line"/>
			<point x="533" y="90" type="line"/>
			<point x="172" y="90" type="line"/>
			<point x="172" y="752" type="line"/>
			<point x="78" y="752" type="line"/>
		</contour>
	</outline>
</glyph>
<glyph name="R" format="2">
	<advance width="658"/>
	<unicode hex="0052"/>
	<anchor x="329" y="752" name="top"/>
	<anchor x="329" y="0" name="bottom"/>
	<outline>
		<contour>
			<point x="78" y="0" type="line"/>
			<point x="172" y="0" type="line"/>
			<point x="172" y="309" type="line"/>
			<point x="312" y="309" type="line" smooth="yes"/>
			<point x="497" y="309"/>
			<point x="597" y="357"/>
			<point x="597" y="531" type="curve" smooth="yes"/>
			<point x="597" y="704"/>
			<point x="496" y="752"/>
			<point x="312" y="752" type="curve" smooth="yes"/>
			<point x="78" y="752" type="line"/>
		</contour>
		<contour>
			<point x="512" y="0" type="curve"/>
			<point x="614" y="0" type="line"/>
			<point x="602" y="20"/>
			<point x="594" y="43"/>
			<point x="585" y="82" type="curve" smooth="yes"/>
			<point x="562" y="186" type="line" smooth="yes"/>
			<point x="537" y="297"/>
			<point x="464" y="377"/>
			<point x="373" y="377" type="curve"/>
			<point x="312" y="309" type="line"/>
			<point x="368" y="309"/>
			<point x="448" y="280"/>
			<point x="468" y="181" type="curve" smooth="yes"/>
			<point x="490" y="73" type="line" smooth="yes"/>
			<point x="497" y="41"/>
			<point x="503" y="17"/>
		</contour>
		<contour>
			<point x="172" y="399" type="line"/>
			<point x="172" y="663" type="line"/>
			<point x="322" y="663" type="line" smooth="yes"/>
			<point x="451" y="663"/>
			<point x="502" y="637"/>
			<point x="502" y="532" type="curve" smooth="yes"/>
			<point x="502" y="427"/>
			<point x="456" y="399"/>
			<point x="325" y="399" type="curve" smooth="yes"/>
		</contour>
	</outline>
</glyph>
<glyph name="U" format="2">
	<advance width="711"/>
	<unicode hex="0055"/>
	<anchor x="443" y="-10" name="ogonek"/>
	<anchor x="356" y="752" name="top"/>
	<anchor x="691" y="752" name="topright"/>
	<anchor x="356" y="0" name="bottom"/>
	<outline>
		<contour>
			<point x="361" y="-14" type="curve" smooth="yes"/>
			<point x="618" y="-14"/>
			<point x="645" y="128"/>
			<point x="645" y="232" type="curve" smooth="yes"/>
			<point x="645" y="752" type="line"/>
			<point x="549" y="752" type="line"/>
			<point x="549" y="257" type="line" smooth="yes"/>
			<point x="549" y="134"/>
			<point x="505" y="79"/>
			<point x="361" y="79" type="curve" smooth="yes"/>
			<point x="208" y="79"/>
			<point x="173" y="128"/>
			<point x="173" y="257" type="curve" smooth="yes"/>
			<point x="173" y="752" type="line"/>
			<point x="76" y="752" type="line"/>
			<point x="76" y="232" type="line" smooth="yes"/>
			<point x="76" y="128"/>
			<point x="104" y="-14"/>
		</contour>
	</outline>
</glyph>
<glyph name="X" format="2">
	<advance width="763"/>
	<unicode hex="0058"/>
	<anchor x="382" y="752" name="top"/>
	<anchor x="382" y="0" name="bottom"/>
	<outline>
		<contour>
			<point x="12" y="0" type="line"/>
			<point x="127" y="0" type="line"/>
			<point x="380" y="333" type="line"/>
			<point x="631" y="0" type="line"/>
			<point x="751" y="0" type="line"/>
			<point x="448" y="392" type="line"/>
			<point x="718" y="752" type="line"/>
			<point x="603" y="752" type="line"/>
			<point x="380" y="451" type="line"/>
			<point x="161" y="752" type="line"/>
			<point x="38" y="752" type="line"/>
			<point x="310" y="392" type="line"/>
		</contour>
	</outline>
</glyph>
<glyph name="bracketleft" format="2">
	<advance width="384"/>
	<unicode hex="005B"/>
	<outline>
		<contour>
			<point x="73" y="-187" type="line"/>
			<point x="348" y="-187" type="line"/>
			<point x="348" y="-97" type="line"/>
			<point x="167" y="-97" type="line"/>
			<point x="167" y="693" type="line"/>
			<point x="348" y="693" type="line"/>
			<point x="348" y="783" type="line"/>
			<point x="73" y="783" type="line"/>
		</contour>
	</outline>
</glyph>
<glyph name="backslash" format="2">
	<advance width="329"/>
	<unicode hex="005C"/>
	<outline>
		<contour>
			<point x="240" y="-254" type="line"/>
			<point x="329" y="-254" type="line"/>
			<point x="89" y="752" type="line"/>
			<point x="0" y="752" type="line"/>
		</contour>
	</outline>
</glyph>
<glyph name="grave" format="2">
	<advance width="600"/>
	<unicode hex="0060"/>
	<outline>
		<contour>
			<point x="397" y="576" type="line"/>
			<point x="312" y="714" type="line"/>
			<point x="222" y="714" type="line"/>
			<point x="320" y="576" type="line"/>
		</contour>
	</outline>
</glyph>
<glyph name="a" format="2">
	<advance width="604"/>
	<unicode hex="0061"/>
	<anchor x="548" y="0" name="ogonek"/>
	<anchor x="251" y="-14" name="bottom"/>
	<anchor x="302" y="524" name="top"/>
	<outline>
		<contour>
			<point x="251" y="-14" type="curve" smooth="yes"/>
			<point x="381" y="-14"/>
			<point x="425" y="28"/>
			<point x="447" y="55" type="curve"/>
			<point x="447" y="0" type="line"/>
			<point x="538" y="0" type="line"/>
			<point x="538" y="307" type="line" smooth="yes"/>
			<point x="538" y="472"/>
			<point x="456" y="518"/>
			<point x="320" y="524" type="curve"/>
			<point x="140" y="524"/>
			<point x="74" y="441"/>
			<point x="71" y="364" type="curve"/>
			<point x="161" y="364" type="line"/>
			<point x="174" y="408"/>
			<point x="216" y="433"/>
			<point x="303" y="433" type="curve" smooth="yes"/>
			<point x="412" y="433"/>
			<point x="446" y="402"/>
			<point x="446" y="319" type="curve"/>
			<point x="251" y="307" type="line" smooth="yes"/>
			<point x="129" y="299"/>
			<point x="48" y="275"/>
			<point x="48" y="159" type="curve" smooth="yes"/>
			<point x="48" y="83"/>
			<point x="105" y="-14"/>
		</contour>
		<contour>
			<point x="286" y="77" type="curve" smooth="yes"/>
			<point x="154" y="77"/>
			<point x="140" y="131"/>
			<point x="140" y="159" type="curve" smooth="yes"/>
			<point x="140" y="207"/>
			<point x="165" y="220"/>
			<point x="261" y="227" type="curve" smooth="yes"/>
			<point x="279" y="228"/>
			<point x="376" y="234"/>
			<point x="445" y="237" type="curve"/>
			<point x="445" y="185" type="line" smooth="yes"/>
			<point x="445" y="116"/>
			<point x="371" y="77"/>
		</contour>
	</outline>
</glyph>
<glyph name="b" format="2">
	<advance width="638"/>
	<unicode hex="0062"/>
	<anchor x="319" y="782" name="top"/>
	<anchor x="319" y="0" name="bottom"/>
	<outline>
		<contour>
			<point x="337" y="-14" type="curve" smooth="yes"/>
			<point x="515" y="-14"/>
			<point x="599" y="124"/>
			<point x="598" y="255" type="curve" smooth="yes"/>
			<point x="597" y="385"/>
			<point x="515" y="526"/>
			<point x="337" y="524" type="curve" smooth="yes"/>
			<point x="261" y="523"/>
			<point x="200" y="486"/>
			<point x="169" y="445" type="curve"/>
			<point x="169" y="782" type="line"/>
			<point x="78" y="782" type="line"/>
			<point x="78" y="0" type="line"/>
			<point x="169" y="0" type="line"/>
			<point x="169" y="54" type="line"/>
			<point x="200" y="16"/>
			<point x="261" y="-14"/>
		</contour>
		<contour>
			<point x="337" y="76" type="curve" smooth="yes"/>
			<point x="225" y="79"/>
			<point x="169" y="147"/>
			<point x="169" y="255" type="curve" smooth="yes"/>
			<point x="169" y="363"/>
			<point x="225" y="431"/>
			<point x="337" y="434" type="curve" smooth="yes"/>
			<point x="451" y="437"/>
			<point x="505" y="364"/>
			<point x="505" y="255" type="curve" smooth="yes"/>
			<point x="505" y="145"/>
			<point x="451" y="73"/>
		</contour>
	</outline>
</glyph>
<glyph name="d" format="2">
	<advance width="638"/>
	<unicode hex="0064"/>
	<anchor x="588" y="601" name="topright"/>
	<anchor x="319" y="0" name="bottom"/>
	<anchor x="319" y="252" name="center"/>
	<outline>
		<contour>
			<point x="301" y="-14" type="curve" smooth="yes"/>
			<point x="377" y="-14"/>
			<point x="438" y="16"/>
			<point x="469" y="54" type="curve"/>
			<point x="469" y="0" type="line"/>
			<point x="560" y="0" type="line"/>
			<point x="560" y="782" type="line"/>
			<point x="469" y="782" type="line"/>
			<point x="469" y="445" type="line"/>
			<point x="438" y="486"/>
			<point x="377" y="524"/>
			<point x="301" y="524" type="curve" smooth="yes"/>
			<point x="123" y="524"/>
			<point x="40" y="385"/>
			<point x="40" y="255" type="curve" smooth="yes"/>
			<point x="40" y="124"/>
			<point x="123" y="-14"/>
		</contour>
		<contour>
			<point x="301" y="76" type="curve" smooth="yes"/>
			<point x="187" y="73"/>
			<point x="133" y="145"/>
			<point x="133" y="255" type="curve" smooth="yes"/>
			<point x="133" y="364"/>
			<point x="187" y="437"/>
			<point x="301" y="434" type="curve" smooth="yes"/>
			<point x="413" y="431"/>
			<point x="469" y="363"/>
			<point x="469" y="255" type="curve" smooth="yes"/>
			<point x="469" y="147"/>
			<point x="413" y="79"/>
		</contour>
	</outline>
</glyph>
<glyph name="g" format="2">
	<advance width="590"/>
	<unicode hex="0067"/>
	<anchor x="295" y="504" name="top"/>
	<anchor x="295" y="-278" name="bottom"/>
	<outline>
		<contour>
			<point x="282" y="-278" type="curve" smooth="yes"/>
			<point x="464" y="-278"/>
			<point x="547" y="-199"/>
			<point x="547" y="-92" type="curve" smooth="yes"/>
			<point x="547" y="21"/>
			<point x="453" y="77"/>
			<point x="339" y="85" type="curve" smooth="yes"/>
			<point x="222" y="93"/>
			<point x="179" y="120"/>
			<point x="179" y="148" type="curve" smooth="yes"/>
			<point x="179" y="165"/>
			<point x="183" y="172"/>
			<point x="216" y="199" type="curve"/>
			<point x="154" y="223" type="line"/>
			<point x="115" y="196"/>
			<point x="92" y="179"/>
			<point x="92" y="129" type="curve" smooth="yes"/>
			<point x="92" y="36"/>
			<point x="188" y="5"/>
			<point x="303" y="-3" type="curve" smooth="yes"/>
			<point x="416" y="-11"/>
			<point x="454" y="-38"/>
			<point x="454" y="-95" type="curve" smooth="yes"/>
			<point x="454" y="-161"/>
			<point x="375" y="-193"/>
			<point x="293" y="-193" type="curve" smooth="yes"/>
			<point x="211" y="-193"/>
			<point x="139" y="-172"/>
			<point x="139" y="-113" type="curve" smooth="yes"/>
			<point x="139" y="-62"/>
			<point x="176" y="-38"/>
			<point x="250" y="10" type="curve"/>
			<point x="199" y="42" type="line"/>
			<point x="142" y="-9"/>
			<point x="46" y="-5"/>
			<point x="46" y="-122" type="curve" smooth="yes"/>
			<point x="46" y="-193"/>
			<point x="118" y="-278"/>
		</contour>
		<contour>
			<point x="285" y="157" type="curve" smooth="yes"/>
			<point x="423" y="157"/>
			<point x="501" y="222"/>
			<point x="501" y="337" type="curve" smooth="yes"/>
			<point x="501" y="452"/>
			<point x="423" y="516"/>
			<point x="285" y="516" type="curve" smooth="yes"/>
			<point x="146" y="516"/>
			<point x="68" y="452"/>
			<point x="68" y="337" type="curve" smooth="yes"/>
			<point x="68" y="222"/>
			<point x="146" y="157"/>
		</contour>
		<contour>
			<point x="285" y="233" type="curve" smooth="yes"/>
			<point x="196" y="233"/>
			<point x="153" y="267"/>
			<point x="153" y="337" type="curve" smooth="yes"/>
			<point x="153" y="406"/>
			<point x="196" y="440"/>
			<point x="285" y="440" type="curve" smooth="yes"/>
			<point x="374" y="440"/>
			<point x="417" y="406"/>
			<point x="417" y="337" type="curve" smooth="yes"/>
			<point x="417" y="267"/>
			<point x="374" y="233"/>
		</contour>
		<contour>
			<point x="479" y="404" type="line"/>
			<point x="505" y="424"/>
			<point x="529" y="439"/>
			<point x="571" y="462" type="curve"/>
			<point x="558" y="484"/>
			<point x="547" y="501"/>
			<point x="529" y="525" type="curve"/>
			<point x="484" y="499"/>
			<point x="448" y="467"/>
			<point x="416" y="426" type="curve"/>
		</contour>
	</outline>
</glyph>
<glyph name="h" format="2">
	<advance width="636"/>
	<unicode hex="0068"/>
	<anchor x="318" y="450" name="center"/>
	<anchor x="318" y="0" name="bottom"/>
	<anchor x="318" y="900" name="top"/>
	<outline>
		<contour>
			<point x="78" y="0" type="line"/>
			<point x="170" y="0" type="line"/>
			<point x="170" y="302" type="line" smooth="yes"/>
			<point x="170" y="313"/>
			<point x="170" y="326"/>
			<point x="172" y="337" type="curve" smooth="yes"/>
			<point x="183" y="397"/>
			<point x="260" y="433"/>
			<point x="334" y="433" type="curve" smooth="yes"/>
			<point x="398" y="433"/>
			<point x="454" y="407"/>
			<point x="471" y="355" type="curve" smooth="yes"/>
			<point x="477" y="338"/>
			<point x="478" y="321"/>
			<point x="478" y="304" type="curve" smooth="yes"/>
			<point x="478" y="0" type="line"/>
			<point x="571" y="0" type="line"/>
			<point x="571" y="308" type="line" smooth="yes"/>
			<point x="571" y="456"/>
			<point x="492" y="524"/>
			<point x="351" y="524" type="curve" smooth="yes"/>
			<point x="246" y="524"/>
			<point x="186" y="481"/>
			<point x="170" y="450" type="curve"/>
			<point x="170" y="782" type="line"/>
			<point x="78" y="782" type="line"/>
		</contour>
	</outline>
</glyph>
<glyph name="j" format="2">
	<advance width="237"/>
	<unicode hex="006A"/>
	<outline>
		<contour>
			<point x="-74" y="-276" type="line"/>
			<point x="-36" y="-276" type="line" smooth="yes"/>
			<point x="101" y="-276"/>
			<point x="170" y="-272"/>
			<point x="170" y="-41" type="curve" smooth="yes"/>
			<point x="170" y="504" type="line"/>
			<point x="79" y="504" type="line"/>
			<point x="79" y="-48" type="line" smooth="yes"/>
			<point x="79" y="-173"/>
			<point x="33" y="-185"/>
			<point x="-40" y="-183" type="curve" smooth="yes"/>
			<point x="-70" y="-182" type="line"/>
		</contour>
		<contour>
			<point x="125" y="640" type="curve" smooth="yes"/>
			<point x="159" y="640"/>
			<point x="188" y="668"/>
			<point x="188" y="703" type="curve" smooth="yes"/>
			<point x="188" y="738"/>
			<point x="159" y="766"/>
			<point x="125" y="766" type="curve" smooth="yes"/>
			<point x="91" y="766"/>
			<point x="62" y="738"/>
			<point x="62" y="703" type="curve" smooth="yes"/>
			<point x="62" y="668"/>
			<point x="91" y="640"/>
		</contour>
	</outline>
</glyph>
<glyph name="k" format="2">
	<advance width="570"/>
	<unicode hex="006B"/>
	<anchor x="285" y="782" name="top"/>
	<anchor x="285" y="0" name="bottom"/>
	<outline>
		<contour>
			<point x="125" y="153" type="line"/>
			<point x="526" y="504" type="line"/>
			<point x="404" y="504" type="line"/>
			<point x="125" y="265" type="line"/>
		</contour>
		<contour>
			<point x="78" y="0" type="line"/>
			<point x="169" y="0" type="line"/>
			<point x="169" y="782" type="line"/>
			<point x="78" y="782" type="line"/>
		</contour>
		<contour>
			<point x="435" y="0" type="line"/>
			<point x="541" y="0" type="line"/>
			<point x="249" y="339" type="line"/>
			<point x="184" y="287" type="line"/>
		</contour>
	</outline>
</glyph>
<glyph name="l" format="2">
	<advance width="247"/>
	<unicode hex="006C"/>
	<anchor x="124" y="391" name="center"/>
	<anchor x="124" y="782" name="top"/>
	<anchor x="197" y="601" name="topright"/>
	<anchor x="124" y="0" name="bottom"/>
	<outline>
		<contour>
			<point x="78" y="0" type="line"/>
			<point x="169" y="0" type="line"/>
			<point x="169" y="782" type="line"/>
			<point x="78" y="782" type="line"/>
		</contour>
	</outline>
</glyph>
<glyph name="n" format="2">
	<advance width="635"/>
	<unicode hex="006E"/>
	<anchor x="318" y="522" name="top"/>
	<anchor x="318" y="0" name="bottom"/>
	<outline>
		<contour>
			<point x="78" y="0" type="line"/>
			<point x="169" y="0" type="line"/>
			<point x="169" y="302" type="line" smooth="yes"/>
			<point x="169" y="313"/>
			<point x="169" y="326"/>
			<point x="171" y="337" type="curve" smooth="yes"/>
			<point x="182" y="397"/>
			<point x="259" y="433"/>
			<point x="333" y="433" type="curve" smooth="yes"/>
			<point x="397" y="433"/>
			<point x="452" y="406"/>
			<point x="470" y="355" type="curve" smooth="yes"/>
			<point x="476" y="338"/>
			<point x="477" y="321"/>
			<point x="477" y="304" type="curve" smooth="yes"/>
			<point x="477" y="0" type="line"/>
			<point x="568" y="0" type="line"/>
			<point x="568" y="308" type="line" smooth="yes"/>
			<point x="568" y="456"/>
			<point x="498" y="525"/>
			<point x="350" y="524" type="curve" smooth="yes"/>
			<point x="245" y="523"/>
			<point x="185" y="481"/>
			<point x="169" y="450" type="curve"/>
			<point x="169" y="504" type="line"/>
			<point x="78" y="504" type="line"/>
		</contour>
	</outline>
</glyph>
<glyph name="o" format="2">
	<advance width="627"/>
	<unicode hex="006F"/>
	<anchor x="314" y="252" name="center"/>
	<anchor x="566" y="10" name="ogonek"/>
	<anchor x="314" y="504" name="top"/>
	<anchor x="609" y="504" name="topright"/>
	<anchor x="314" y="0" name="bottom"/>
	<outline>
		<contour>
			<point x="313" y="-14" type="curve" smooth="yes"/>
			<point x="515" y="-14"/>
			<point x="586" y="135"/>
			<point x="586" y="255" type="curve" smooth="yes"/>
			<point x="586" y="375"/>
			<point x="515" y="524"/>
			<point x="313" y="524" type="curve" smooth="yes"/>
			<point x="112" y="524"/>
			<point x="41" y="375"/>
			<point x="41" y="255" type="curve" smooth="yes"/>
			<point x="41" y="135"/>
			<point x="112" y="-14"/>
		</contour>
		<contour>
			<point x="313" y="76" type="curve" smooth="yes"/>
			<point x="204" y="76"/>
			<point x="136" y="142"/>
			<point x="136" y="255" type="curve" smooth="yes"/>
			<point x="136" y="368"/>
			<point x="202" y="434"/>
			<point x="313" y="434" type="curve" smooth="yes"/>
			<point x="424" y="434"/>
			<point x="491" y="368"/>
			<point x="491" y="255" type="curve" smooth="yes"/>
			<point x="491" y="142"/>
			<point x="422" y="76"/>
		</contour>
	</outline>
</glyph>
<glyph name="p" format="2">
	<advance width="638"/>
	<unicode hex="0070"/>
	<anchor x="319" y="504" name="top"/>
	<anchor x="319" y="0" name="bottom"/>
	<outline>
		<contour>
			<point x="78" y="-278" type="line"/>
			<point x="169" y="-278" type="line"/>
			<point x="169" y="59" type="line"/>
			<point x="200" y="18"/>
			<point x="261" y="-14"/>
			<point x="337" y="-14" type="curve" smooth="yes"/>
			<point x="515" y="-14"/>
			<point x="598" y="125"/>
			<point x="598" y="255" type="curve" smooth="yes"/>
			<point x="598" y="386"/>
			<point x="515" y="524"/>
			<point x="337" y="524" type="curve" smooth="yes"/>
			<point x="261" y="524"/>
			<point x="200" y="488"/>
			<point x="169" y="450" type="curve"/>
			<point x="169" y="504" type="line"/>
			<point x="78" y="504" type="line"/>
		</contour>
		<contour>
			<point x="337" y="76" type="curve" smooth="yes"/>
			<point x="225" y="79"/>
			<point x="169" y="147"/>
			<point x="169" y="255" type="curve" smooth="yes"/>
			<point x="169" y="363"/>
			<point x="225" y="431"/>
			<point x="337" y="434" type="curve" smooth="yes"/>
			<point x="451" y="437"/>
			<point x="505" y="365"/>
			<point x="505" y="255" type="curve" smooth="yes"/>
			<point x="505" y="146"/>
			<point x="451" y="73"/>
		</contour>
	</outline>
</glyph>
<glyph name="r" format="2">
	<advance width="427"/>
	<unicode hex="0072"/>
	<anchor x="214" y="504" name="top"/>
	<anchor x="123" y="0" name="bottom"/>
	<outline>
		<contour>
			<point x="78" y="0" type="line"/>
			<point x="169" y="0" type="line"/>
			<point x="169" y="302" type="line" smooth="yes"/>
			<point x="169" y="313"/>
			<point x="169" y="326"/>
			<point x="171" y="337" type="curve" smooth="yes"/>
			<point x="182" y="397"/>
			<point x="259" y="433"/>
			<point x="333" y="433" type="curve" smooth="yes"/>
			<point x="347" y="433"/>
			<point x="360" y="432"/>
			<point x="373" y="429" type="curve"/>
			<point x="391" y="522" type="line"/>
			<point x="378" y="524"/>
			<point x="365" y="524"/>
			<point x="350" y="524" type="curve" smooth="yes"/>
			<point x="245" y="524"/>
			<point x="185" y="481"/>
			<point x="169" y="450" type="curve"/>
			<point x="169" y="504" type="line"/>
			<point x="78" y="504" type="line"/>
		</contour>
	</outline>
</glyph>
<glyph name="s" format="2">
	<advance width="569"/>
	<unicode hex="0073"/>
	<anchor x="285" y="504" name="top"/>
	<anchor x="303" y="-11" name="bottom"/>
	<outline>
		<contour>
			<point x="301" y="-14" type="curve"/>
			<point x="432" y="-14"/>
			<point x="516" y="40"/>
			<point x="516" y="160" type="curve" smooth="yes"/>
			<point x="516" y="245"/>
			<point x="444" y="287"/>
			<point x="356" y="300" type="curve" smooth="yes"/>
			<point x="233" y="318" type="line" smooth="yes"/>
			<point x="171" y="327"/>
			<point x="154" y="339"/>
			<point x="154" y="372" type="curve" smooth="yes"/>
			<point x="154" y="428"/>
			<point x="220" y="437"/>
			<point x="286" y="437" type="curve" smooth="yes"/>
			<point x="350" y="437"/>
			<point x="403" y="412"/>
			<point x="417" y="376" type="curve"/>
			<point x="510" y="376" type="line"/>
			<point x="507" y="440"/>
			<point x="442" y="524"/>
			<point x="276" y="524" type="curve" smooth="yes"/>
			<point x="145" y="524"/>
			<point x="59" y="478"/>
			<point x="59" y="372" type="curve" smooth="yes"/>
			<point x="59" y="275"/>
			<point x="135" y="239"/>
			<point x="213" y="228" type="curve" smooth="yes"/>
			<point x="331" y="211" type="line" smooth="yes"/>
			<point x="396" y="202"/>
			<point x="420" y="190"/>
			<point x="420" y="152" type="curve" smooth="yes"/>
			<point x="420" y="95"/>
			<point x="377" y="76"/>
			<point x="285" y="76" type="curve" smooth="yes"/>
			<point x="208" y="76"/>
			<point x="160" y="99"/>
			<point x="149" y="146" type="curve"/>
			<point x="54" y="146" type="line"/>
			<point x="54" y="77"/>
			<point x="118" y="-14"/>
		</contour>
	</outline>
</glyph>
<glyph name="u" format="2">
	<advance width="634"/>
	<unicode hex="0075"/>
	<anchor x="566" y="0" name="ogonek"/>
	<anchor x="317" y="504" name="top"/>
	<anchor x="614" y="504" name="topright"/>
	<anchor x="317" y="0" name="bottom"/>
	<outline>
		<contour>
			<point x="285" y="-14" type="curve" smooth="yes"/>
			<point x="390" y="-14"/>
			<point x="450" y="25"/>
			<point x="465" y="54" type="curve"/>
			<point x="465" y="0" type="line"/>
			<point x="556" y="0" type="line"/>
			<point x="556" y="504" type="line"/>
			<point x="465" y="504" type="line"/>
			<point x="465" y="202" type="line" smooth="yes"/>
			<point x="465" y="191"/>
			<point x="465" y="178"/>
			<point x="463" y="167" type="curve" smooth="yes"/>
			<point x="452" y="107"/>
			<point x="378" y="78"/>
			<point x="304" y="78" type="curve" smooth="yes"/>
			<point x="210" y="78"/>
			<point x="159" y="113"/>
			<point x="159" y="201" type="curve" smooth="yes"/>
			<point x="159" y="504" type="line"/>
			<point x="67" y="504" type="line"/>
			<point x="67" y="197" type="line" smooth="yes"/>
			<point x="67" y="52"/>
			<point x="141" y="-14"/>
		</contour>
	</outline>
</glyph>
<glyph name="w" format="2">
	<advance width="832"/>
	<unicode hex="0077"/>
	<anchor x="416" y="504" name="top"/>
	<anchor x="416" y="0" name="bottom"/>
	<outline>
		<contour>
			<point x="189" y="0" type="line"/>
			<point x="303" y="0" type="line"/>
			<point x="416" y="381" type="line"/>
			<point x="531" y="0" type="line"/>
			<point x="644" y="0" type="line"/>
			<point x="798" y="504" type="line"/>
			<point x="702" y="504" type="line"/>
			<point x="587" y="97" type="line"/>
			<point x="459" y="504" type="line"/>
			<point x="373" y="504" type="line"/>
			<point x="245" y="97" type="line"/>
			<point x="130" y="504" type="line"/>
			<point x="35" y="504" type="line"/>
		</contour>
	</outline>
</glyph>
<glyph name="x" format="2">
	<advance width="584"/>
	<unicode hex="0078"/>
	<anchor x="292" y="504" name="top"/>
	<anchor x="292" y="0" name="bottom"/>
	<outline>
		<contour>
			<point x="27" y="0" type="line"/>
			<point x="131" y="0" type="line"/>
			<point x="290" y="213" type="line"/>
			<point x="450" y="0" type="line"/>
			<point x="557" y="0" type="line"/>
			<point x="350" y="267" type="line"/>
			<point x="531" y="504" type="line"/>
			<point x="429" y="504" type="line"/>
			<point x="290" y="325" type="line"/>
			<point x="155" y="504" type="line"/>
			<point x="45" y="504" type="line"/>
			<point x="231" y="267" type="line"/>
		</contour>
	</outline>
</glyph>
<glyph name="y" format="2">
	<advance width="601"/>
	<unicode hex="0079"/>
	<guideline x="281" y="19" angle="69"/>
	<anchor x="301" y="504" name="top"/>
	<anchor x="301" y="0" name="bottom"/>
	<outline>
		<contour>
			<point x="85" y="-268" type="line"/>
			<point x="176" y="-268" type="line" smooth="yes"/>
			<point x="265" y="-268"/>
			<point x="273" y="-258"/>
			<point x="333" y="-99" type="curve" smooth="yes"/>
			<point x="562" y="504" type="line"/>
			<point x="464" y="504" type="line"/>
			<point x="304" y="79" type="line"/>
			<point x="142" y="504" type="line"/>
			<point x="43" y="504" type="line"/>
			<point x="259" y="-38" type="line"/>
			<point x="233" y="-107" type="line" smooth="yes"/>
			<point x="209" y="-170"/>
			<point x="197" y="-179"/>
			<point x="124" y="-177" type="curve" smooth="yes"/>
			<point x="88" y="-176" type="line"/>
		</contour>
	</outline>
</glyph>
<glyph name="z" format="2">
	<advance width="547"/>
	<unicode hex="007A"/>
	<anchor x="274" y="252" name="center"/>
	<anchor x="274" y="0" name="bottom"/>
	<anchor x="274" y="504" name="top"/>
	<outline>
		<contour>
			<point x="50" y="82" type="line"/>
			<point x="165" y="82" type="line"/>
			<point x="495" y="423" type="line"/>
			<point x="382" y="423" type="line"/>
		</contour>
		<contour>
			<point x="50" y="0" type="line"/>
			<point x="495" y="0" type="line"/>
			<point x="495" y="82" type="line"/>
			<point x="50" y="82" type="line"/>
		</contour>
		<contour>
			<point x="50" y="423" type="line"/>
			<point x="495" y="423" type="line"/>
			<point x="495" y="504" type="line"/>
			<point x="50" y="504" type="line"/>
		</contour>
	</outline>
</glyph>
<glyph name="braceleft" format="2">
	<advance width="418"/>
	<unicode hex="007B"/>
	<outline>
		<contour>
			<point x="366" y="-187" type="curve" smooth="yes"/>
			<point x="376" y="-187" type="line"/>
			<point x="366" y="-97" type="line"/>
			<point x="325" y="-97"/>
			<point x="265" y="-26"/>
			<point x="265" y="72" type="curve" smooth="yes"/>
			<point x="265" y="170"/>
			<point x="178" y="298"/>
			<point x="130" y="298" type="curve"/>
			<point x="178" y="298"/>
			<point x="265" y="406"/>
			<point x="265" y="504" type="curve" smooth="yes"/>
			<point x="265" y="584"/>
			<point x="316" y="693"/>
			<point x="366" y="693" type="curve"/>
			<point x="376" y="783" type="line"/>
			<point x="366" y="783" type="line" smooth="yes"/>
			<point x="257" y="783"/>
			<point x="179" y="648"/>
			<point x="179" y="544" type="curve" smooth="yes"/>
			<point x="179" y="440"/>
			<point x="107" y="362"/>
			<point x="61" y="362" type="curve"/>
			<point x="61" y="234" type="line"/>
			<point x="107" y="234"/>
			<point x="179" y="136"/>
			<point x="179" y="32" type="curve" smooth="yes"/>
			<point x="179" y="-72"/>
			<point x="257" y="-187"/>
		</contour>
	</outline>
</glyph>
<glyph name="braceright" format="2">
	<advance width="418"/>
	<unicode hex="007D"/>
	<outline>
		<contour>
			<point x="52" y="-187" type="line" smooth="yes"/>
			<point x="161" y="-187"/>
			<point x="239" y="-72"/>
			<point x="239" y="32" type="curve" smooth="yes"/>
			<point x="239" y="136"/>
			<point x="311" y="234"/>
			<point x="357" y="234" type="curve"/>
			<point x="357" y="362" type="line"/>
			<point x="311" y="362"/>
			<point x="239" y="440"/>
			<point x="239" y="544" type="curve" smooth="yes"/>
			<point x="239" y="648"/>
			<point x="161" y="783"/>
			<point x="52" y="783" type="curve" smooth="yes"/>
			<point x="42" y="783" type="line"/>
			<point x="52" y="693" type="line"/>
			<point x="102" y="693"/>
			<point x="153" y="584"/>
			<point x="153" y="504" type="curve" smooth="yes"/>
			<point x="153" y="406"/>
			<point x="240" y="298"/>
			<point x="288" y="298" type="curve"/>
			<point x="240" y="298"/>
			<point x="153" y="170"/>
			<point x="153" y="72" type="curve" smooth="yes"/>
			<point x="153" y="-26"/>
			<point x="93" y="-97"/>
			<point x="52" y="-97" type="curve"/>
			<point x="42" y="-187" type="line"/>
		</contour>
	</outline>
</glyph>
<glyph name="exclamdown" format="2">
	<advance width="251"/>
	<unicode hex="00A1"/>
	<outline>
		<contour>
			<point x="89" y="303" type="line"/>
			<point x="71" y="-234" type="line"/>
			<point x="180" y="-234" type="line"/>
			<point x="162" y="303" type="line"/>
		</contour>
		<contour>
			<point x="126" y="532" type="curve" smooth="yes"/>
			<point x="89" y="532"/>
			<point x="58" y="503"/>
			<point x="58" y="465" type="curve" smooth="yes"/>
			<point x="58" y="427"/>
			<point x="89" y="398"/>
			<point x="126" y="398" type="curve" smooth="yes"/>
			<point x="163" y="398"/>
			<point x="193" y="427"/>
			<point x="193" y="465" type="curve" smooth="yes"/>
			<point x="193" y="503"/>
			<point x="163" y="532"/>
		</contour>
	</outline>
</glyph>
<glyph name="sterling" format="2">
	<advance width="557"/>
	<unicode hex="00A3"/>
	<outline>
		<contour>
			<point x="49" y="-14" type="line"/>
			<point x="113" y="-14"/>
			<point x="358" y="-14"/>
			<point x="416" y="-14" type="curve" smooth="yes"/>
			<point x="472" y="-14"/>
			<point x="534" y="0"/>
			<point x="566" y="71" type="curve"/>
			<point x="501" y="134" type="line"/>
			<point x="493" y="85"/>
			<point x="454" y="76"/>
			<point x="415" y="76" type="curve" smooth="yes"/>
			<point x="360" y="76"/>
			<point x="195" y="76"/>
			<point x="169" y="76" type="curve"/>
			<point x="200" y="119"/>
			<point x="252" y="200"/>
			<point x="252" y="269" type="curve" smooth="yes"/>
			<point x="252" y="361"/>
			<point x="188" y="511"/>
			<point x="188" y="583" type="curve" smooth="yes"/>
			<point x="188" y="685"/>
			<point x="222" y="703"/>
			<point x="340" y="695" type="curve" smooth="yes"/>
			<point x="360" y="694"/>
			<point x="426" y="687"/>
			<point x="471" y="680" type="curve"/>
			<point x="478" y="769" type="line"/>
			<point x="413" y="775"/>
			<point x="391" y="777"/>
			<point x="339" y="780" type="curve" smooth="yes"/>
			<point x="126" y="792"/>
			<point x="91" y="701"/>
			<point x="91" y="584" type="curve" smooth="yes"/>
			<point x="91" y="504"/>
			<point x="155" y="357"/>
			<point x="155" y="263" type="curve" smooth="yes"/>
			<point x="155" y="169"/>
			<point x="49" y="126"/>
			<point x="49" y="23" type="curve" smooth="yes"/>
		</contour>
		<contour>
			<point x="43" y="351" type="line"/>
			<point x="449" y="351" type="line"/>
			<point x="449" y="435" type="line"/>
			<point x="43" y="435" type="line"/>
		</contour>
	</outline>
</glyph>
<glyph name="brokenbar" format="2">
	<advance width="280"/>
	<unicode hex="00A6"/>
	<outline>
		<contour>
			<point x="100" y="321" type="line"/>
			<point x="180" y="321" type="line"/>
			<point x="180" y="782" type="line"/>
			<point x="100" y="782" type="line"/>
		</contour>
		<contour>
			<point x="100" y="-278" type="line"/>
			<point x="180" y="-278" type="line"/>
			<point x="180" y="183" type="line"/>
			<point x="100" y="183" type="line"/>
		</contour>
	</outline>
</glyph>
<glyph name="dieresis" format="2">
	<advance width="600"/>
	<unicode hex="00A8"/>
	<outline>
		<contour>
			<point x="205" y="579" type="curve" smooth="yes"/>
			<point x="240" y="579"/>
			<point x="268" y="607"/>
			<point x="268" y="642" type="curve" smooth="yes"/>
			<point x="268" y="677"/>
			<point x="240" y="705"/>
			<point x="205" y="705" type="curve" smooth="yes"/>
			<point x="170" y="705"/>
			<point x="142" y="677"/>
			<point x="142" y="642" type="curve" smooth="yes"/>
			<point x="142" y="607"/>
			<point x="170" y="579"/>
		</contour>
		<contour>
			<point x="398" y="579" type="curve" smooth="yes"/>
			<point x="433" y="579"/>
			<point x="461" y="607"/>
			<point x="461" y="642" type="curve" smooth="yes"/>
			<point x="461" y="677"/>
			<point x="433" y="705"/>
			<point x="398" y="705" type="curve" smooth="yes"/>
			<point x="363" y="705"/>
			<point x="335" y="677"/>
			<point x="335" y="642" type="curve" smooth="yes"/>
			<point x="335" y="607"/>
			<point x="363" y="579"/>
		</contour>
	</outline>
</glyph>
<glyph name="degree" format="2">
	<advance width="261"/>
	<unicode hex="00B0"/>
	<outline>
		<contour>
			<point x="131" y="538" type="curve" smooth="yes"/>
			<point x="196" y="538"/>
			<point x="248" y="589"/>
			<point x="248" y="655" type="curve" smooth="yes"/>
			<point x="248" y="721"/>
			<point x="196" y="772"/>
			<point x="131" y="772" type="curve" smooth="yes"/>
			<point x="67" y="772"/>
			<point x="13" y="721"/>
			<point x="13" y="655" type="curve" smooth="yes"/>
			<point x="13" y="589"/>
			<point x="67" y="538"/>
		</contour>
		<contour>
			<point x="131" y="588" type="curve" smooth="yes"/>
			<point x="94" y="588"/>
			<point x="63" y="617"/>
			<point x="63" y="655" type="curve" smooth="yes"/>
			<point x="63" y="693"/>
			<point x="94" y="722"/>
			<point x="131" y="722" type="curve" smooth="yes"/>
			<point x="168" y="722"/>
			<point x="198" y="693"/>
			<point x="198" y="655" type="curve" smooth="yes"/>
			<point x="198" y="617"/>
			<point x="168" y="588"/>
		</contour>
	</outline>
</glyph>
<glyph name="acute" format="2">
	<advance width="600"/>
	<unicode hex="00B4"/>
	<outline>
		<contour>
			<point x="282" y="576" type="line"/>
			<point x="359" y="576" type="line"/>
			<point x="457" y="714" type="line"/>
			<point x="367" y="714" type="line"/>
		</contour>
	</outline>
</glyph>
<glyph name="cedilla" format="2">
	<advance width="600"/>
	<unicode hex="00B8"/>
	<outline>
		<contour>
			<point x="238" y="-165" type="line"/>
			<point x="248" y="-181"/>
			<point x="274" y="-206"/>
			<point x="324" y="-206" type="curve" smooth="yes"/>
			<point x="377" y="-206"/>
			<point x="433" y="-193"/>
			<point x="433" y="-130" type="curve" smooth="yes"/>
			<point x="433" y="-92"/>
			<point x="409" y="-72"/>
			<point x="378" y="-65" type="curve" smooth="yes"/>
			<point x="355" y="-60"/>
			<point x="332" y="-55"/>
			<point x="332" y="-42" type="curve" smooth="yes"/>
			<point x="332" y="-27"/>
			<point x="340" y="-7"/>
			<point x="384" y="0" type="curve"/>
			<point x="312" y="0" type="line"/>
			<point x="286" y="-18"/>
			<point x="275" y="-35"/>
			<point x="275" y="-52" type="curve" smooth="yes"/>
			<point x="275" y="-64"/>
			<point x="282" y="-77"/>
			<point x="293" y="-85" type="curve" smooth="yes"/>
			<point x="303" y="-92"/>
			<point x="317" y="-96"/>
			<point x="329" y="-99" type="curve" smooth="yes"/>
			<point x="358" y="-107"/>
			<point x="374" y="-114"/>
			<point x="374" y="-129" type="curve" smooth="yes"/>
			<point x="374" y="-149"/>
			<point x="363" y="-153"/>
			<point x="333" y="-153" type="curve" smooth="yes"/>
			<point x="306" y="-153"/>
			<point x="284" y="-143"/>
			<point x="280" y="-135" type="curve"/>
		</contour>
	</outline>
</glyph>
<glyph name="guillemetright" format="2">
	<advance width="544"/>
	<unicode hex="00BB"/>
	<outline>
		<contour>
			<point x="514" y="275" type="curve"/>
			<point x="453" y="336"/>
			<point x="403" y="398"/>
			<point x="362" y="459" type="curve"/>
			<point x="250" y="459" type="line"/>
			<point x="294" y="398"/>
			<point x="339" y="336"/>
			<point x="397" y="275" type="curve"/>
			<point x="339" y="214"/>
			<point x="294" y="152"/>
			<point x="250" y="91" type="curve"/>
			<point x="362" y="91" type="line"/>
			<point x="403" y="152"/>
			<point x="453" y="214"/>
		</contour>
		<contour>
			<point x="294" y="275" type="curve"/>
			<point x="233" y="336"/>
			<point x="183" y="398"/>
			<point x="142" y="459" type="curve"/>
			<point x="30" y="459" type="line"/>
			<point x="74" y="398"/>
			<point x="119" y="336"/>
			<point x="177" y="275" type="curve"/>
			<point x="119" y="214"/>
			<point x="74" y="152"/>
			<point x="30" y="91" type="curve"/>
			<point x="142" y="91" type="line"/>
			<point x="183" y="152"/>
			<point x="233" y="214"/>
		</contour>
	</outline>
</glyph>
<glyph name="AE" format="2">
	<advance width="1027"/>
	<unicode hex="00C6"/>
	<anchor x="514" y="752" name="top"/>
	<anchor x="514" y="0" name="bottom"/>
	<outline>
		<contour>
			<point x="480" y="0" type="line"/>
			<point x="974" y="0" type="line"/>
			<point x="974" y="90" type="line"/>
			<point x="574" y="90" type="line"/>
			<point x="574" y="340" type="line"/>
			<point x="950" y="340" type="line"/>
			<point x="950" y="430" type="line"/>
			<point x="574" y="430" type="line"/>
			<point x="574" y="661" type="line"/>
			<point x="971" y="661" type="line"/>
			<point x="971" y="752" type="line"/>
			<point x="480" y="752" type="line"/>
		</contour>
		<contour>
			<point x="185" y="195" type="line"/>
			<point x="554" y="195" type="line"/>
			<point x="554" y="272" type="line"/>
			<point x="185" y="272" type="line"/>
		</contour>
		<contour>
			<point x="17" y="0" type="line"/>
			<point x="114" y="0" type="line"/>
			<point x="437" y="752" type="line"/>
			<point x="348" y="752" type="line"/>
		</contour>
		<contour>
			<point x="373" y="661" type="line"/>
			<point x="671" y="661" type="line"/>
			<point x="671" y="752" type="line"/>
			<point x="373" y="752" type="line"/>
		</contour>
	</outline>
</glyph>
<glyph name="Oslash" format="2">
	<advance width="824"/>
	<unicode hex="00D8"/>
	<outline>
		<contour>
			<point x="412" y="-14" type="curve" smooth="yes"/>
			<point x="664" y="-14"/>
			<point x="759" y="154"/>
			<point x="759" y="369" type="curve" smooth="yes"/>
			<point x="759" y="584"/>
			<point x="664" y="752"/>
			<point x="412" y="752" type="curve" smooth="yes"/>
			<point x="160" y="752"/>
			<point x="65" y="584"/>
			<point x="65" y="369" type="curve" smooth="yes"/>
			<point x="65" y="154"/>
			<point x="160" y="-14"/>
		</contour>
		<contour>
			<point x="141" y="-9" type="line"/>
			<point x="337" y="229"/>
			<point x="536" y="465"/>
			<point x="736" y="699" type="curve"/>
			<point x="669" y="752" type="line"/>
			<point x="473" y="514"/>
			<point x="276" y="278"/>
			<point x="76" y="44" type="curve"/>
		</contour>
		<contour>
			<point x="412" y="75" type="curve" smooth="yes"/>
			<point x="243" y="75"/>
			<point x="160" y="197"/>
			<point x="160" y="369" type="curve" smooth="yes"/>
			<point x="160" y="540"/>
			<point x="243" y="663"/>
			<point x="412" y="663" type="curve" smooth="yes"/>
			<point x="582" y="663"/>
			<point x="664" y="540"/>
			<point x="664" y="369" type="curve" smooth="yes"/>
			<point x="664" y="197"/>
			<point x="582" y="75"/>
		</contour>
	</outline>
</glyph>
<glyph name="germandbls" format="2">
	<advance width="595"/>
	<unicode hex="00DF"/>
	<outline>
		<contour>
			<point x="65" y="0" type="line"/>
			<point x="162" y="0" type="line"/>
			<point x="162" y="546" type="line" smooth="yes"/>
			<point x="162" y="648"/>
			<point x="239" y="680"/>
			<point x="317" y="680" type="curve" smooth="yes"/>
			<point x="398" y="680"/>
			<point x="449" y="649"/>
			<point x="449" y="562" type="curve" smooth="yes"/>
			<point x="449" y="483"/>
			<point x="369" y="460"/>
			<point x="304" y="439" type="curve" smooth="yes"/>
			<point x="257" y="424"/>
			<point x="259" y="356"/>
			<point x="304" y="348" type="curve" smooth="yes"/>
			<point x="380" y="334"/>
			<point x="466" y="298"/>
			<point x="466" y="207" type="curve" smooth="yes"/>
			<point x="466" y="106"/>
			<point x="362" y="76"/>
			<point x="269" y="76" type="curve"/>
			<point x="269" y="-14" type="line"/>
			<point x="457" y="-14"/>
			<point x="561" y="85"/>
			<point x="561" y="207" type="curve" smooth="yes"/>
			<point x="561" y="295"/>
			<point x="520" y="354"/>
			<point x="443" y="399" type="curve"/>
			<point x="500" y="435"/>
			<point x="538" y="488"/>
			<point x="538" y="562" type="curve" smooth="yes"/>
			<point x="538" y="690"/>
			<point x="465" y="772"/>
			<point x="311" y="772" type="curve" smooth="yes"/>
			<point x="158" y="772"/>
			<point x="65" y="684"/>
			<point x="65" y="546" type="curve" smooth="yes"/>
		</contour>
	</outline>
</glyph>
<glyph name="ae" format="2">
	<advance width="954"/>
	<unicode hex="00E6"/>
	<anchor x="477" y="504" name="top"/>
	<anchor x="477" y="0" name="bottom"/>
	<outline>
		<contour>
			<point x="250" y="-14" type="curve" smooth="yes"/>
			<point x="366" y="-14"/>
			<point x="420" y="7"/>
			<point x="462" y="102" type="curve"/>
			<point x="450" y="126" type="line"/>
			<point x="483" y="49"/>
			<point x="534" y="-14"/>
			<point x="651" y="-14" type="curve" smooth="yes"/>
			<point x="733" y="-14"/>
			<point x="863" y="6"/>
			<point x="884" y="147" type="curve"/>
			<point x="789" y="147" type="line"/>
			<point x="757" y="87"/>
			<point x="701" y="74"/>
			<point x="651" y="74" type="curve" smooth="yes"/>
			<point x="578" y="74"/>
			<point x="510" y="119"/>
			<point x="510" y="231" type="curve" smooth="yes"/>
			<point x="510" y="234" type="line"/>
			<point x="895" y="234" type="line"/>
			<point x="895" y="496"/>
			<point x="771" y="524"/>
			<point x="657" y="524" type="curve" smooth="yes"/>
			<point x="569" y="524"/>
			<point x="521" y="489"/>
			<point x="482" y="439" type="curve"/>
			<point x="452" y="499"/>
			<point x="394" y="520"/>
			<point x="311" y="524" type="curve"/>
			<point x="83" y="524"/>
			<point x="78" y="364"/>
			<point x="78" y="364" type="curve"/>
			<point x="169" y="364" type="line"/>
			<point x="187" y="402"/>
			<point x="218" y="436"/>
			<point x="296" y="436" type="curve" smooth="yes"/>
			<point x="367" y="436"/>
			<point x="424" y="392"/>
			<point x="424" y="319" type="curve"/>
			<point x="250" y="307" type="line" smooth="yes"/>
			<point x="140" y="299"/>
			<point x="58" y="275"/>
			<point x="58" y="159" type="curve" smooth="yes"/>
			<point x="58" y="83"/>
			<point x="119" y="-14"/>
		</contour>
		<contour>
			<point x="281" y="74" type="curve" smooth="yes"/>
			<point x="163" y="74"/>
			<point x="150" y="131"/>
			<point x="150" y="159" type="curve" smooth="yes"/>
			<point x="150" y="207"/>
			<point x="172" y="220"/>
			<point x="258" y="227" type="curve" smooth="yes"/>
			<point x="280" y="229"/>
			<point x="423" y="237"/>
			<point x="423" y="237" type="curve"/>
			<point x="423" y="185" type="line" smooth="yes"/>
			<point x="423" y="116"/>
			<point x="357" y="74"/>
		</contour>
		<contour>
			<point x="517" y="316" type="line"/>
			<point x="517" y="317" type="line" smooth="yes"/>
			<point x="517" y="394"/>
			<point x="571" y="436"/>
			<point x="651" y="436" type="curve" smooth="yes"/>
			<point x="719" y="436"/>
			<point x="790" y="419"/>
			<point x="796" y="316" type="curve"/>
		</contour>
	</outline>
</glyph>
<glyph name="divide" format="2">
	<advance width="584"/>
	<unicode hex="00F7"/>
	<outline>
		<contour>
			<point x="35" y="282" type="line"/>
			<point x="549" y="282" type="line"/>
			<point x="549" y="361" type="line"/>
			<point x="35" y="361" type="line"/>
		</contour>
		<contour>
			<point x="292" y="438" type="curve" smooth="yes"/>
			<point x="327" y="438"/>
			<point x="355" y="466"/>
			<point x="355" y="501" type="curve" smooth="yes"/>
			<point x="355" y="536"/>
			<point x="327" y="564"/>
			<point x="292" y="564" type="curve" smooth="yes"/>
			<point x="257" y="564"/>
			<point x="229" y="536"/>
			<point x="229" y="501" type="curve" smooth="yes"/>
			<point x="229" y="466"/>
			<point x="257" y="438"/>
		</contour>
		<contour>
			<point x="292" y="79" type="curve" smooth="yes"/>
			<point x="327" y="79"/>
			<point x="355" y="107"/>
			<point x="355" y="142" type="curve" smooth="yes"/>
			<point x="355" y="177"/>
			<point x="327" y="205"/>
			<point x="292" y="205" type="curve" smooth="yes"/>
			<point x="257" y="205"/>
			<point x="229" y="177"/>
			<point x="229" y="142" type="curve" smooth="yes"/>
			<point x="229" y="107"/>
			<point x="257" y="79"/>
		</contour>
	</outline>
</glyph>
<glyph name="oslash" format="2">
	<advance width="627"/>
	<unicode hex="00F8"/>
	<outline>
		<contour>
			<point x="313" y="-14" type="curve" smooth="yes"/>
			<point x="515" y="-14"/>
			<point x="586" y="135"/>
			<point x="586" y="255" type="curve" smooth="yes"/>
			<point x="586" y="375"/>
			<point x="515" y="524"/>
			<point x="313" y="524" type="curve" smooth="yes"/>
			<point x="112" y="524"/>
			<point x="41" y="375"/>
			<point x="41" y="255" type="curve" smooth="yes"/>
			<point x="41" y="135"/>
			<point x="112" y="-14"/>
		</contour>
		<contour>
			<point x="313" y="76" type="curve" smooth="yes"/>
			<point x="204" y="76"/>
			<point x="136" y="142"/>
			<point x="136" y="255" type="curve" smooth="yes"/>
			<point x="136" y="368"/>
			<point x="202" y="434"/>
			<point x="313" y="434" type="curve" smooth="yes"/>
			<point x="424" y="434"/>
			<point x="491" y="368"/>
			<point x="491" y="255" type="curve" smooth="yes"/>
			<point x="491" y="142"/>
			<point x="422" y="76"/>
		</contour>
		<contour>
			<point x="108" y="-15" type="line"/>
			<point x="321" y="210"/>
			<point x="357" y="252"/>
			<point x="573" y="472" type="curve"/>
			<point x="514" y="525" type="line"/>
			<point x="302" y="301"/>
			<point x="268" y="259"/>
			<point x="52" y="39" type="curve"/>
		</contour>
	</outline>
</glyph>
<glyph name="thorn" format="2">
	<advance width="638"/>
	<unicode hex="00FE"/>
	<outline>
		<contour>
			<point x="78" y="-278" type="line"/>
			<point x="169" y="-278" type="line"/>
			<point x="169" y="59" type="line"/>
			<point x="200" y="18"/>
			<point x="261" y="-14"/>
			<point x="337" y="-14" type="curve" smooth="yes"/>
			<point x="515" y="-14"/>
			<point x="598" y="125"/>
			<point x="598" y="255" type="curve" smooth="yes"/>
			<point x="598" y="386"/>
			<point x="515" y="524"/>
			<point x="337" y="524" type="curve" smooth="yes"/>
			<point x="261" y="524"/>
			<point x="200" y="488"/>
			<point x="169" y="450" type="curve"/>
			<point x="169" y="782" type="line"/>
			<point x="78" y="782" type="line"/>
		</contour>
		<contour>
			<point x="337" y="76" type="curve" smooth="yes"/>
			<point x="225" y="79"/>
			<point x="169" y="147"/>
			<point x="169" y="255" type="curve" smooth="yes"/>
			<point x="169" y="363"/>
			<point x="225" y="431"/>
			<point x="337" y="434" type="curve" smooth="yes"/>
			<point x="451" y="437"/>
			<point x="505" y="365"/>
			<point x="505" y="255" type="curve" smooth="yes"/>
			<point x="505" y="146"/>
			<point x="451" y="73"/>
		</contour>
	</outline>
</glyph>
<glyph name="Hbar" format="2">
	<advance width="823"/>
	<unicode hex="0126"/>
	<outline>
		<contour>
			<point x="119" y="0" type="line"/>
			<point x="213" y="0" type="line"/>
			<point x="213" y="341" type="line"/>
			<point x="611" y="341" type="line"/>
			<point x="611" y="0" type="line"/>
			<point x="705" y="0" type="line"/>
			<point x="705" y="752" type="line"/>
			<point x="611" y="752" type="line"/>
			<point x="611" y="431" type="line"/>
			<point x="213" y="431" type="line"/>
			<point x="213" y="752" type="line"/>
			<point x="119" y="752" type="line"/>
		</contour>
		<contour>
			<point x="58" y="634" type="line"/>
			<point x="58" y="548" type="line"/>
			<point x="765" y="548" type="line"/>
			<point x="765" y="634" type="line"/>
		</contour>
	</outline>
</glyph>
<glyph name="Lslash" format="2">
	<advance width="570"/>
	<unicode hex="0141"/>
	<outline>
		<contour>
			<point x="82" y="0" type="line"/>
			<point x="537" y="0" type="line"/>
			<point x="537" y="90" type="line"/>
			<point x="176" y="90" type="line"/>
			<point x="176" y="752" type="line"/>
			<point x="82" y="752" type="line"/>
		</contour>
		<contour>
			<point x="18" y="398" type="line"/>
			<point x="18" y="307" type="line"/>
			<point x="387" y="464" type="line"/>
			<point x="387" y="555" type="line"/>
		</contour>
	</outline>
</glyph>
<glyph name="lslash" format="2">
	<advance width="327"/>
	<unicode hex="0142"/>
	<outline>
		<contour>
			<point x="118" y="0" type="line"/>
			<point x="209" y="0" type="line"/>
			<point x="209" y="782" type="line"/>
			<point x="118" y="782" type="line"/>
		</contour>
		<contour>
			<point x="58" y="416" type="line"/>
			<point x="58" y="330" type="line"/>
			<point x="269" y="419" type="line"/>
			<point x="269" y="505" type="line"/>
		</contour>
	</outline>
</glyph>
<glyph name="oe" format="2">
	<advance width="958"/>
	<unicode hex="0153"/>
	<anchor x="322" y="504" name="top"/>
	<anchor x="322" y="0" name="bottom"/>
	<outline>
		<contour>
			<point x="504" y="439" type="curve"/>
			<point x="486" y="415"/>
			<point x="491" y="398"/>
			<point x="490" y="378" type="curve"/>
			<point x="484" y="102" type="line"/>
			<point x="472" y="126" type="line"/>
			<point x="505" y="49"/>
			<point x="561" y="-14"/>
			<point x="678" y="-14" type="curve" smooth="yes"/>
			<point x="768" y="-14"/>
			<point x="885" y="6"/>
			<point x="906" y="147" type="curve"/>
			<point x="821" y="147" type="line"/>
			<point x="789" y="87"/>
			<point x="728" y="74"/>
			<point x="678" y="74" type="curve" smooth="yes"/>
			<point x="608" y="74"/>
			<point x="542" y="108"/>
			<point x="542" y="231" type="curve" smooth="yes"/>
			<point x="542" y="234" type="line"/>
			<point x="917" y="234" type="line"/>
			<point x="917" y="496"/>
			<point x="810" y="524"/>
			<point x="684" y="524" type="curve" smooth="yes"/>
			<point x="596" y="524"/>
			<point x="543" y="489"/>
		</contour>
		<contour>
			<point x="542" y="316" type="line"/>
			<point x="542" y="317" type="line" smooth="yes"/>
			<point x="542" y="394"/>
			<point x="604" y="436"/>
			<point x="678" y="436" type="curve" smooth="yes"/>
			<point x="746" y="436"/>
			<point x="822" y="419"/>
			<point x="828" y="316" type="curve"/>
		</contour>
		<contour>
			<point x="505" y="72" type="curve"/>
			<point x="497" y="427" type="line"/>
			<point x="452" y="482"/>
			<point x="378" y="523"/>
			<point x="302" y="524" type="curve" smooth="yes"/>
			<point x="124" y="526"/>
			<point x="41" y="386"/>
			<point x="41" y="255" type="curve" smooth="yes"/>
			<point x="41" y="125"/>
			<point x="125" y="-13"/>
			<point x="303" y="-13" type="curve" smooth="yes"/>
			<point x="379" y="-13"/>
			<point x="474" y="21"/>
		</contour>
		<contour>
			<point x="302" y="76" type="curve" smooth="yes"/>
			<point x="188" y="73"/>
			<point x="134" y="146"/>
			<point x="134" y="255" type="curve" smooth="yes"/>
			<point x="134" y="365"/>
			<point x="188" y="437"/>
			<point x="302" y="434" type="curve" smooth="yes"/>
			<point x="414" y="431"/>
			<point x="470" y="363"/>
			<point x="470" y="255" type="curve" smooth="yes"/>
			<point x="470" y="147"/>
			<point x="414" y="79"/>
		</contour>
	</outline>
</glyph>
<glyph name="Khook" format="2">
	<advance width="692"/>
	<unicode hex="0198"/>
	<anchor x="346" y="752" name="top"/>
	<anchor x="346" y="0" name="bottom"/>
	<outline>
		<contour>
			<point x="78" y="0" type="line"/>
			<point x="172" y="0" type="line"/>
			<point x="172" y="752" type="line"/>
			<point x="78" y="752" type="line"/>
		</contour>
		<contour>
			<point x="125" y="205" type="line"/>
			<point x="320" y="504" type="line" smooth="yes"/>
			<point x="397" y="622"/>
			<point x="445" y="685"/>
			<point x="490" y="685" type="curve" smooth="yes"/>
			<point x="524" y="685"/>
			<point x="560" y="678"/>
			<point x="585" y="623" type="curve"/>
			<point x="640" y="680" type="line"/>
			<point x="598" y="760"/>
			<point x="543" y="772"/>
			<point x="484" y="772" type="curve" smooth="yes"/>
			<point x="390" y="772"/>
			<point x="321" y="668"/>
			<point x="267" y="585" type="curve" smooth="yes"/>
			<point x="125" y="366" type="line"/>
		</contour>
		<contour>
			<point x="527" y="0" type="line"/>
			<point x="649" y="0" type="line"/>
			<point x="246" y="425" type="line"/>
			<point x="175" y="368" type="line"/>
		</contour>
	</outline>
</glyph>
<glyph name="gravecomb" format="2">
	<advance width="600"/>
	<unicode hex="0300"/>
	<anchor x="310" y="714" name="top"/>
	<anchor x="309.5" y="504" name="_top"/>
	<outline>
		<contour>
			<point x="342" y="576" type="line"/>
			<point x="257" y="714" type="line"/>
			<point x="167" y="714" type="line"/>
			<point x="265" y="576" type="line"/>
		</contour>
	</outline>
</glyph>
<glyph name="acutecomb" format="2">
	<advance width="600"/>
	<unicode hex="0301"/>
	<anchor x="310" y="714" name="top"/>
	<anchor x="310" y="504" name="_top"/>
	<outline>
		<contour>
			<point x="282" y="576" type="line"/>
			<point x="359" y="576" type="line"/>
			<point x="457" y="714" type="line"/>
			<point x="367" y="714" type="line"/>
		</contour>
	</outline>
</glyph>
<glyph name="circumflexcomb" format="2">
	<advance width="600"/>
	<unicode hex="0302"/>
	<anchor x="297.5" y="714" name="top"/>
	<anchor x="297.5" y="504" name="_top"/>
	<outline>
		<contour>
			<point x="151" y="576" type="line"/>
			<point x="231" y="576" type="line"/>
			<point x="298" y="667" type="line"/>
			<point x="364" y="576" type="line"/>
			<point x="444" y="576" type="line"/>
			<point x="341" y="714" type="line"/>
			<point x="254" y="714" type="line"/>
		</contour>
	</outline>
</glyph>
<glyph name="tildecomb" format="2">
	<advance width="600"/>
	<unicode hex="0303"/>
	<anchor x="301.5" y="692" name="top"/>
	<anchor x="301.5" y="504" name="_top"/>
	<outline>
		<contour>
			<point x="192" y="582" type="line"/>
			<point x="195" y="604"/>
			<point x="199" y="620"/>
			<point x="242" y="620" type="curve" smooth="yes"/>
			<point x="286" y="620"/>
			<point x="289" y="582"/>
			<point x="360" y="582" type="curve" smooth="yes"/>
			<point x="450" y="582"/>
			<point x="475" y="626"/>
			<point x="475" y="692" type="curve"/>
			<point x="411" y="692" type="line"/>
			<point x="412" y="675"/>
			<point x="403" y="653"/>
			<point x="360" y="653" type="curve" smooth="yes"/>
			<point x="316" y="653"/>
			<point x="314" y="692"/>
			<point x="242" y="692" type="curve" smooth="yes"/>
			<point x="152" y="692"/>
			<point x="128" y="641"/>
			<point x="128" y="582" type="curve"/>
		</contour>
	</outline>
</glyph>
<glyph name="macroncomb" format="2">
	<advance width="600"/>
	<unicode hex="0304"/>
	<anchor x="295" y="681" name="top"/>
	<anchor x="295" y="504" name="_top"/>
	<outline>
		<contour>
			<point x="150" y="596" type="line"/>
			<point x="440" y="596" type="line"/>
			<point x="440" y="668" type="line"/>
			<point x="150" y="668" type="line"/>
		</contour>
	</outline>
</glyph>
<glyph name="dotaccentcomb" format="2">
	<advance width="600"/>
	<unicode hex="0307"/>
	<anchor x="305" y="705" name="top"/>
	<anchor x="305" y="504" name="_top"/>
	<outline>
		<contour>
			<point x="305" y="579" type="curve" smooth="yes"/>
			<point x="340" y="579"/>
			<point x="368" y="607"/>
			<point x="368" y="642" type="curve" smooth="yes"/>
			<point x="368" y="677"/>
			<point x="340" y="705"/>
			<point x="305" y="705" type="curve" smooth="yes"/>
			<point x="270" y="705"/>
			<point x="242" y="677"/>
			<point x="242" y="642" type="curve" smooth="yes"/>
			<point x="242" y="607"/>
			<point x="270" y="579"/>
		</contour>
	</outline>
</glyph>
<glyph name="ringcomb" format="2">
	<advance width="600"/>
	<unicode hex="030A"/>
	<anchor x="282.5" y="721" name="top"/>
	<anchor x="282.5" y="504" name="_top"/>
	<outline>
		<contour>
			<point x="283" y="552" type="curve" smooth="yes"/>
			<point x="330" y="552"/>
			<point x="367" y="589"/>
			<point x="367" y="636" type="curve" smooth="yes"/>
			<point x="367" y="684"/>
			<point x="330" y="721"/>
			<point x="283" y="721" type="curve" smooth="yes"/>
			<point x="237" y="721"/>
			<point x="198" y="684"/>
			<point x="198" y="636" type="curve" smooth="yes"/>
			<point x="198" y="589"/>
			<point x="237" y="552"/>
		</contour>
		<contour>
			<point x="283" y="596" type="curve" smooth="yes"/>
			<point x="260" y="596"/>
			<point x="242" y="614"/>
			<point x="242" y="637" type="curve" smooth="yes"/>
			<point x="242" y="659"/>
			<point x="260" y="677"/>
			<point x="283" y="677" type="curve" smooth="yes"/>
			<point x="305" y="677"/>
			<point x="323" y="659"/>
			<point x="323" y="637" type="curve" smooth="yes"/>
			<point x="323" y="614"/>
			<point x="305" y="596"/>
		</contour>
	</outline>
</glyph>
<glyph name="hungarumlautcomb" format="2">
	<advance width="600"/>
	<unicode hex="030B"/>
	<anchor x="293.5" y="714" name="top"/>
	<anchor x="293.5" y="504" name="_top"/>
	<outline>
		<contour>
			<point x="132" y="571" type="line"/>
			<point x="209" y="571" type="line"/>
			<point x="307" y="709" type="line"/>
			<point x="217" y="709" type="line"/>
		</contour>
		<contour>
			<point x="280" y="571" type="line"/>
			<point x="357" y="571" type="line"/>
			<point x="455" y="709" type="line"/>
			<point x="365" y="709" type="line"/>
		</contour>
	</outline>
</glyph>
<glyph name="caroncomb" format="2">
	<advance width="600"/>
	<unicode hex="030C"/>
	<anchor x="297.5" y="714" name="top"/>
	<anchor x="297.5" y="504" name="_top"/>
	<outline>
		<contour>
			<point x="143" y="709" type="line"/>
			<point x="249" y="571" type="line"/>
			<point x="346" y="571" type="line"/>
			<point x="452" y="709" type="line"/>
			<point x="364" y="709" type="line"/>
			<point x="298" y="618" type="line"/>
			<point x="231" y="709" type="line"/>
		</contour>
	</outline>
</glyph>
<glyph name="commaaccentcomb" format="2">
	<advance width="600"/>
	<unicode hex="0326"/>
	<anchor x="369.5" y="0" name="_bottom"/>
	<anchor x="369.5" y="-200" name="bottom"/>
	<outline>
		<contour>
			<point x="239" y="-200" type="line"/>
			<point x="316" y="-200" type="line"/>
			<point x="414" y="-62" type="line"/>
			<point x="324" y="-62" type="line"/>
		</contour>
	</outline>
</glyph>
<glyph name="cedillacomb" format="2">
	<advance width="600"/>
	<unicode hex="0327"/>
	<anchor x="335.5" y="0" name="_bottom"/>
	<anchor x="335.5" y="-206" name="bottom"/>
	<outline>
		<contour>
			<point x="238" y="-165" type="line"/>
			<point x="248" y="-181"/>
			<point x="274" y="-206"/>
			<point x="324" y="-206" type="curve" smooth="yes"/>
			<point x="377" y="-206"/>
			<point x="433" y="-192"/>
			<point x="433" y="-129" type="curve" smooth="yes"/>
			<point x="433" y="-91"/>
			<point x="409" y="-72"/>
			<point x="378" y="-65" type="curve" smooth="yes"/>
			<point x="355" y="-60"/>
			<point x="331" y="-53"/>
			<point x="331" y="-42" type="curve" smooth="yes"/>
			<point x="331" y="-23"/>
			<point x="340" y="-7"/>
			<point x="384" y="0" type="curve"/>
			<point x="302" y="0" type="line"/>
			<point x="276" y="-18"/>
			<point x="269" y="-35"/>
			<point x="269" y="-52" type="curve" smooth="yes"/>
			<point x="269" y="-66"/>
			<point x="281" y="-78"/>
			<point x="293" y="-85" type="curve" smooth="yes"/>
			<point x="303" y="-91"/>
			<point x="317" y="-95"/>
			<point x="329" y="-98" type="curve" smooth="yes"/>
			<point x="359" y="-106"/>
			<point x="374" y="-114"/>
			<point x="374" y="-128" type="curve" smooth="yes"/>
			<point x="374" y="-147"/>
			<point x="363" y="-151"/>
			<point x="333" y="-151" type="curve" smooth="yes"/>
			<point x="307" y="-151"/>
			<point x="286" y="-137"/>
			<point x="279" y="-129" type="curve"/>
		</contour>
	</outline>
</glyph>
<glyph name="numeral-greek" format="2">
	<advance width="232"/>
	<unicode hex="0374"/>
	<outline>
		<contour>
			<point x="51" y="462" type="line"/>
			<point x="119" y="462" type="line"/>
			<point x="197" y="772" type="line"/>
			<point x="91" y="772" type="line"/>
		</contour>
	</outline>
</glyph>
<glyph name="Xi" format="2">
	<advance width="688"/>
	<unicode hex="039E"/>
	<outline>
		<contour>
			<point x="60" y="0" type="line"/>
			<point x="628" y="0" type="line"/>
			<point x="628" y="90" type="line"/>
			<point x="60" y="90" type="line"/>
		</contour>
		<contour>
			<point x="60" y="662" type="line"/>
			<point x="628" y="662" type="line"/>
			<point x="628" y="752" type="line"/>
			<point x="60" y="752" type="line"/>
		</contour>
		<contour>
			<point x="110" y="336" type="line"/>
			<point x="578" y="336" type="line"/>
			<point x="578" y="426" type="line"/>
			<point x="110" y="426" type="line"/>
		</contour>
	</outline>
</glyph>
<glyph name="alpha" format="2">
	<advance width="691"/>
	<unicode hex="03B1"/>
	<anchor x="337" y="504" name="top"/>
	<outline>
		<contour>
			<point x="43" y="255" type="curve" smooth="yes"/>
			<point x="43" y="125"/>
			<point x="126" y="-14"/>
			<point x="304" y="-14" type="curve" smooth="yes"/>
			<point x="380" y="-14"/>
			<point x="454" y="34"/>
			<point x="503" y="99" type="curve"/>
			<point x="510" y="81"/>
			<point x="518" y="67"/>
			<point x="526" y="57" type="curve" smooth="yes"/>
			<point x="541" y="37"/>
			<point x="579" y="0"/>
			<point x="656" y="0" type="curve"/>
			<point x="656" y="85" type="line"/>
			<point x="574" y="95"/>
			<point x="559" y="166"/>
			<point x="559" y="255" type="curve" smooth="yes"/>
			<point x="559" y="350"/>
			<point x="575" y="425"/>
			<point x="656" y="435" type="curve"/>
			<point x="656" y="520" type="line"/>
			<point x="575" y="520"/>
			<point x="539" y="468"/>
			<point x="525" y="444" type="curve" smooth="yes"/>
			<point x="520" y="436"/>
			<point x="515" y="425"/>
			<point x="509" y="412" type="curve"/>
			<point x="463" y="478"/>
			<point x="389" y="524"/>
			<point x="304" y="524" type="curve" smooth="yes"/>
			<point x="126" y="524"/>
			<point x="43" y="386"/>
		</contour>
		<contour>
			<point x="136" y="255" type="curve" smooth="yes"/>
			<point x="136" y="365"/>
			<point x="190" y="434"/>
			<point x="304" y="434" type="curve" smooth="yes"/>
			<point x="380" y="434"/>
			<point x="480" y="386"/>
			<point x="480" y="255" type="curve" smooth="yes"/>
			<point x="480" y="123"/>
			<point x="390" y="76"/>
			<point x="304" y="76" type="curve" smooth="yes"/>
			<point x="190" y="76"/>
			<point x="136" y="146"/>
		</contour>
	</outline>
</glyph>
<glyph name="beta" format="2">
	<advance width="600"/>
	<unicode hex="03B2"/>
	<outline>
		<contour>
			<point x="65" y="-278" type="line"/>
			<point x="162" y="-278" type="line"/>
			<point x="162" y="556" type="line" smooth="yes"/>
			<point x="162" y="658"/>
			<point x="239" y="704"/>
			<point x="317" y="704" type="curve" smooth="yes"/>
			<point x="398" y="704"/>
			<point x="449" y="659"/>
			<point x="449" y="572" type="curve" smooth="yes"/>
			<point x="449" y="498"/>
			<point x="390" y="472"/>
			<point x="324" y="454" type="curve" smooth="yes"/>
			<point x="267" y="438"/>
			<point x="269" y="371"/>
			<point x="324" y="363" type="curve" smooth="yes"/>
			<point x="400" y="352"/>
			<point x="466" y="298"/>
			<point x="466" y="207" type="curve" smooth="yes"/>
			<point x="466" y="117"/>
			<point x="431" y="77"/>
			<point x="308" y="77" type="curve" smooth="yes"/>
			<point x="244" y="77"/>
			<point x="162" y="108"/>
			<point x="162" y="212" type="curve"/>
			<point x="162" y="42" type="line"/>
			<point x="193" y="5"/>
			<point x="259" y="-14"/>
			<point x="317" y="-14" type="curve" smooth="yes"/>
			<point x="495" y="-14"/>
			<point x="561" y="75"/>
			<point x="561" y="207" type="curve" smooth="yes"/>
			<point x="561" y="295"/>
			<point x="520" y="369"/>
			<point x="443" y="414" type="curve"/>
			<point x="500" y="450"/>
			<point x="538" y="498"/>
			<point x="538" y="572" type="curve" smooth="yes"/>
			<point x="538" y="700"/>
			<point x="465" y="796"/>
			<point x="311" y="796" type="curve" smooth="yes"/>
			<point x="158" y="796"/>
			<point x="65" y="694"/>
			<point x="65" y="556" type="curve" smooth="yes"/>
		</contour>
	</outline>
</glyph>
<glyph name="delta" format="2">
	<advance width="627"/>
	<unicode hex="03B4"/>
	<outline>
		<contour>
			<point x="313" y="-14" type="curve" smooth="yes"/>
			<point x="515" y="-14"/>
			<point x="586" y="135"/>
			<point x="586" y="255" type="curve" smooth="yes"/>
			<point x="586" y="375"/>
			<point x="515" y="524"/>
			<point x="313" y="524" type="curve" smooth="yes"/>
			<point x="252" y="524"/>
			<point x="212" y="510"/>
			<point x="174" y="487" type="curve" smooth="yes"/>
			<point x="85" y="436"/>
			<point x="41" y="338"/>
			<point x="41" y="255" type="curve" smooth="yes"/>
			<point x="41" y="135"/>
			<point x="112" y="-14"/>
		</contour>
		<contour>
			<point x="313" y="76" type="curve" smooth="yes"/>
			<point x="204" y="76"/>
			<point x="136" y="142"/>
			<point x="136" y="255" type="curve" smooth="yes"/>
			<point x="136" y="368"/>
			<point x="202" y="434"/>
			<point x="313" y="434" type="curve" smooth="yes"/>
			<point x="424" y="434"/>
			<point x="491" y="368"/>
			<point x="491" y="255" type="curve" smooth="yes"/>
			<point x="491" y="142"/>
			<point x="422" y="76"/>
		</contour>
		<contour>
			<point x="403" y="435" type="curve"/>
			<point x="426" y="505" type="line"/>
			<point x="362" y="528"/>
			<point x="323" y="543"/>
			<point x="282" y="568" type="curve" smooth="yes"/>
			<point x="253" y="586"/>
			<point x="232" y="610"/>
			<point x="232" y="633" type="curve" smooth="yes"/>
			<point x="232" y="681"/>
			<point x="270" y="700"/>
			<point x="360" y="700" type="curve" smooth="yes"/>
			<point x="403" y="700"/>
			<point x="473" y="693"/>
			<point x="537" y="655" type="curve"/>
			<point x="537" y="738" type="line"/>
			<point x="468" y="783"/>
			<point x="379" y="784"/>
			<point x="361" y="784" type="curve" smooth="yes"/>
			<point x="218" y="784"/>
			<point x="137" y="736"/>
			<point x="137" y="636" type="curve" smooth="yes"/>
			<point x="137" y="576"/>
			<point x="170" y="518"/>
			<point x="270" y="488" type="curve" smooth="yes"/>
			<point x="314" y="475"/>
			<point x="338" y="464"/>
		</contour>
	</outline>
</glyph>
<glyph name="iota" format="2">
	<advance width="287"/>
	<unicode hex="03B9"/>
	<anchor x="124" y="504" name="top"/>
	<outline>
		<contour>
			<point x="218" y="0" type="curve" smooth="yes"/>
			<point x="263" y="0" type="line"/>
			<point x="259" y="95" type="line"/>
			<point x="222" y="93" type="line" smooth="yes"/>
			<point x="189" y="91"/>
			<point x="169" y="113"/>
			<point x="169" y="228" type="curve" smooth="yes"/>
			<point x="169" y="504" type="line"/>
			<point x="78" y="504" type="line"/>
			<point x="78" y="235" type="line" smooth="yes"/>
			<point x="78" y="44"/>
			<point x="111" y="0"/>
		</contour>
	</outline>
</glyph>
<glyph name="tau" format="2">
	<advance width="492"/>
	<unicode hex="03C4"/>
	<outline>
		<contour>
			<point x="341" y="0" type="curve" smooth="yes"/>
			<point x="386" y="0" type="line"/>
			<point x="382" y="95" type="line"/>
			<point x="345" y="93" type="line" smooth="yes"/>
			<point x="312" y="91"/>
			<point x="292" y="113"/>
			<point x="292" y="228" type="curve" smooth="yes"/>
			<point x="292" y="504" type="line"/>
			<point x="201" y="504" type="line"/>
			<point x="201" y="235" type="line" smooth="yes"/>
			<point x="201" y="44"/>
			<point x="234" y="0"/>
		</contour>
		<contour>
			<point x="41" y="424" type="line"/>
			<point x="451" y="424" type="line"/>
			<point x="451" y="504" type="line"/>
			<point x="41" y="504" type="line"/>
		</contour>
	</outline>
</glyph>
<glyph name="upsilon" format="2">
	<advance width="623"/>
	<unicode hex="03C5"/>
	<anchor x="312" y="504" name="top"/>
	<outline>
		<contour>
			<point x="304" y="-14" type="curve" smooth="yes"/>
			<point x="439" y="-14"/>
			<point x="556" y="74"/>
			<point x="556" y="227" type="curve" smooth="yes"/>
			<point x="556" y="349"/>
			<point x="534" y="442"/>
			<point x="499" y="504" type="curve"/>
			<point x="401" y="504" type="line"/>
			<point x="457" y="383"/>
			<point x="464" y="332"/>
			<point x="464" y="231" type="curve" smooth="yes"/>
			<point x="464" y="121"/>
			<point x="385" y="77"/>
			<point x="304" y="77" type="curve" smooth="yes"/>
			<point x="208" y="77"/>
			<point x="159" y="102"/>
			<point x="159" y="201" type="curve" smooth="yes"/>
			<point x="159" y="504" type="line"/>
			<point x="67" y="504" type="line"/>
			<point x="67" y="197" type="line" smooth="yes"/>
			<point x="67" y="56"/>
			<point x="149" y="-14"/>
		</contour>
	</outline>
</glyph>
<glyph name="chi" format="2">
	<advance width="648"/>
	<unicode hex="03C7"/>
	<outline>
		<contour>
			<point x="41" y="-278" type="curve"/>
			<point x="156" y="-278" type="line"/>
			<point x="300" y="-13"/>
			<point x="452" y="247"/>
			<point x="604" y="504" type="curve"/>
			<point x="489" y="504" type="line"/>
			<point x="345" y="239"/>
			<point x="196" y="-21"/>
		</contour>
		<contour>
			<point x="580" y="-278" type="curve" smooth="yes"/>
			<point x="601" y="-278" type="line"/>
			<point x="592" y="-187" type="line"/>
			<point x="576" y="-188" type="line" smooth="yes"/>
			<point x="560" y="-189"/>
			<point x="545" y="-190"/>
			<point x="532" y="-190" type="curve" smooth="yes"/>
			<point x="487" y="-190"/>
			<point x="479" y="-174"/>
			<point x="455" y="-116" type="curve" smooth="yes"/>
			<point x="423" y="-39"/>
			<point x="313" y="262"/>
			<point x="289" y="328" type="curve" smooth="yes"/>
			<point x="227" y="500"/>
			<point x="213" y="504"/>
			<point x="66" y="504" type="curve" smooth="yes"/>
			<point x="45" y="504" type="line"/>
			<point x="54" y="413" type="line"/>
			<point x="70" y="414" type="line" smooth="yes"/>
			<point x="86" y="415"/>
			<point x="101" y="416"/>
			<point x="114" y="416" type="curve" smooth="yes"/>
			<point x="160" y="416"/>
			<point x="169" y="402"/>
			<point x="192" y="335" type="curve" smooth="yes"/>
			<point x="214" y="271"/>
			<point x="324" y="-26"/>
			<point x="356" y="-104" type="curve" smooth="yes"/>
			<point x="426" y="-272"/>
			<point x="433" y="-278"/>
		</contour>
	</outline>
</glyph>
<glyph name="omega" format="2">
	<advance width="800"/>
	<unicode hex="03C9"/>
	<anchor x="400" y="504" name="top"/>
	<anchor x="400" y="0" name="bottom"/>
	<outline>
		<contour>
			<point x="269" y="-14" type="curve" smooth="yes"/>
			<point x="323" y="-14"/>
			<point x="379" y="20"/>
			<point x="400" y="60" type="curve"/>
			<point x="421" y="20"/>
			<point x="477" y="-14"/>
			<point x="531" y="-14" type="curve" smooth="yes"/>
			<point x="656" y="-14"/>
			<point x="733" y="74"/>
			<point x="733" y="227" type="curve" smooth="yes"/>
			<point x="733" y="349"/>
			<point x="701" y="442"/>
			<point x="666" y="504" type="curve"/>
			<point x="568" y="504" type="line"/>
			<point x="624" y="383"/>
			<point x="641" y="332"/>
			<point x="641" y="231" type="curve" smooth="yes"/>
			<point x="641" y="121"/>
			<point x="602" y="77"/>
			<point x="531" y="77" type="curve" smooth="yes"/>
			<point x="475" y="77"/>
			<point x="446" y="122"/>
			<point x="446" y="201" type="curve" smooth="yes"/>
			<point x="446" y="304" type="line"/>
			<point x="354" y="304" type="line"/>
			<point x="354" y="201" type="line" smooth="yes"/>
			<point x="354" y="122"/>
			<point x="325" y="77"/>
			<point x="269" y="77" type="curve" smooth="yes"/>
			<point x="198" y="77"/>
			<point x="159" y="121"/>
			<point x="159" y="231" type="curve" smooth="yes"/>
			<point x="159" y="332"/>
			<point x="176" y="383"/>
			<point x="232" y="504" type="curve"/>
			<point x="134" y="504" type="line"/>
			<point x="99" y="442"/>
			<point x="67" y="349"/>
			<point x="67" y="227" type="curve" smooth="yes"/>
			<point x="67" y="74"/>
			<point x="144" y="-14"/>
		</contour>
	</outline>
</glyph>
<glyph name="KaiSymbol" format="2">
	<advance width="692"/>
	<unicode hex="03CF"/>
	<outline>
		<contour>
			<point x="381" y="-269" type="line"/>
			<point x="649" y="0" type="line"/>
			<point x="255" y="418" type="line"/>
			<point x="184" y="361" type="line"/>
			<point x="525" y="2" type="line"/>
			<point x="317" y="-205" type="line"/>
		</contour>
		<contour>
			<point x="78" y="0" type="line"/>
			<point x="172" y="0" type="line"/>
			<point x="172" y="752" type="line"/>
			<point x="78" y="752" type="line"/>
		</contour>
		<contour>
			<point x="135" y="239" type="line"/>
			<point x="635" y="752" type="line"/>
			<point x="515" y="752" type="line"/>
			<point x="135" y="366" type="line"/>
		</contour>
	</outline>
</glyph>
<glyph name="kaiSymbol" format="2">
	<advance width="693"/>
	<unicode hex="03D7"/>
	<outline>
		<contour>
			<point x="69" y="0" type="line"/>
			<point x="177" y="0" type="line"/>
			<point x="485" y="391" type="line"/>
			<point x="485" y="524" type="line"/>
		</contour>
		<contour>
			<point x="86" y="0" type="line"/>
			<point x="177" y="0" type="line"/>
			<point x="177" y="450" type="line" smooth="yes"/>
			<point x="177" y="466"/>
			<point x="175" y="481"/>
			<point x="173" y="486" type="curve" smooth="yes"/>
			<point x="163" y="511"/>
			<point x="122" y="524"/>
			<point x="60" y="524" type="curve" smooth="yes"/>
			<point x="23" y="524" type="line"/>
			<point x="26" y="437" type="line"/>
			<point x="43" y="438" type="line" smooth="yes"/>
			<point x="80" y="440"/>
			<point x="86" y="434"/>
			<point x="86" y="393" type="curve" smooth="yes"/>
		</contour>
		<contour>
			<point x="454" y="-278" type="line"/>
			<point x="499" y="-278" type="line" smooth="yes"/>
			<point x="606" y="-278"/>
			<point x="639" y="-191"/>
			<point x="639" y="0" type="curve"/>
			<point x="548" y="5" type="line"/>
			<point x="548" y="-110"/>
			<point x="528" y="-187"/>
			<point x="495" y="-185" type="curve" smooth="yes"/>
			<point x="458" y="-183" type="line"/>
		</contour>
		<contour>
			<point x="602" y="0" type="curve" smooth="yes"/>
			<point x="639" y="0" type="line"/>
			<point x="636" y="87" type="line"/>
			<point x="619" y="86" type="line" smooth="yes"/>
			<point x="582" y="84"/>
			<point x="576" y="90"/>
			<point x="576" y="131" type="curve" smooth="yes"/>
			<point x="576" y="524" type="line"/>
			<point x="485" y="524" type="line"/>
			<point x="485" y="74" type="line" smooth="yes"/>
			<point x="485" y="58"/>
			<point x="487" y="43"/>
			<point x="489" y="38" type="curve" smooth="yes"/>
			<point x="499" y="13"/>
			<point x="540" y="0"/>
		</contour>
	</outline>
</glyph>
<glyph name="El-cy" format="2">
	<advance width="752"/>
	<unicode hex="041B"/>
	<outline>
		<contour>
			<point x="580" y="0" type="line"/>
			<point x="674" y="0" type="line"/>
			<point x="674" y="752" type="line"/>
			<point x="247" y="752" type="line"/>
			<point x="247" y="662" type="line"/>
			<point x="580" y="662" type="line"/>
		</contour>
		<contour>
			<point x="30" y="94" type="curve"/>
			<point x="26" y="0" type="line"/>
			<point x="216" y="0"/>
			<point x="246" y="30"/>
			<point x="282" y="246" type="curve" smooth="yes"/>
			<point x="307" y="393"/>
			<point x="320" y="587"/>
			<point x="320" y="752" type="curve"/>
			<point x="228" y="752" type="line"/>
			<point x="228" y="585"/>
			<point x="217" y="398"/>
			<point x="189" y="251" type="curve" smooth="yes"/>
			<point x="161" y="105"/>
			<point x="143" y="91"/>
		</contour>
	</outline>
</glyph>
<glyph name="Che-cy" format="2">
	<advance width="687"/>
	<unicode hex="0427"/>
	<anchor x="347" y="752" name="top"/>
	<anchor x="667" y="0" name="bottomright"/>
	<outline>
		<contour>
			<point x="609" y="750" type="line"/>
			<point x="515" y="750" type="line"/>
			<point x="515" y="460" type="line" smooth="yes"/>
			<point x="515" y="449"/>
			<point x="515" y="437"/>
			<point x="513" y="426" type="curve" smooth="yes"/>
			<point x="504" y="371"/>
			<point x="411" y="334"/>
			<point x="327" y="334" type="curve" smooth="yes"/>
			<point x="240" y="334"/>
			<point x="189" y="358"/>
			<point x="170" y="408" type="curve" smooth="yes"/>
			<point x="164" y="423"/>
			<point x="163" y="442"/>
			<point x="163" y="458" type="curve" smooth="yes"/>
			<point x="163" y="750" type="line"/>
			<point x="69" y="750" type="line"/>
			<point x="69" y="454" type="line" smooth="yes"/>
			<point x="69" y="313"/>
			<point x="140" y="246"/>
			<point x="308" y="246" type="curve" smooth="yes"/>
			<point x="430" y="246"/>
			<point x="496" y="287"/>
			<point x="515" y="319" type="curve"/>
			<point x="515" y="0" type="line"/>
			<point x="609" y="0" type="line"/>
		</contour>
	</outline>
</glyph>
<glyph name="Iu-cy" format="2">
	<advance width="990"/>
	<unicode hex="042E"/>
	<anchor x="495" y="752" name="top"/>
	<outline>
		<contour>
			<point x="601" y="-14" type="curve" smooth="yes"/>
			<point x="853" y="-14"/>
			<point x="940" y="164"/>
			<point x="940" y="379" type="curve" smooth="yes"/>
			<point x="940" y="594"/>
			<point x="853" y="772"/>
			<point x="601" y="772" type="curve" smooth="yes"/>
			<point x="349" y="772"/>
			<point x="262" y="594"/>
			<point x="262" y="379" type="curve" smooth="yes"/>
			<point x="262" y="164"/>
			<point x="349" y="-14"/>
		</contour>
		<contour>
			<point x="102" y="341" type="line"/>
			<point x="306" y="341" type="line"/>
			<point x="306" y="431" type="line"/>
			<point x="102" y="431" type="line"/>
		</contour>
		<contour>
			<point x="601" y="76" type="curve" smooth="yes"/>
			<point x="417" y="76"/>
			<point x="358" y="197"/>
			<point x="358" y="379" type="curve" smooth="yes"/>
			<point x="358" y="560"/>
			<point x="417" y="683"/>
			<point x="601" y="683" type="curve" smooth="yes"/>
			<point x="786" y="683"/>
			<point x="844" y="560"/>
			<point x="844" y="379" type="curve" smooth="yes"/>
			<point x="844" y="207"/>
			<point x="786" y="76"/>
		</contour>
		<component base="I"/>
	</outline>
</glyph>
<glyph name="tse-cy" format="2">
	<advance width="672"/>
	<unicode hex="0446"/>
	<outline>
		<contour>
			<point x="463" y="504" type="line"/>
			<point x="463" y="0" type="line"/>
			<point x="554" y="0" type="line"/>
			<point x="554" y="504" type="line"/>
		</contour>
		<contour>
			<point x="78" y="504" type="line"/>
			<point x="78" y="0" type="line"/>
			<point x="169" y="0" type="line"/>
			<point x="169" y="504" type="line"/>
		</contour>
		<contour>
			<point x="78" y="80" type="line"/>
			<point x="78" y="0" type="line"/>
			<point x="620" y="0" type="line"/>
			<point x="620" y="80" type="line"/>
		</contour>
		<contour>
			<point x="537" y="-130" type="line"/>
			<point x="620" y="-130" type="line"/>
			<point x="620" y="0" type="line"/>
			<point x="537" y="0" type="line"/>
		</contour>
	</outline>
</glyph>
<glyph name="sha-cy" format="2">
	<advance width="911"/>
	<unicode hex="0448"/>
	<outline>
		<contour>
			<point x="742" y="504" type="line"/>
			<point x="742" y="0" type="line"/>
			<point x="833" y="0" type="line"/>
			<point x="833" y="504" type="line"/>
		</contour>
		<contour>
			<point x="78" y="504" type="line"/>
			<point x="78" y="0" type="line"/>
			<point x="169" y="0" type="line"/>
			<point x="169" y="504" type="line"/>
		</contour>
		<contour>
			<point x="92" y="80" type="line"/>
			<point x="92" y="0" type="line"/>
			<point x="778" y="0" type="line"/>
			<point x="778" y="80" type="line"/>
		</contour>
		<contour>
			<point x="410" y="504" type="line"/>
			<point x="410" y="0" type="line"/>
			<point x="501" y="0" type="line"/>
			<point x="501" y="504" type="line"/>
		</contour>
	</outline>
</glyph>
<glyph name="ereversed-cy" format="2">
	<advance width="560"/>
	<unicode hex="044D"/>
	<anchor x="280" y="504" name="top"/>
	<outline>
		<contour>
			<point x="145" y="224" type="line"/>
			<point x="422" y="224" type="line"/>
			<point x="422" y="309" type="line"/>
			<point x="145" y="309" type="line"/>
		</contour>
		<component base="c" xScale="-1" xOffset="560"/>
	</outline>
</glyph>
<glyph name="nje-cy" format="2">
	<advance width="932"/>
	<unicode hex="045A"/>
	<outline>
		<contour>
			<point x="466" y="0" type="line"/>
			<point x="704" y="0" type="line" smooth="yes"/>
			<point x="820" y="0"/>
			<point x="878" y="61"/>
			<point x="878" y="149" type="curve" smooth="yes"/>
			<point x="878" y="222"/>
			<point x="837" y="300"/>
			<point x="690" y="300" type="curve" smooth="yes"/>
			<point x="557" y="300" type="line"/>
			<point x="557" y="504" type="line"/>
			<point x="466" y="504" type="line"/>
		</contour>
		<contour>
			<point x="557" y="77" type="line"/>
			<point x="557" y="220" type="line"/>
			<point x="692" y="220" type="line" smooth="yes"/>
			<point x="752" y="220"/>
			<point x="785" y="209"/>
			<point x="785" y="149" type="curve" smooth="yes"/>
			<point x="785" y="94"/>
			<point x="751" y="77"/>
			<point x="694" y="77" type="curve" smooth="yes"/>
		</contour>
		<component base="en-cy"/>
	</outline>
</glyph>
<glyph name="emdash" format="2">
	<advance width="1088"/>
	<unicode hex="2014"/>
	<outline>
		<contour>
			<point x="0" y="260" type="line"/>
			<point x="1088" y="260" type="line"/>
			<point x="1088" y="345" type="line"/>
			<point x="0" y="345" type="line"/>
		</contour>
	</outline>
</glyph>
<glyph name="quotedblleft" format="2">
	<advance width="570"/>
	<unicode hex="201C"/>
	<outline>
		<contour>
			<point x="516" y="782" type="curve"/>
			<point x="509" y="782" type="line" smooth="yes"/>
			<point x="486" y="782"/>
			<point x="336" y="716"/>
			<point x="336" y="532" type="curve" smooth="yes"/>
			<point x="336" y="491"/>
			<point x="369" y="459"/>
			<point x="408" y="459" type="curve" smooth="yes"/>
			<point x="448" y="459"/>
			<point x="483" y="491"/>
			<point x="483" y="532" type="curve" smooth="yes"/>
			<point x="483" y="634"/>
			<point x="407" y="611"/>
		</contour>
		<contour>
			<point x="305" y="782" type="curve"/>
			<point x="298" y="782" type="line" smooth="yes"/>
			<point x="273" y="782"/>
			<point x="116" y="716"/>
			<point x="116" y="532" type="curve" smooth="yes"/>
			<point x="116" y="491"/>
			<point x="149" y="459"/>
			<point x="190" y="459" type="curve" smooth="yes"/>
			<point x="229" y="459"/>
			<point x="263" y="491"/>
			<point x="263" y="532" type="curve" smooth="yes"/>
			<point x="263" y="593"/>
			<point x="202" y="618"/>
		</contour>
	</outline>
</glyph>
<glyph name="quotedblright" format="2">
	<advance width="560"/>
	<unicode hex="201D"/>
	<outline>
		<contour>
			<point x="54" y="459" type="curve"/>
			<point x="61" y="459" type="line" smooth="yes"/>
			<point x="84" y="459"/>
			<point x="224" y="525"/>
			<point x="224" y="709" type="curve" smooth="yes"/>
			<point x="224" y="750"/>
			<point x="191" y="782"/>
			<point x="152" y="782" type="curve" smooth="yes"/>
			<point x="112" y="782"/>
			<point x="77" y="750"/>
			<point x="77" y="709" type="curve" smooth="yes"/>
			<point x="77" y="607"/>
			<point x="163" y="630"/>
		</contour>
		<contour>
			<point x="255" y="459" type="curve"/>
			<point x="262" y="459" type="line" smooth="yes"/>
			<point x="287" y="459"/>
			<point x="444" y="525"/>
			<point x="444" y="709" type="curve" smooth="yes"/>
			<point x="444" y="750"/>
			<point x="411" y="782"/>
			<point x="370" y="782" type="curve" smooth="yes"/>
			<point x="331" y="782"/>
			<point x="297" y="750"/>
			<point x="297" y="709" type="curve" smooth="yes"/>
			<point x="297" y="648"/>
			<point x="358" y="623"/>
		</contour>
	</outline>
</glyph>
<glyph name="bullet" format="2">
	<advance width="397"/>
	<unicode hex="2022"/>
	<outline>
		<contour>
			<point x="198" y="46" type="curve" smooth="yes"/>
			<point x="268" y="46"/>
			<point x="325" y="102"/>
			<point x="325" y="173" type="curve" smooth="yes"/>
			<point x="325" y="243"/>
			<point x="268" y="299"/>
			<point x="198" y="299" type="curve" smooth="yes"/>
			<point x="128" y="299"/>
			<point x="72" y="243"/>
			<point x="72" y="173" type="curve" smooth="yes"/>
			<point x="72" y="102"/>
			<point x="128" y="46"/>
		</contour>
	</outline>
</glyph>
<glyph name="perthousand" format="2">
	<advance width="1316"/>
	<unicode hex="2030"/>
	<outline>
		<contour>
			<point x="683" y="752" type="line"/>
			<point x="119" y="0" type="line"/>
			<point x="217" y="0" type="line"/>
			<point x="781" y="752" type="line"/>
		</contour>
		<contour>
			<point x="211" y="392" type="curve" smooth="yes"/>
			<point x="338" y="392"/>
			<point x="385" y="461"/>
			<point x="385" y="577" type="curve" smooth="yes"/>
			<point x="385" y="693"/>
			<point x="338" y="762"/>
			<point x="211" y="762" type="curve" smooth="yes"/>
			<point x="83" y="762"/>
			<point x="36" y="693"/>
			<point x="36" y="577" type="curve" smooth="yes"/>
			<point x="36" y="461"/>
			<point x="83" y="392"/>
		</contour>
		<contour>
			<point x="211" y="459" type="curve" smooth="yes"/>
			<point x="135" y="459"/>
			<point x="106" y="492"/>
			<point x="106" y="577" type="curve" smooth="yes"/>
			<point x="106" y="663"/>
			<point x="135" y="696"/>
			<point x="211" y="696" type="curve" smooth="yes"/>
			<point x="286" y="696"/>
			<point x="315" y="663"/>
			<point x="315" y="577" type="curve" smooth="yes"/>
			<point x="315" y="492"/>
			<point x="286" y="459"/>
		</contour>
		<contour>
			<point x="688" y="-14" type="curve" smooth="yes"/>
			<point x="815" y="-14"/>
			<point x="862" y="55"/>
			<point x="862" y="171" type="curve" smooth="yes"/>
			<point x="862" y="287"/>
			<point x="815" y="356"/>
			<point x="688" y="356" type="curve" smooth="yes"/>
			<point x="560" y="356"/>
			<point x="513" y="287"/>
			<point x="513" y="171" type="curve" smooth="yes"/>
			<point x="513" y="55"/>
			<point x="560" y="-14"/>
		</contour>
		<contour>
			<point x="688" y="53" type="curve" smooth="yes"/>
			<point x="612" y="53"/>
			<point x="583" y="86"/>
			<point x="583" y="171" type="curve" smooth="yes"/>
			<point x="583" y="257"/>
			<point x="612" y="290"/>
			<point x="688" y="290" type="curve" smooth="yes"/>
			<point x="763" y="290"/>
			<point x="792" y="257"/>
			<point x="792" y="171" type="curve" smooth="yes"/>
			<point x="792" y="86"/>
			<point x="763" y="53"/>
		</contour>
		<contour>
			<point x="1112" y="-14" type="curve" smooth="yes"/>
			<point x="1239" y="-14"/>
			<point x="1286" y="55"/>
			<point x="1286" y="171" type="curve" smooth="yes"/>
			<point x="1286" y="287"/>
			<point x="1239" y="356"/>
			<point x="1112" y="356" type="curve" smooth="yes"/>
			<point x="984" y="356"/>
			<point x="937" y="287"/>
			<point x="937" y="171" type="curve" smooth="yes"/>
			<point x="937" y="55"/>
			<point x="984" y="-14"/>
		</contour>
		<contour>
			<point x="1112" y="53" type="curve" smooth="yes"/>
			<point x="1036" y="53"/>
			<point x="1007" y="86"/>
			<point x="1007" y="171" type="curve" smooth="yes"/>
			<point x="1007" y="257"/>
			<point x="1036" y="290"/>
			<point x="1112" y="290" type="curve" smooth="yes"/>
			<point x="1187" y="290"/>
			<point x="1216" y="257"/>
			<point x="1216" y="171" type="curve" smooth="yes"/>
			<point x="1216" y="86"/>
			<point x="1187" y="53"/>
		</contour>
	</outline>
</glyph>
<glyph name="fraction" format="2">
	<advance width="196"/>
	<unicode hex="2044"/>
	<outline>
		<contour>
			<point x="-181" y="0" type="line"/>
			<point x="-109" y="0" type="line"/>
			<point x="430" y="752" type="line"/>
			<point x="358" y="752" type="line"/>
		</contour>
	</outline>
</glyph>
<glyph name="seveninferior" format="2">
	<advance width="328"/>
	<unicode hex="2087"/>
	<outline>
		<contour>
			<point x="68" y="-136" type="line"/>
			<point x="153" y="-136" type="line"/>
			<point x="277" y="180" type="line" smooth="yes"/>
			<point x="298" y="233"/>
			<point x="316" y="280"/>
			<point x="316" y="316" type="curve"/>
			<point x="21" y="316" type="line"/>
			<point x="21" y="245" type="line"/>
			<point x="223" y="245" type="line"/>
		</contour>
	</outline>
</glyph>
<glyph name="nineinferior" format="2">
	<advance width="393"/>
	<unicode hex="2089"/>
	<outline>
		<contour>
			<point x="190" y="326" type="curve" smooth="yes"/>
			<point x="80" y="326"/>
			<point x="28" y="257"/>
			<point x="28" y="179" type="curve" smooth="yes"/>
			<point x="28" y="76"/>
			<point x="80" y="25"/>
			<point x="185" y="25" type="curve" smooth="yes"/>
			<point x="238" y="25"/>
			<point x="263" y="39"/>
			<point x="284" y="58" type="curve"/>
			<point x="283" y="-42"/>
			<point x="251" y="-66"/>
			<point x="191" y="-66" type="curve" smooth="yes"/>
			<point x="136" y="-66"/>
			<point x="107" y="-52"/>
			<point x="101" y="-18" type="curve"/>
			<point x="29" y="-18" type="line"/>
			<point x="38" y="-99"/>
			<point x="84" y="-139"/>
			<point x="189" y="-139" type="curve" smooth="yes"/>
			<point x="294" y="-139"/>
			<point x="361" y="-79"/>
			<point x="361" y="91" type="curve" smooth="yes"/>
			<point x="361" y="230"/>
			<point x="329" y="326"/>
		</contour>
		<contour>
			<point x="190" y="254" type="curve" smooth="yes"/>
			<point x="230" y="254"/>
			<point x="251" y="246"/>
			<point x="267" y="218" type="curve" smooth="yes"/>
			<point x="273" y="207"/>
			<point x="277" y="189"/>
			<point x="278" y="176" type="curve" smooth="yes"/>
			<point x="281" y="117"/>
			<point x="254" y="94"/>
			<point x="190" y="94" type="curve" smooth="yes"/>
			<point x="126" y="94"/>
			<point x="104" y="115"/>
			<point x="104" y="180" type="curve" smooth="yes"/>
			<point x="104" y="232"/>
			<point x="132" y="254"/>
		</contour>
	</outline>
</glyph>
<glyph name="parenleftinferior" format="2">
	<advance width="223"/>
	<unicode hex="208D"/>
	<outline>
		<contour>
			<point x="116" y="464" type="curve"/>
			<point x="190.656" y="463.978" type="line"/>
			<point x="152.052" y="511.738"/>
			<point x="135.821" y="568.122"/>
			<point x="135.821" y="624.838" type="curve" smooth="yes"/>
			<point x="135.821" y="681.553"/>
			<point x="152.052" y="737.937"/>
			<point x="190.656" y="785.698" type="curve"/>
			<point x="116" y="786" type="line"/>
			<point x="78" y="728"/>
			<point x="64" y="690"/>
			<point x="64" y="625" type="curve" smooth="yes"/>
			<point x="64" y="560"/>
			<point x="78" y="522"/>
		</contour>
	</outline>
</glyph>
<glyph name="won" format="2">
	<advance width="1103"/>
	<unicode hex="20A9"/>
	<outline>
		<contour>
			<point x="252" y="0" type="line"/>
			<point x="374" y="0" type="line"/>
			<point x="552" y="624" type="line"/>
			<point x="730" y="0" type="line"/>
			<point x="851" y="0" type="line"/>
			<point x="1041" y="752" type="line"/>
			<point x="938" y="752" type="line"/>
			<point x="787" y="111" type="line"/>
			<point x="617" y="752" type="line"/>
			<point x="487" y="752" type="line"/>
			<point x="316" y="111" type="line"/>
			<point x="167" y="752" type="line"/>
			<point x="62" y="752" type="line"/>
		</contour>
		<contour>
			<point x="41" y="269" type="line"/>
			<point x="1063" y="269" type="line"/>
			<point x="1063" y="353" type="line"/>
			<point x="41" y="353" type="line"/>
		</contour>
		<contour>
			<point x="31" y="414" type="line"/>
			<point x="1073" y="414" type="line"/>
			<point x="1073" y="497" type="line"/>
			<point x="31" y="497" type="line"/>
		</contour>
	</outline>
</glyph>
<glyph name="euro" format="2">
	<advance width="786"/>
	<unicode hex="20AC"/>
	<outline>
		<contour>
			<point x="484" y="-10" type="curve" smooth="yes"/>
			<point x="596" y="-10"/>
			<point x="687" y="29"/>
			<point x="742" y="86" type="curve"/>
			<point x="675" y="153" type="line"/>
			<point x="634" y="108"/>
			<point x="562" y="78"/>
			<point x="484" y="78" type="curve" smooth="yes"/>
			<point x="301" y="78"/>
			<point x="232" y="199"/>
			<point x="232" y="379" type="curve" smooth="yes"/>
			<point x="232" y="558"/>
			<point x="301" y="680"/>
			<point x="484" y="680" type="curve" smooth="yes"/>
			<point x="572" y="680"/>
			<point x="624" y="653"/>
			<point x="665" y="608" type="curve"/>
			<point x="735" y="677" type="line"/>
			<point x="680" y="733"/>
			<point x="596" y="768"/>
			<point x="484" y="768" type="curve" smooth="yes"/>
			<point x="234" y="768"/>
			<point x="138" y="592"/>
			<point x="138" y="379" type="curve" smooth="yes"/>
			<point x="138" y="166"/>
			<point x="234" y="-10"/>
		</contour>
		<contour>
			<point x="54" y="255" type="line"/>
			<point x="570" y="255" type="line"/>
			<point x="570" y="345" type="line"/>
			<point x="54" y="345" type="line"/>
		</contour>
		<contour>
			<point x="54" y="416" type="line"/>
			<point x="570" y="416" type="line"/>
			<point x="570" y="506" type="line"/>
			<point x="54" y="506" type="line"/>
		</contour>
	</outline>
</glyph>
<glyph name="numero" format="2">
	<advance width="1395"/>
	<unicode hex="2116"/>
	<outline>
		<contour>
			<point x="1072" y="234" type="curve" smooth="yes"/>
			<point x="1274" y="234"/>
			<point x="1345" y="383"/>
			<point x="1345" y="503" type="curve" smooth="yes"/>
			<point x="1345" y="623"/>
			<point x="1274" y="772"/>
			<point x="1072" y="772" type="curve" smooth="yes"/>
			<point x="871" y="772"/>
			<point x="800" y="623"/>
			<point x="800" y="503" type="curve" smooth="yes"/>
			<point x="800" y="383"/>
			<point x="871" y="234"/>
		</contour>
		<contour>
			<point x="788" y="154" type="line"/>
			<point x="788" y="116"/>
			<point x="847" y="84"/>
			<point x="901" y="84" type="curve"/>
			<point x="1284" y="84" type="line"/>
			<point x="1293" y="154" type="line"/>
			<point x="1079" y="154" type="line" smooth="yes"/>
			<point x="960" y="154"/>
			<point x="889" y="181"/>
			<point x="830" y="238" type="curve" smooth="yes"/>
			<point x="807" y="261"/>
			<point x="788" y="259"/>
			<point x="788" y="232" type="curve"/>
		</contour>
		<contour>
			<point x="1079" y="324" type="curve" smooth="yes"/>
			<point x="970" y="324"/>
			<point x="902" y="390"/>
			<point x="902" y="503" type="curve" smooth="yes"/>
			<point x="902" y="616"/>
			<point x="968" y="682"/>
			<point x="1079" y="682" type="curve" smooth="yes"/>
			<point x="1190" y="682"/>
			<point x="1257" y="616"/>
			<point x="1257" y="503" type="curve" smooth="yes"/>
			<point x="1257" y="390"/>
			<point x="1188" y="324"/>
		</contour>
		<component base="N"/>
	</outline>
</glyph>
<glyph name="northEastArrow" format="2">
	<advance width="591"/>
	<unicode hex="2197"/>
	<outline>
		<contour>
			<point x="60" y="79" type="line"/>
			<point x="467" y="486" type="line"/>
			<point x="405" y="260" type="line"/>
			<point x="484" y="181" type="line"/>
			<point x="555" y="573" type="line" smooth="yes"/>
			<point x="560" y="599"/>
			<point x="565" y="626"/>
			<point x="569" y="654" type="curve"/>
			<point x="541" y="649"/>
			<point x="518" y="645"/>
			<point x="488" y="640" type="curve" smooth="yes"/>
			<point x="96" y="569" type="line"/>
			<point x="175" y="490" type="line"/>
			<point x="401" y="552" type="line"/>
			<point x="-6" y="145" type="line"/>
		</contour>
	</outline>
</glyph>
<glyph name="southWestArrow" format="2">
	<advance width="563"/>
	<unicode hex="2199"/>
	<outline>
		<contour>
			<point x="-16" y="96" type="curve"/>
			<point x="11" y="101"/>
			<point x="34" y="105"/>
			<point x="64" y="110" type="curve" smooth="yes"/>
			<point x="456" y="181" type="line"/>
			<point x="378" y="259" type="line"/>
			<point x="152" y="198" type="line"/>
			<point x="559" y="604" type="line"/>
			<point x="492" y="671" type="line"/>
			<point x="85" y="264" type="line"/>
			<point x="147" y="490" type="line"/>
			<point x="69" y="568" type="line"/>
			<point x="-2" y="177" type="line" smooth="yes"/>
			<point x="-7" y="147"/>
			<point x="-11" y="124"/>
		</contour>
	</outline>
</glyph>
<glyph name="infinity" format="2">
	<advance width="1076"/>
	<unicode hex="221E"/>
	<outline>
		<contour>
			<point x="140" y="330" type="curve" smooth="yes"/>
			<point x="140" y="427"/>
			<point x="200" y="478"/>
			<point x="270" y="478" type="curve" smooth="yes"/>
			<point x="331" y="478"/>
			<point x="372" y="458"/>
			<point x="417" y="412" type="curve" smooth="yes"/>
			<point x="498" y="330" type="line"/>
			<point x="417" y="248" type="line" smooth="yes"/>
			<point x="372" y="202"/>
			<point x="331" y="182"/>
			<point x="270" y="182" type="curve" smooth="yes"/>
			<point x="200" y="182"/>
			<point x="140" y="233"/>
		</contour>
		<contour>
			<point x="474" y="202" type="curve" smooth="yes"/>
			<point x="538" y="285" type="line"/>
			<point x="602" y="202" type="line" smooth="yes"/>
			<point x="651" y="139"/>
			<point x="718" y="105"/>
			<point x="805" y="105" type="curve" smooth="yes"/>
			<point x="934" y="105"/>
			<point x="1026" y="192"/>
			<point x="1026" y="330" type="curve" smooth="yes"/>
			<point x="1026" y="468"/>
			<point x="934" y="555"/>
			<point x="805" y="555" type="curve" smooth="yes"/>
			<point x="718" y="555"/>
			<point x="651" y="521"/>
			<point x="602" y="458" type="curve" smooth="yes"/>
			<point x="538" y="375" type="line"/>
			<point x="474" y="458" type="line" smooth="yes"/>
			<point x="425" y="521"/>
			<point x="358" y="555"/>
			<point x="271" y="555" type="curve" smooth="yes"/>
			<point x="142" y="555"/>
			<point x="50" y="468"/>
			<point x="50" y="330" type="curve" smooth="yes"/>
			<point x="50" y="192"/>
			<point x="142" y="105"/>
			<point x="271" y="105" type="curve" smooth="yes"/>
			<point x="358" y="105"/>
			<point x="425" y="139"/>
		</contour>
		<contour>
			<point x="936" y="330" type="curve" smooth="yes"/>
			<point x="936" y="233"/>
			<point x="876" y="182"/>
			<point x="806" y="182" type="curve" smooth="yes"/>
			<point x="745" y="182"/>
			<point x="704" y="202"/>
			<point x="659" y="248" type="curve" smooth="yes"/>
			<point x="578" y="330" type="line"/>
			<point x="659" y="412" type="line" smooth="yes"/>
			<point x="704" y="458"/>
			<point x="745" y="478"/>
			<point x="806" y="478" type="curve" smooth="yes"/>
			<point x="876" y="478"/>
			<point x="936" y="427"/>
		</contour>
	</outline>
</glyph>
<glyph name="heartBlackSuit" format="2">
	<advance width="1052"/>
	<unicode hex="2665"/>
	<outline>
		<contour>
			<point x="526" y="-115" type="curve"/>
			<point x="512" y="-115"/>
			<point x="496" y="-106"/>
			<point x="464" y="-77" type="curve" smooth="yes"/>
			<point x="346" y="30"/>
			<point x="44" y="192"/>
			<point x="44" y="495" type="curve" smooth="yes"/>
			<point x="44" y="631"/>
			<point x="121" y="772"/>
			<point x="315" y="772" type="curve" smooth="yes"/>
			<point x="451" y="772"/>
			<point x="526" y="679"/>
			<point x="526" y="593" type="curve"/>
			<point x="526" y="679"/>
			<point x="601" y="772"/>
			<point x="737" y="772" type="curve" smooth="yes"/>
			<point x="931" y="772"/>
			<point x="1008" y="631"/>
			<point x="1008" y="495" type="curve" smooth="yes"/>
			<point x="1008" y="191"/>
			<point x="703" y="32"/>
			<point x="587" y="-77" type="curve" smooth="yes"/>
			<point x="556" y="-106"/>
			<point x="540" y="-115"/>
		</contour>
	</outline>
</glyph>
<glyph name="note-musical" format="2">
	<advance width="501"/>
	<unicode hex="266A"/>
	<outline>
		<contour>
			<point x="451" y="398" type="line"/>
			<point x="427" y="417"/>
			<point x="427" y="473"/>
			<point x="419" y="539" type="curve" smooth="yes"/>
			<point x="406" y="650"/>
			<point x="269" y="696"/>
			<point x="269" y="736" type="curve"/>
			<point x="262" y="683" type="line"/>
			<point x="263" y="658"/>
			<point x="359" y="613"/>
			<point x="370" y="489" type="curve" smooth="yes"/>
			<point x="375" y="430"/>
			<point x="388" y="355"/>
			<point x="414" y="332" type="curve"/>
		</contour>
		<contour>
			<point x="204" y="-46" type="curve" smooth="yes"/>
			<point x="258" y="-20"/>
			<point x="285" y="42"/>
			<point x="259" y="96" type="curve" smooth="yes"/>
			<point x="235" y="147"/>
			<point x="171" y="169"/>
			<point x="116" y="143" type="curve" smooth="yes"/>
			<point x="60" y="117"/>
			<point x="35" y="54"/>
			<point x="59" y="2" type="curve" smooth="yes"/>
			<point x="83" y="-50"/>
			<point x="148" y="-73"/>
		</contour>
		<contour>
			<point x="215" y="53" type="curve"/>
			<point x="269" y="53" type="line"/>
			<point x="261" y="281"/>
			<point x="261" y="508"/>
			<point x="269" y="736" type="curve"/>
			<point x="215" y="736" type="line"/>
			<point x="223" y="508"/>
			<point x="223" y="281"/>
		</contour>
	</outline>
</glyph>
<glyph name="flat-musical" format="2">
	<advance width="366"/>
	<unicode hex="266D"/>
	<outline>
		<contour>
			<point x="113" y="290" type="line"/>
			<point x="113" y="784" type="line"/>
			<point x="50" y="777" type="line"/>
			<point x="50" y="297" type="line"/>
		</contour>
		<contour>
			<point x="62" y="508" type="curve"/>
			<point x="113" y="290" type="line"/>
			<point x="191" y="295"/>
			<point x="316" y="355"/>
			<point x="316" y="449" type="curve" smooth="yes"/>
			<point x="316" y="533"/>
			<point x="255" y="567"/>
			<point x="196" y="567" type="curve" smooth="yes"/>
			<point x="155" y="567"/>
			<point x="107" y="550"/>
		</contour>
		<contour>
			<point x="100" y="480" type="line"/>
			<point x="132" y="499"/>
			<point x="159" y="508"/>
			<point x="195" y="508" type="curve" smooth="yes"/>
			<point x="231" y="508"/>
			<point x="268" y="490"/>
			<point x="268" y="451" type="curve" smooth="yes"/>
			<point x="268" y="382"/>
			<point x="175" y="335"/>
			<point x="109" y="335" type="curve"/>
		</contour>
	</outline>
</glyph>
<glyph name="uni56FD" format="2">
	<advance width="1000"/>
	<unicode hex="56FD"/>
	<outline>
		<contour>
			<point x="86" y="-63" type="line"/>
			<point x="182" y="-63" type="line"/>
			<point x="182" y="-25" type="line"/>
			<point x="804" y="-25" type="line"/>
			<point x="804" y="-63" type="line"/>
			<point x="900" y="-63" type="line"/>
			<point x="900" y="796" type="line"/>
			<point x="86" y="796" type="line"/>
		</contour>
		<contour>
			<point x="172" y="61" type="line"/>
			<point x="172" y="710" type="line"/>
			<point x="814" y="710" type="line"/>
			<point x="814" y="61" type="line"/>
		</contour>
		<contour>
			<point x="221" y="120" type="line"/>
			<point x="762" y="120" type="line"/>
			<point x="762" y="205" type="line"/>
			<point x="524" y="205" type="line"/>
			<point x="524" y="366" type="line"/>
			<point x="730" y="366" type="line"/>
			<point x="730" y="450" type="line"/>
			<point x="524" y="450" type="line"/>
			<point x="524" y="566" type="line"/>
			<point x="745" y="566" type="line"/>
			<point x="745" y="648" type="line"/>
			<point x="238" y="648" type="line"/>
			<point x="238" y="566" type="line"/>
			<point x="451" y="566" type="line"/>
			<point x="451" y="450" type="line"/>
			<point x="256" y="450" type="line"/>
			<point x="256" y="366" type="line"/>
			<point x="451" y="366" type="line"/>
			<point x="451" y="205" type="line"/>
			<point x="221" y="205" type="line"/>
		</contour>
		<contour>
			<point x="676" y="222" type="curve"/>
			<point x="726" y="267" type="line"/>
			<point x="696" y="299"/>
			<point x="659" y="323"/>
			<point x="605" y="349" type="curve"/>
			<point x="565" y="308" type="line"/>
			<point x="611" y="283"/>
			<point x="650" y="253"/>
		</contour>
	</outline>
</glyph>
<glyph name="uni706B" format="2">
	<advance width="1000"/>
	<unicode hex="706B"/>
	<outline>
		<contour>
			<point x="100" y="-90" type="line"/>
			<point x="317" y="39"/>
			<point x="440" y="168"/>
			<point x="495" y="327" type="curve"/>
			<point x="553" y="154"/>
			<point x="682" y="29"/>
			<point x="887" y="-87" type="curve"/>
			<point x="950" y="-12" type="line"/>
			<point x="702" y="134"/>
			<point x="540" y="292"/>
			<point x="540" y="511" type="curve" smooth="yes"/>
			<point x="540" y="823" type="line"/>
			<point x="447" y="820" type="line"/>
			<point x="447" y="581" type="line" smooth="yes"/>
			<point x="447" y="306"/>
			<point x="337" y="152"/>
			<point x="47" y="-18" type="curve"/>
		</contour>
		<contour>
			<point x="229" y="302" type="line"/>
			<point x="297" y="382"/>
			<point x="354" y="486"/>
			<point x="380" y="611" type="curve"/>
			<point x="311" y="650" type="line"/>
			<point x="287" y="547"/>
			<point x="210" y="424"/>
			<point x="150" y="350" type="curve"/>
		</contour>
		<contour>
			<point x="697" y="321" type="line"/>
			<point x="758" y="394"/>
			<point x="832" y="516"/>
			<point x="880" y="610" type="curve"/>
			<point x="807" y="661" type="line"/>
			<point x="767" y="579"/>
			<point x="683" y="457"/>
			<point x="617" y="376" type="curve"/>
		</contour>
	</outline>
</glyph>
<glyph name="uni82B1" format="2">
	<advance width="1000"/>
	<unicode hex="82B1"/>
	<outline>
		<contour>
			<point x="628" y="-74" type="curve" smooth="yes"/>
			<point x="676" y="-76"/>
			<point x="724" y="-76"/>
			<point x="772" y="-74" type="curve" smooth="yes"/>
			<point x="866" y="-70"/>
			<point x="896" y="-47"/>
			<point x="905" y="-5" type="curve" smooth="yes"/>
			<point x="915" y="44"/>
			<point x="919" y="80"/>
			<point x="921" y="124" type="curve"/>
			<point x="842" y="168" type="line"/>
			<point x="842" y="127"/>
			<point x="840" y="82"/>
			<point x="831" y="48" type="curve" smooth="yes"/>
			<point x="824" y="22"/>
			<point x="813" y="14"/>
			<point x="754" y="7" type="curve" smooth="yes"/>
			<point x="721" y="3"/>
			<point x="688" y="3"/>
			<point x="655" y="7" type="curve" smooth="yes"/>
			<point x="602" y="13"/>
			<point x="601" y="28"/>
			<point x="601" y="78" type="curve" smooth="yes"/>
			<point x="601" y="202" type="line"/>
			<point x="716" y="289"/>
			<point x="779" y="356"/>
			<point x="863" y="449" type="curve"/>
			<point x="822" y="526" type="line"/>
			<point x="748" y="441"/>
			<point x="696" y="383"/>
			<point x="601" y="305" type="curve"/>
			<point x="601" y="527" type="line"/>
			<point x="517" y="536" type="line"/>
			<point x="517" y="252" type="line"/>
			<point x="452" y="204"/>
			<point x="390" y="169"/>
			<point x="319" y="130" type="curve"/>
			<point x="380" y="65" type="line"/>
			<point x="438" y="99"/>
			<point x="468" y="117"/>
			<point x="517" y="153" type="curve"/>
			<point x="517" y="50" type="line" smooth="yes"/>
			<point x="517" y="-41"/>
			<point x="547" y="-71"/>
		</contour>
		<contour>
			<point x="209" y="-88" type="line"/>
			<point x="294" y="-88" type="line"/>
			<point x="294" y="383" type="line"/>
			<point x="312" y="415"/>
			<point x="346" y="477"/>
			<point x="362" y="522" type="curve"/>
			<point x="277" y="537" type="line"/>
			<point x="202" y="399"/>
			<point x="136" y="317"/>
			<point x="30" y="222" type="curve"/>
			<point x="78" y="144" type="line"/>
			<point x="135" y="194"/>
			<point x="170" y="237"/>
			<point x="209" y="290" type="curve"/>
		</contour>
		<contour>
			<point x="623" y="551" type="line"/>
			<point x="701" y="551" type="line"/>
			<point x="701" y="644" type="line"/>
			<point x="919" y="644" type="line"/>
			<point x="919" y="723" type="line"/>
			<point x="701" y="723" type="line"/>
			<point x="701" y="823" type="line"/>
			<point x="623" y="823" type="line"/>
			<point x="623" y="723" type="line"/>
			<point x="360" y="723" type="line"/>
			<point x="360" y="823" type="line"/>
			<point x="283" y="823" type="line"/>
			<point x="283" y="723" type="line"/>
			<point x="72" y="723" type="line"/>
			<point x="72" y="644" type="line"/>
			<point x="283" y="644" type="line"/>
			<point x="283" y="558" type="line"/>
			<point x="360" y="558" type="line"/>
			<point x="360" y="644" type="line"/>
			<point x="623" y="644" type="line"/>
		</contour>
	</outline>
</glyph>
<glyph name="rotate" format="2">
	<advance width="1680"/>
	<unicode hex="E60A"/>
	<outline>
		<contour>
			<point x="124" y="592" type="line"/>
			<point x="124" y="770" type="line" smooth="yes"/>
			<point x="124" y="811"/>
			<point x="141" y="828"/>
			<point x="183" y="828" type="curve" smooth="yes"/>
			<point x="609" y="828" type="line"/>
			<point x="609" y="852" type="line"/>
			<point x="166" y="852" type="line" smooth="yes"/>
			<point x="123" y="852"/>
			<point x="100" y="830"/>
			<point x="100" y="786" type="curve" smooth="yes"/>
			<point x="100" y="592" type="line"/>
		</contour>
		<contour>
			<point x="240" y="30" type="curve" smooth="yes"/>
			<point x="1440" y="30" type="line" smooth="yes"/>
			<point x="1477" y="30"/>
			<point x="1497" y="51"/>
			<point x="1497" y="87" type="curve" smooth="yes"/>
			<point x="1497" y="713" type="line" smooth="yes"/>
			<point x="1497" y="749"/>
			<point x="1477" y="770"/>
			<point x="1440" y="770" type="curve" smooth="yes"/>
			<point x="240" y="770" type="line" smooth="yes"/>
			<point x="203" y="770"/>
			<point x="183" y="749"/>
			<point x="183" y="713" type="curve" smooth="yes"/>
			<point x="183" y="87" type="line" smooth="yes"/>
			<point x="183" y="51"/>
			<point x="203" y="30"/>
		</contour>
		<contour>
			<point x="240" y="54" type="line" smooth="yes"/>
			<point x="218" y="54"/>
			<point x="206" y="66"/>
			<point x="206" y="87" type="curve" smooth="yes"/>
			<point x="206" y="711" type="line" smooth="yes"/>
			<point x="206" y="733"/>
			<point x="218" y="744"/>
			<point x="240" y="744" type="curve" smooth="yes"/>
			<point x="1440" y="744" type="line" smooth="yes"/>
			<point x="1462" y="744"/>
			<point x="1474" y="733"/>
			<point x="1474" y="711" type="curve" smooth="yes"/>
			<point x="1474" y="87" type="line" smooth="yes"/>
			<point x="1474" y="66"/>
			<point x="1462" y="54"/>
			<point x="1440" y="54" type="curve" smooth="yes"/>
		</contour>
		<contour>
			<point x="1556" y="211" type="line"/>
			<point x="1556" y="30" type="line" smooth="yes"/>
			<point x="1556" y="-11"/>
			<point x="1539" y="-28"/>
			<point x="1497" y="-28" type="curve" smooth="yes"/>
			<point x="1072" y="-28" type="line"/>
			<point x="1072" y="-52" type="line"/>
			<point x="1516" y="-52" type="line" smooth="yes"/>
			<point x="1559" y="-52"/>
			<point x="1580" y="-30"/>
			<point x="1580" y="14" type="curve" smooth="yes"/>
			<point x="1580" y="211" type="line"/>
		</contour>
		<contour>
			<point x="646" y="219" type="curve" smooth="yes"/>
			<point x="758" y="219"/>
			<point x="778" y="306"/>
			<point x="778" y="410" type="curve" smooth="yes"/>
			<point x="778" y="534"/>
			<point x="758" y="601"/>
			<point x="643" y="601" type="curve" smooth="yes"/>
			<point x="544" y="601"/>
			<point x="509" y="544"/>
			<point x="509" y="480" type="curve" smooth="yes"/>
			<point x="509" y="412"/>
			<point x="552" y="353"/>
			<point x="643" y="353" type="curve" smooth="yes"/>
			<point x="688" y="353"/>
			<point x="705" y="373"/>
			<point x="726" y="398" type="curve"/>
			<point x="726" y="318"/>
			<point x="708" y="268"/>
			<point x="646" y="268" type="curve" smooth="yes"/>
			<point x="594" y="268"/>
			<point x="579" y="281"/>
			<point x="572" y="318" type="curve"/>
			<point x="519" y="318" type="line"/>
			<point x="529" y="255"/>
			<point x="561" y="219"/>
		</contour>
		<contour>
			<point x="643" y="403" type="curve" smooth="yes"/>
			<point x="594" y="403"/>
			<point x="564" y="430"/>
			<point x="564" y="480" type="curve" smooth="yes"/>
			<point x="564" y="530"/>
			<point x="598" y="551"/>
			<point x="643" y="551" type="curve" smooth="yes"/>
			<point x="684" y="551"/>
			<point x="720" y="530"/>
			<point x="720" y="480" type="curve" smooth="yes"/>
			<point x="720" y="428"/>
			<point x="689" y="403"/>
		</contour>
		<contour>
			<point x="1019" y="221" type="curve" smooth="yes"/>
			<point x="1133" y="221"/>
			<point x="1176" y="306"/>
			<point x="1176" y="412" type="curve" smooth="yes"/>
			<point x="1176" y="514"/>
			<point x="1133" y="601"/>
			<point x="1019" y="601" type="curve" smooth="yes"/>
			<point x="904" y="601"/>
			<point x="865" y="514"/>
			<point x="865" y="412" type="curve" smooth="yes"/>
			<point x="865" y="306"/>
			<point x="904" y="221"/>
		</contour>
		<contour>
			<point x="1019" y="280" type="curve" smooth="yes"/>
			<point x="939" y="280"/>
			<point x="927" y="326"/>
			<point x="927" y="412" type="curve" smooth="yes"/>
			<point x="927" y="495"/>
			<point x="939" y="542"/>
			<point x="1019" y="542" type="curve" smooth="yes"/>
			<point x="1099" y="542"/>
			<point x="1113" y="495"/>
			<point x="1113" y="412" type="curve" smooth="yes"/>
			<point x="1113" y="326"/>
			<point x="1099" y="280"/>
		</contour>
		<contour>
			<point x="666" y="828" type="line"/>
			<point x="501" y="900" type="line"/>
			<point x="501" y="828" type="line"/>
		</contour>
		<contour>
			<point x="1016" y="-28" type="line"/>
			<point x="1181" y="-100" type="line"/>
			<point x="1181" y="-28" type="line"/>
		</contour>
	</outline>
</glyph>
<glyph name="fi" format="2">
	<advance width="576"/>
	<unicode hex="FB01"/>
	<outline>
		<contour>
			<point x="129" y="0" type="line"/>
			<point x="220" y="0" type="line"/>
			<point x="220" y="611" type="line" smooth="yes"/>
			<point x="220" y="699"/>
			<point x="294" y="713"/>
			<point x="339" y="690" type="curve" smooth="yes"/>
			<point x="427" y="645" type="line"/>
			<point x="479" y="762" type="line"/>
			<point x="442" y="776"/>
			<point x="393" y="779"/>
			<point x="335" y="780" type="curve" smooth="yes"/>
			<point x="199" y="782"/>
			<point x="129" y="779"/>
			<point x="129" y="604" type="curve" smooth="yes"/>
		</contour>
		<contour>
			<point x="219" y="0" type="move"/>
			<point x="129" y="0" type="line"/>
		</contour>
		<contour>
			<point x="30" y="422" type="line"/>
			<point x="480" y="422" type="line"/>
			<point x="484" y="504" type="line"/>
			<point x="30" y="504" type="line"/>
		</contour>
		<contour>
			<point x="419" y="0" type="line"/>
			<point x="510" y="0" type="line"/>
			<point x="510" y="504" type="line"/>
			<point x="419" y="504" type="line"/>
		</contour>
		<contour>
			<point x="454" y="639" type="curve" smooth="yes"/>
			<point x="489" y="639"/>
			<point x="518" y="667"/>
			<point x="518" y="703" type="curve" smooth="yes"/>
			<point x="518" y="739"/>
			<point x="489" y="767"/>
			<point x="454" y="767" type="curve" smooth="yes"/>
			<point x="419" y="767"/>
			<point x="390" y="739"/>
			<point x="390" y="703" type="curve" smooth="yes"/>
			<point x="390" y="667"/>
			<point x="419" y="639"/>
		</contour>
	</outline>
</glyph>
<glyph name="De-cy.loclBGR" format="2">
	<advance width="786"/>
	<outline>
		<contour>
			<point x="618" y="0" type="line"/>
			<point x="716" y="0" type="line"/>
			<point x="443" y="752" type="line"/>
			<point x="342" y="752" type="line"/>
			<point x="70" y="0" type="line"/>
			<point x="168" y="0" type="line"/>
			<point x="393" y="622" type="line"/>
		</contour>
		<contour>
			<point x="35" y="0" type="line"/>
			<point x="751" y="0" type="line"/>
			<point x="751" y="90" type="line"/>
			<point x="35" y="90" type="line"/>
		</contour>
		<contour>
			<point x="666" y="-130" type="line"/>
			<point x="751" y="-130" type="line"/>
			<point x="751" y="0" type="line"/>
			<point x="666" y="0" type="line"/>
		</contour>
		<contour>
			<point x="35" y="-130" type="line"/>
			<point x="120" y="-130" type="line"/>
			<point x="120" y="0" type="line"/>
			<point x="35" y="0" type="line"/>
		</contour>
	</outline>
</glyph>
<glyph name="Ef-cy.loclBGR" format="2">
	<advance width="828"/>
	<outline>
		<contour>
			<point x="414" y="63" type="curve" smooth="yes"/>
			<point x="613" y="63"/>
			<point x="783" y="150"/>
			<point x="783" y="383" type="curve" smooth="yes"/>
			<point x="783" y="616"/>
			<point x="613" y="703"/>
			<point x="414" y="703" type="curve" smooth="yes"/>
			<point x="215" y="703"/>
			<point x="45" y="616"/>
			<point x="45" y="383" type="curve" smooth="yes"/>
			<point x="45" y="150"/>
			<point x="215" y="63"/>
		</contour>
		<contour>
			<point x="414" y="149" type="curve" smooth="yes"/>
			<point x="255" y="149"/>
			<point x="134" y="212"/>
			<point x="134" y="383" type="curve" smooth="yes"/>
			<point x="134" y="553"/>
			<point x="246" y="617"/>
			<point x="414" y="617" type="curve" smooth="yes"/>
			<point x="581" y="617"/>
			<point x="695" y="553"/>
			<point x="695" y="383" type="curve" smooth="yes"/>
			<point x="695" y="212"/>
			<point x="581" y="149"/>
		</contour>
		<contour>
			<point x="367" y="-14" type="line"/>
			<point x="461" y="-14" type="line"/>
			<point x="461" y="772" type="line"/>
			<point x="367" y="772" type="line"/>
		</contour>
	</outline>
</glyph>
<glyph name="Q.ss03" format="2">
	<advance width="807"/>
	<anchor x="404" y="752" name="top"/>
	<anchor x="404" y="0" name="bottom"/>
	<outline>
		<contour>
			<point x="401" y="-14" type="curve" smooth="yes"/>
			<point x="653" y="-14"/>
			<point x="750" y="164"/>
			<point x="750" y="379" type="curve" smooth="yes"/>
			<point x="750" y="594"/>
			<point x="653" y="772"/>
			<point x="401" y="772" type="curve" smooth="yes"/>
			<point x="149" y="772"/>
			<point x="52" y="594"/>
			<point x="52" y="379" type="curve" smooth="yes"/>
			<point x="52" y="164"/>
			<point x="149" y="-14"/>
		</contour>
		<contour>
			<point x="589" y="-76" type="curve"/>
			<point x="719" y="-76" type="line"/>
			<point x="599" y="23"/>
			<point x="535" y="108"/>
			<point x="487" y="197" type="curve"/>
			<point x="377" y="197" type="line"/>
			<point x="445" y="69"/>
			<point x="493" y="1"/>
		</contour>
		<contour>
			<point x="401" y="75" type="curve" smooth="yes"/>
			<point x="217" y="75"/>
			<point x="147" y="197"/>
			<point x="147" y="379" type="curve" smooth="yes"/>
			<point x="147" y="560"/>
			<point x="217" y="683"/>
			<point x="401" y="683" type="curve" smooth="yes"/>
			<point x="586" y="683"/>
			<point x="655" y="560"/>
			<point x="655" y="379" type="curve" smooth="yes"/>
			<point x="655" y="197"/>
			<point x="579" y="75"/>
		</contour>
	</outline>
</glyph>
<glyph name="T_h" format="2">
	<advance width="1107"/>
	<outline>
		<contour>
			<point x="550" y="0" type="line"/>
			<point x="641" y="0" type="line"/>
			<point x="641" y="302" type="line" smooth="yes"/>
			<point x="641" y="313"/>
			<point x="641" y="326"/>
			<point x="643" y="337" type="curve" smooth="yes"/>
			<point x="654" y="397"/>
			<point x="731" y="433"/>
			<point x="805" y="433" type="curve" smooth="yes"/>
			<point x="869" y="433"/>
			<point x="924" y="406"/>
			<point x="942" y="355" type="curve" smooth="yes"/>
			<point x="948" y="338"/>
			<point x="949" y="321"/>
			<point x="949" y="304" type="curve" smooth="yes"/>
			<point x="949" y="0" type="line"/>
			<point x="1040" y="0" type="line"/>
			<point x="1040" y="308" type="line" smooth="yes"/>
			<point x="1040" y="456"/>
			<point x="970" y="525"/>
			<point x="822" y="524" type="curve" smooth="yes"/>
			<point x="678" y="523"/>
			<point x="641" y="450"/>
			<point x="641" y="450" type="curve"/>
			<point x="641" y="752" type="line"/>
			<point x="550" y="752" type="line"/>
		</contour>
		<contour>
			<point x="255" y="0" type="line"/>
			<point x="349" y="0" type="line"/>
			<point x="349" y="752" type="line"/>
			<point x="255" y="752" type="line"/>
		</contour>
		<contour>
			<point x="49" y="662" type="line"/>
			<point x="641" y="662" type="line"/>
			<point x="641" y="752" type="line"/>
			<point x="49" y="752" type="line"/>
		</contour>
	</outline>
</glyph>
<glyph name="_slash.zero" format="2">
	<advance width="680"/>
	<outline>
		<contour>
			<point x="509" y="626" type="line"/>
			<point x="379" y="477"/>
			<point x="245" y="331"/>
			<point x="107" y="190" type="curve"/>
			<point x="170" y="123" type="line"/>
			<point x="303" y="274"/>
			<point x="440" y="422"/>
			<point x="581" y="565" type="curve"/>
		</contour>
	</outline>
</glyph>
<glyph name="a.ss01" format="2">
	<advance width="638"/>
	<anchor x="570" y="0" name="ogonek"/>
	<anchor x="319" y="0" name="bottom"/>
	<anchor x="319" y="504" name="top"/>
	<outline>
		<contour>
			<point x="301" y="-14" type="curve" smooth="yes"/>
			<point x="377" y="-14"/>
			<point x="438" y="18"/>
			<point x="469" y="59" type="curve"/>
			<point x="469" y="0" type="line"/>
			<point x="560" y="0" type="line"/>
			<point x="560" y="504" type="line"/>
			<point x="469" y="504" type="line"/>
			<point x="469" y="450" type="line"/>
			<point x="438" y="488"/>
			<point x="377" y="524"/>
			<point x="301" y="524" type="curve" smooth="yes"/>
			<point x="123" y="524"/>
			<point x="40" y="386"/>
			<point x="40" y="255" type="curve" smooth="yes"/>
			<point x="40" y="125"/>
			<point x="123" y="-14"/>
		</contour>
		<contour>
			<point x="301" y="76" type="curve" smooth="yes"/>
			<point x="187" y="74"/>
			<point x="133" y="146"/>
			<point x="133" y="255" type="curve" smooth="yes"/>
			<point x="133" y="365"/>
			<point x="187" y="437"/>
			<point x="301" y="434" type="curve" smooth="yes"/>
			<point x="413" y="431"/>
			<point x="469" y="363"/>
			<point x="469" y="255" type="curve" smooth="yes"/>
			<point x="469" y="147"/>
			<point x="413" y="78"/>
		</contour>
	</outline>
</glyph>
<glyph name="a.ss02" format="2">
	<advance width="601"/>
	<anchor x="545" y="0" name="ogonek"/>
	<anchor x="301" y="0" name="bottom"/>
	<anchor x="301" y="504" name="top"/>
	<outline>
		<contour>
			<point x="248" y="-14" type="curve" smooth="yes"/>
			<point x="378" y="-14"/>
			<point x="423" y="28"/>
			<point x="444" y="55" type="curve"/>
			<point x="444" y="0" type="line"/>
			<point x="535" y="0" type="line"/>
			<point x="535" y="307" type="line" smooth="yes"/>
			<point x="535" y="471"/>
			<point x="458" y="518"/>
			<point x="317" y="524" type="curve" smooth="yes"/>
			<point x="152" y="525"/>
			<point x="93" y="448"/>
			<point x="93" y="448" type="curve"/>
			<point x="157" y="385" type="line"/>
			<point x="188" y="415"/>
			<point x="240" y="434"/>
			<point x="300" y="434" type="curve" smooth="yes"/>
			<point x="379" y="434"/>
			<point x="443" y="392"/>
			<point x="443" y="319" type="curve"/>
			<point x="248" y="307" type="line" smooth="yes"/>
			<point x="126" y="299"/>
			<point x="45" y="275"/>
			<point x="45" y="159" type="curve" smooth="yes"/>
			<point x="45" y="83"/>
			<point x="102" y="-14"/>
		</contour>
		<contour>
			<point x="283" y="77" type="curve" smooth="yes"/>
			<point x="151" y="77"/>
			<point x="137" y="131"/>
			<point x="137" y="159" type="curve" smooth="yes"/>
			<point x="137" y="207"/>
			<point x="162" y="220"/>
			<point x="258" y="227" type="curve" smooth="yes"/>
			<point x="282" y="229"/>
			<point x="442" y="237"/>
			<point x="442" y="237" type="curve"/>
			<point x="442" y="185" type="line" smooth="yes"/>
			<point x="442" y="116"/>
			<point x="368" y="77"/>
		</contour>
	</outline>
</glyph>
<glyph name="caroncomb.alt" format="2">
	<advance width="1000"/>
	<anchor x="332" y="504" name="_topright"/>
	<outline>
		<contour>
			<point x="352" y="556" type="line"/>
			<point x="414" y="556" type="line"/>
			<point x="432" y="753" type="line"/>
			<point x="359" y="753" type="line"/>
		</contour>
	</outline>
</glyph>
<glyph name="eight.dnom" format="2">
	<advance width="416"/>
	<outline>
		<contour>
			<point x="218" y="-3" type="curve" smooth="yes"/>
			<point x="335" y="-3"/>
			<point x="376" y="55"/>
			<point x="376" y="127" type="curve" smooth="yes"/>
			<point x="376" y="179"/>
			<point x="354" y="214"/>
			<point x="309" y="241" type="curve"/>
			<point x="343" y="262"/>
			<point x="362" y="293"/>
			<point x="362" y="337" type="curve" smooth="yes"/>
			<point x="362" y="413"/>
			<point x="312" y="461"/>
			<point x="218" y="461" type="curve" smooth="yes"/>
			<point x="124" y="461"/>
			<point x="74" y="407"/>
			<point x="74" y="337" type="curve" smooth="yes"/>
			<point x="74" y="293"/>
			<point x="93" y="262"/>
			<point x="127" y="241" type="curve"/>
			<point x="82" y="214"/>
			<point x="60" y="179"/>
			<point x="60" y="127" type="curve" smooth="yes"/>
			<point x="60" y="55"/>
			<point x="101" y="-3"/>
		</contour>
		<contour>
			<point x="218" y="56" type="curve" smooth="yes"/>
			<point x="162" y="56"/>
			<point x="124" y="73"/>
			<point x="124" y="127" type="curve" smooth="yes"/>
			<point x="124" y="183"/>
			<point x="163" y="203"/>
			<point x="218" y="203" type="curve" smooth="yes"/>
			<point x="273" y="203"/>
			<point x="312" y="183"/>
			<point x="312" y="127" type="curve" smooth="yes"/>
			<point x="312" y="73"/>
			<point x="274" y="56"/>
		</contour>
		<contour>
			<point x="218" y="274" type="curve" smooth="yes"/>
			<point x="173" y="274"/>
			<point x="140" y="292"/>
			<point x="140" y="337" type="curve" smooth="yes"/>
			<point x="140" y="382"/>
			<point x="173" y="402"/>
			<point x="218" y="402" type="curve" smooth="yes"/>
			<point x="263" y="402"/>
			<point x="296" y="382"/>
			<point x="296" y="337" type="curve" smooth="yes"/>
			<point x="296" y="292"/>
			<point x="263" y="274"/>
		</contour>
	</outline>
</glyph>
<glyph name="eight.numr" format="2">
	<advance width="396"/>
	<outline>
		<contour>
			<point x="198" y="308" type="curve" smooth="yes"/>
			<point x="315" y="308"/>
			<point x="356" y="366"/>
			<point x="356" y="438" type="curve" smooth="yes"/>
			<point x="356" y="490"/>
			<point x="334" y="525"/>
			<point x="289" y="552" type="curve"/>
			<point x="323" y="573"/>
			<point x="342" y="604"/>
			<point x="342" y="648" type="curve" smooth="yes"/>
			<point x="342" y="724"/>
			<point x="292" y="772"/>
			<point x="198" y="772" type="curve" smooth="yes"/>
			<point x="104" y="772"/>
			<point x="54" y="718"/>
			<point x="54" y="648" type="curve" smooth="yes"/>
			<point x="54" y="604"/>
			<point x="73" y="573"/>
			<point x="107" y="552" type="curve"/>
			<point x="62" y="525"/>
			<point x="40" y="490"/>
			<point x="40" y="438" type="curve" smooth="yes"/>
			<point x="40" y="366"/>
			<point x="81" y="308"/>
		</contour>
		<contour>
			<point x="198" y="367" type="curve" smooth="yes"/>
			<point x="142" y="367"/>
			<point x="104" y="384"/>
			<point x="104" y="438" type="curve" smooth="yes"/>
			<point x="104" y="494"/>
			<point x="143" y="514"/>
			<point x="198" y="514" type="curve" smooth="yes"/>
			<point x="253" y="514"/>
			<point x="292" y="494"/>
			<point x="292" y="438" type="curve" smooth="yes"/>
			<point x="292" y="384"/>
			<point x="254" y="367"/>
		</contour>
		<contour>
			<point x="198" y="585" type="curve" smooth="yes"/>
			<point x="153" y="585"/>
			<point x="120" y="603"/>
			<point x="120" y="648" type="curve" smooth="yes"/>
			<point x="120" y="693"/>
			<point x="153" y="713"/>
			<point x="198" y="713" type="curve" smooth="yes"/>
			<point x="243" y="713"/>
			<point x="276" y="693"/>
			<point x="276" y="648" type="curve" smooth="yes"/>
			<point x="276" y="603"/>
			<point x="243" y="585"/>
		</contour>
	</outline>
</glyph>
<glyph name="el-cy.loclBGR" format="2">
	<advance width="567"/>
	<outline>
		<contour>
			<point x="447" y="0" type="line"/>
			<point x="540" y="0" type="line"/>
			<point x="337" y="504" type="line"/>
			<point x="235" y="504" type="line"/>
			<point x="27" y="0" type="line"/>
			<point x="125" y="0" type="line"/>
			<point x="286" y="398" type="line"/>
		</contour>
	</outline>
</glyph>
<glyph name="f_f_b" format="2">
	<advance width="1268"/>
	<anchor x="96" y="782" name="top"/>
	<anchor x="96" y="0" name="bottom"/>
	<outline>
		<contour>
			<point x="129" y="0" type="line"/>
			<point x="220" y="0" type="line"/>
			<point x="220" y="611" type="line" smooth="yes"/>
			<point x="220" y="699"/>
			<point x="265" y="697"/>
			<point x="339" y="690" type="curve" smooth="yes"/>
			<point x="350" y="689" type="line"/>
			<point x="356" y="780" type="line"/>
			<point x="335" y="780" type="line" smooth="yes"/>
			<point x="198" y="780"/>
			<point x="129" y="779"/>
			<point x="129" y="604" type="curve" smooth="yes"/>
		</contour>
		<contour>
			<point x="219" y="0" type="move"/>
			<point x="129" y="0" type="line"/>
		</contour>
		<contour>
			<point x="30" y="422" type="line"/>
			<point x="336" y="422" type="line"/>
			<point x="340" y="504" type="line"/>
			<point x="30" y="504" type="line"/>
		</contour>
		<component base="f_b" xOffset="290"/>
	</outline>
</glyph>
<glyph name="f_f_i" format="2">
	<advance width="866"/>
	<outline>
		<contour>
			<point x="129" y="0" type="line"/>
			<point x="220" y="0" type="line"/>
			<point x="220" y="611" type="line" smooth="yes"/>
			<point x="220" y="699"/>
			<point x="265" y="697"/>
			<point x="339" y="690" type="curve" smooth="yes"/>
			<point x="350" y="689" type="line"/>
			<point x="356" y="780" type="line"/>
			<point x="335" y="780" type="line" smooth="yes"/>
			<point x="198" y="780"/>
			<point x="129" y="779"/>
			<point x="129" y="604" type="curve" smooth="yes"/>
		</contour>
		<contour>
			<point x="219" y="0" type="move"/>
			<point x="129" y="0" type="line"/>
		</contour>
		<contour>
			<point x="30" y="422" type="line"/>
			<point x="336" y="422" type="line"/>
			<point x="340" y="504" type="line"/>
			<point x="30" y="504" type="line"/>
		</contour>
		<contour>
			<point x="419" y="0" type="line"/>
			<point x="510" y="0" type="line"/>
			<point x="510" y="611" type="line" smooth="yes"/>
			<point x="510" y="699"/>
			<point x="584" y="713"/>
			<point x="629" y="690" type="curve" smooth="yes"/>
			<point x="717" y="645" type="line"/>
			<point x="769" y="762" type="line"/>
			<point x="732" y="776"/>
			<point x="683" y="779"/>
			<point x="625" y="780" type="curve" smooth="yes"/>
			<point x="489" y="782"/>
			<point x="419" y="779"/>
			<point x="419" y="604" type="curve" smooth="yes"/>
		</contour>
		<contour>
			<point x="509" y="0" type="move"/>
			<point x="419" y="0" type="line"/>
		</contour>
		<contour>
			<point x="320" y="422" type="line"/>
			<point x="770" y="422" type="line"/>
			<point x="774" y="504" type="line"/>
			<point x="320" y="504" type="line"/>
		</contour>
		<contour>
			<point x="709" y="0" type="line"/>
			<point x="800" y="0" type="line"/>
			<point x="800" y="504" type="line"/>
			<point x="709" y="504" type="line"/>
		</contour>
		<contour>
			<point x="744" y="639" type="curve" smooth="yes"/>
			<point x="779" y="639"/>
			<point x="808" y="667"/>
			<point x="808" y="703" type="curve" smooth="yes"/>
			<point x="808" y="739"/>
			<point x="779" y="767"/>
			<point x="744" y="767" type="curve" smooth="yes"/>
			<point x="709" y="767"/>
			<point x="680" y="739"/>
			<point x="680" y="703" type="curve" smooth="yes"/>
			<point x="680" y="667"/>
			<point x="709" y="639"/>
		</contour>
	</outline>
</glyph>
<glyph name="f_f_l" format="2">
	<advance width="877"/>
	<outline>
		<contour>
			<point x="129" y="0" type="line"/>
			<point x="220" y="0" type="line"/>
			<point x="220" y="611" type="line" smooth="yes"/>
			<point x="220" y="699"/>
			<point x="265" y="697"/>
			<point x="339" y="690" type="curve" smooth="yes"/>
			<point x="350" y="689" type="line"/>
			<point x="356" y="780" type="line"/>
			<point x="335" y="780" type="line" smooth="yes"/>
			<point x="198" y="780"/>
			<point x="129" y="779"/>
			<point x="129" y="604" type="curve" smooth="yes"/>
		</contour>
		<contour>
			<point x="219" y="0" type="move"/>
			<point x="129" y="0" type="line"/>
		</contour>
		<contour>
			<point x="30" y="422" type="line"/>
			<point x="336" y="422" type="line"/>
			<point x="340" y="504" type="line"/>
			<point x="30" y="504" type="line"/>
		</contour>
		<contour>
			<point x="419" y="0" type="line"/>
			<point x="510" y="0" type="line"/>
			<point x="510" y="611" type="line" smooth="yes"/>
			<point x="510" y="699"/>
			<point x="554" y="695"/>
			<point x="629" y="690" type="curve" smooth="yes"/>
			<point x="709" y="685" type="line"/>
			<point x="709" y="782" type="line"/>
			<point x="625" y="782" type="line" smooth="yes"/>
			<point x="488" y="782"/>
			<point x="419" y="779"/>
			<point x="419" y="604" type="curve" smooth="yes"/>
		</contour>
		<contour>
			<point x="509" y="0" type="move"/>
			<point x="419" y="0" type="line"/>
		</contour>
		<contour>
			<point x="320" y="422" type="line"/>
			<point x="716" y="422" type="line"/>
			<point x="720" y="504" type="line"/>
			<point x="320" y="504" type="line"/>
		</contour>
		<component base="l" xOffset="630"/>
	</outline>
</glyph>
<glyph name="f_t" format="2">
	<advance width="693"/>
	<outline>
		<contour>
			<point x="219" y="0" type="move"/>
			<point x="129" y="0" type="line"/>
		</contour>
		<contour>
			<point x="30" y="422" type="line"/>
			<point x="386" y="422" type="line"/>
			<point x="390" y="504" type="line"/>
			<point x="30" y="504" type="line"/>
		</contour>
		<contour>
			<point x="129" y="0" type="line"/>
			<point x="220" y="0" type="line"/>
			<point x="220" y="611" type="line" smooth="yes"/>
			<point x="220" y="699"/>
			<point x="293" y="696"/>
			<point x="325" y="694" type="curve" smooth="yes"/>
			<point x="379" y="691"/>
			<point x="419" y="658"/>
			<point x="419" y="635" type="curve"/>
			<point x="479" y="762" type="line"/>
			<point x="442" y="776"/>
			<point x="393" y="779"/>
			<point x="335" y="780" type="curve" smooth="yes"/>
			<point x="199" y="782"/>
			<point x="129" y="779"/>
			<point x="129" y="604" type="curve" smooth="yes"/>
		</contour>
		<contour>
			<point x="219" y="0" type="move"/>
			<point x="129" y="0" type="line"/>
		</contour>
		<contour>
			<point x="454" y="639" type="curve" smooth="yes"/>
			<point x="474" y="639"/>
			<point x="510" y="631"/>
			<point x="510" y="649" type="curve" smooth="yes"/>
			<point x="510" y="667"/>
			<point x="518" y="686"/>
			<point x="518" y="703" type="curve" smooth="yes"/>
			<point x="518" y="739"/>
			<point x="489" y="767"/>
			<point x="454" y="767" type="curve" smooth="yes"/>
			<point x="419" y="767"/>
			<point x="390" y="739"/>
			<point x="390" y="703" type="curve" smooth="yes"/>
			<point x="390" y="667"/>
			<point x="419" y="639"/>
		</contour>
		<component base="t" xOffset="285"/>
	</outline>
</glyph>
<glyph name="five.dnom" format="2">
	<advance width="387"/>
	<outline>
		<contour>
			<point x="186" y="-3" type="curve" smooth="yes"/>
			<point x="293" y="-3"/>
			<point x="347" y="61"/>
			<point x="347" y="144" type="curve" smooth="yes"/>
			<point x="347" y="241"/>
			<point x="303" y="305"/>
			<point x="196" y="299" type="curve" smooth="yes"/>
			<point x="164" y="297"/>
			<point x="126" y="282"/>
			<point x="114" y="271" type="curve"/>
			<point x="125" y="390" type="line"/>
			<point x="325" y="390" type="line"/>
			<point x="325" y="451" type="line"/>
			<point x="66" y="451" type="line"/>
			<point x="48" y="205" type="line"/>
			<point x="109" y="205" type="line"/>
			<point x="133" y="229"/>
			<point x="157" y="238"/>
			<point x="196" y="238" type="curve" smooth="yes"/>
			<point x="257" y="238"/>
			<point x="283" y="203"/>
			<point x="283" y="144" type="curve" smooth="yes"/>
			<point x="283" y="86"/>
			<point x="247" y="58"/>
			<point x="186" y="58" type="curve" smooth="yes"/>
			<point x="124" y="58"/>
			<point x="102" y="92"/>
			<point x="97" y="118" type="curve"/>
			<point x="40" y="118" type="line"/>
			<point x="40" y="68"/>
			<point x="78" y="-3"/>
		</contour>
	</outline>
</glyph>
<glyph name="five.numr" format="2">
	<advance width="347"/>
	<outline>
		<contour>
			<point x="186" y="309" type="curve" smooth="yes"/>
			<point x="293" y="309"/>
			<point x="347" y="373"/>
			<point x="347" y="456" type="curve" smooth="yes"/>
			<point x="347" y="553"/>
			<point x="303" y="618"/>
			<point x="196" y="611" type="curve" smooth="yes"/>
			<point x="164" y="609"/>
			<point x="126" y="594"/>
			<point x="114" y="583" type="curve"/>
			<point x="125" y="702" type="line"/>
			<point x="325" y="702" type="line"/>
			<point x="325" y="763" type="line"/>
			<point x="66" y="763" type="line"/>
			<point x="48" y="517" type="line"/>
			<point x="109" y="517" type="line"/>
			<point x="133" y="541"/>
			<point x="157" y="550"/>
			<point x="196" y="550" type="curve" smooth="yes"/>
			<point x="257" y="550"/>
			<point x="283" y="515"/>
			<point x="283" y="456" type="curve" smooth="yes"/>
			<point x="283" y="398"/>
			<point x="247" y="370"/>
			<point x="186" y="370" type="curve" smooth="yes"/>
			<point x="124" y="370"/>
			<point x="102" y="404"/>
			<point x="97" y="430" type="curve"/>
			<point x="40" y="430" type="line"/>
			<point x="40" y="380"/>
			<point x="78" y="309"/>
		</contour>
	</outline>
</glyph>
<glyph name="four.numr" format="2">
	<advance width="404"/>
	<outline>
		<contour>
			<point x="263" y="311" type="line"/>
			<point x="325" y="311" type="line"/>
			<point x="325" y="399" type="line"/>
			<point x="364" y="399" type="line"/>
			<point x="364" y="459" type="line"/>
			<point x="325" y="459" type="line"/>
			<point x="325" y="763" type="line"/>
			<point x="261" y="763" type="line"/>
			<point x="71" y="499" type="line"/>
			<point x="42" y="466"/>
			<point x="40" y="442"/>
			<point x="40" y="399" type="curve"/>
			<point x="263" y="399" type="line"/>
		</contour>
		<contour>
			<point x="116" y="459" type="line"/>
			<point x="263" y="667" type="line"/>
			<point x="263" y="459" type="line"/>
		</contour>
	</outline>
</glyph>
<glyph name="g.ss02" format="2">
	<advance width="654"/>
	<anchor x="327" y="504" name="top"/>
	<anchor x="354" y="-275" name="bottom"/>
	<outline>
		<contour>
			<point x="363" y="-278" type="curve"/>
			<point x="472" y="-274"/>
			<point x="580" y="-242"/>
			<point x="580" y="-63" type="curve" smooth="yes"/>
			<point x="580" y="497" type="line"/>
			<point x="489" y="497" type="line"/>
			<point x="489" y="444" type="line"/>
			<point x="460" y="483"/>
			<point x="397" y="516"/>
			<point x="324" y="516" type="curve" smooth="yes"/>
			<point x="135" y="516"/>
			<point x="67" y="383"/>
			<point x="67" y="251" type="curve" smooth="yes"/>
			<point x="67" y="119"/>
			<point x="135" y="-14"/>
			<point x="324" y="-14" type="curve"/>
			<point x="397" y="-14"/>
			<point x="460" y="19"/>
			<point x="489" y="58" type="curve"/>
			<point x="489" y="-66" type="line" smooth="yes"/>
			<point x="489" y="-158"/>
			<point x="453" y="-188"/>
			<point x="347" y="-188" type="curve" smooth="yes"/>
			<point x="271" y="-188"/>
			<point x="209" y="-171"/>
			<point x="168" y="-100" type="curve"/>
			<point x="96" y="-152" type="line"/>
			<point x="158" y="-250"/>
			<point x="241" y="-278"/>
		</contour>
		<contour>
			<point x="324" y="76" type="line" smooth="yes"/>
			<point x="234" y="76"/>
			<point x="163" y="151"/>
			<point x="163" y="251" type="curve" smooth="yes"/>
			<point x="163" y="348"/>
			<point x="233" y="426"/>
			<point x="324" y="426" type="curve" smooth="yes"/>
			<point x="325" y="426" type="line" smooth="yes"/>
			<point x="420" y="426"/>
			<point x="486" y="358"/>
			<point x="489" y="251" type="curve"/>
			<point x="486" y="147"/>
			<point x="423" y="76"/>
			<point x="325" y="76" type="curve" smooth="yes"/>
		</contour>
	</outline>
</glyph>
<glyph name="nine.dnom" format="2">
	<advance width="406"/>
	<outline>
		<contour>
			<point x="205" y="-3" type="curve" smooth="yes"/>
			<point x="344" y="-3"/>
			<point x="366" y="103"/>
			<point x="366" y="230" type="curve" smooth="yes"/>
			<point x="366" y="380"/>
			<point x="342" y="462"/>
			<point x="201" y="462" type="curve" smooth="yes"/>
			<point x="82" y="462"/>
			<point x="40" y="392"/>
			<point x="40" y="316" type="curve" smooth="yes"/>
			<point x="40" y="233"/>
			<point x="92" y="162"/>
			<point x="201" y="162" type="curve" smooth="yes"/>
			<point x="256" y="162"/>
			<point x="278" y="185"/>
			<point x="303" y="216" type="curve"/>
			<point x="303" y="118"/>
			<point x="283" y="56"/>
			<point x="205" y="56" type="curve" smooth="yes"/>
			<point x="145" y="56"/>
			<point x="124" y="72"/>
			<point x="115" y="116" type="curve"/>
			<point x="52" y="116" type="line"/>
			<point x="63" y="40"/>
			<point x="103" y="-3"/>
		</contour>
		<contour>
			<point x="201" y="222" type="curve" smooth="yes"/>
			<point x="144" y="222"/>
			<point x="106" y="254"/>
			<point x="106" y="315" type="curve" smooth="yes"/>
			<point x="106" y="376"/>
			<point x="149" y="402"/>
			<point x="201" y="402" type="curve" smooth="yes"/>
			<point x="252" y="402"/>
			<point x="296" y="377"/>
			<point x="296" y="315" type="curve" smooth="yes"/>
			<point x="296" y="253"/>
			<point x="258" y="222"/>
		</contour>
	</outline>
</glyph>
<glyph name="nine.numr" format="2">
	<advance width="406"/>
	<outline>
		<contour>
			<point x="205" y="307" type="curve" smooth="yes"/>
			<point x="344" y="307"/>
			<point x="366" y="413"/>
			<point x="366" y="540" type="curve" smooth="yes"/>
			<point x="366" y="690"/>
			<point x="342" y="772"/>
			<point x="201" y="772" type="curve" smooth="yes"/>
			<point x="82" y="772"/>
			<point x="40" y="702"/>
			<point x="40" y="626" type="curve" smooth="yes"/>
			<point x="40" y="543"/>
			<point x="92" y="472"/>
			<point x="201" y="472" type="curve" smooth="yes"/>
			<point x="256" y="472"/>
			<point x="278" y="495"/>
			<point x="303" y="526" type="curve"/>
			<point x="303" y="428"/>
			<point x="283" y="366"/>
			<point x="205" y="366" type="curve" smooth="yes"/>
			<point x="145" y="366"/>
			<point x="124" y="382"/>
			<point x="115" y="426" type="curve"/>
			<point x="52" y="426" type="line"/>
			<point x="63" y="350"/>
			<point x="103" y="307"/>
		</contour>
		<contour>
			<point x="201" y="532" type="curve" smooth="yes"/>
			<point x="144" y="532"/>
			<point x="106" y="564"/>
			<point x="106" y="625" type="curve" smooth="yes"/>
			<point x="106" y="686"/>
			<point x="149" y="712"/>
			<point x="201" y="712" type="curve" smooth="yes"/>
			<point x="252" y="712"/>
			<point x="296" y="687"/>
			<point x="296" y="625" type="curve" smooth="yes"/>
			<point x="296" y="563"/>
			<point x="258" y="532"/>
		</contour>
	</outline>
</glyph>
<glyph name="one.numr" format="2">
	<advance width="234"/>
	<outline>
		<contour>
			<point x="129" y="311" type="line"/>
			<point x="194" y="311" type="line"/>
			<point x="194" y="763" type="line"/>
			<point x="129" y="763" type="line"/>
		</contour>
		<contour>
			<point x="40" y="630" type="line"/>
			<point x="70" y="646"/>
			<point x="100" y="666"/>
			<point x="130" y="689" type="curve"/>
			<point x="130" y="763" type="line"/>
			<point x="100" y="737"/>
			<point x="70" y="718"/>
			<point x="40" y="705" type="curve"/>
		</contour>
	</outline>
</glyph>
<glyph name="seven.dnom" format="2">
	<advance width="375"/>
	<outline>
		<contour>
			<point x="81" y="0" type="line"/>
			<point x="157" y="0" type="line"/>
			<point x="306" y="335" type="line" smooth="yes"/>
			<point x="330" y="389"/>
			<point x="335" y="401"/>
			<point x="335" y="427" type="curve"/>
			<point x="335" y="452" type="line"/>
			<point x="40" y="452" type="line"/>
			<point x="40" y="391" type="line"/>
			<point x="258" y="391" type="line"/>
		</contour>
	</outline>
</glyph>
<glyph name="seven.numr" format="2">
	<advance width="299"/>
	<outline>
		<contour>
			<point x="81" y="311" type="line"/>
			<point x="157" y="311" type="line"/>
			<point x="306" y="646" type="line" smooth="yes"/>
			<point x="330" y="700"/>
			<point x="335" y="712"/>
			<point x="335" y="738" type="curve"/>
			<point x="335" y="763" type="line"/>
			<point x="40" y="763" type="line"/>
			<point x="40" y="702" type="line"/>
			<point x="258" y="702" type="line"/>
		</contour>
	</outline>
</glyph>
<glyph name="six.dnom" format="2">
	<advance width="411"/>
	<outline>
		<contour>
			<point x="209" y="-3" type="curve" smooth="yes"/>
			<point x="316" y="-3"/>
			<point x="370" y="71"/>
			<point x="370" y="144" type="curve" smooth="yes"/>
			<point x="370" y="227"/>
			<point x="325" y="298"/>
			<point x="209" y="294" type="curve" smooth="yes"/>
			<point x="156" y="292"/>
			<point x="117" y="268"/>
			<point x="101" y="243" type="curve"/>
			<point x="108" y="339"/>
			<point x="134" y="403"/>
			<point x="211" y="403" type="curve" smooth="yes"/>
			<point x="271" y="403"/>
			<point x="296" y="380"/>
			<point x="306" y="332" type="curve"/>
			<point x="371" y="332" type="line"/>
			<point x="355" y="412"/>
			<point x="316" y="462"/>
			<point x="211" y="462" type="curve" smooth="yes"/>
			<point x="78" y="462"/>
			<point x="40" y="364"/>
			<point x="40" y="230" type="curve" smooth="yes"/>
			<point x="40" y="103"/>
			<point x="73" y="-3"/>
		</contour>
		<contour>
			<point x="209" y="56" type="curve" smooth="yes"/>
			<point x="169" y="56"/>
			<point x="135" y="71"/>
			<point x="118" y="108" type="curve" smooth="yes"/>
			<point x="113" y="119"/>
			<point x="112" y="131"/>
			<point x="112" y="144" type="curve" smooth="yes"/>
			<point x="112" y="203"/>
			<point x="151" y="236"/>
			<point x="209" y="236" type="curve" smooth="yes"/>
			<point x="270" y="236"/>
			<point x="305" y="209"/>
			<point x="305" y="144" type="curve" smooth="yes"/>
			<point x="305" y="92"/>
			<point x="267" y="56"/>
		</contour>
	</outline>
</glyph>
<glyph name="six.numr" format="2">
	<advance width="411"/>
	<outline>
		<contour>
			<point x="209" y="307" type="curve" smooth="yes"/>
			<point x="316" y="307"/>
			<point x="370" y="381"/>
			<point x="370" y="454" type="curve" smooth="yes"/>
			<point x="370" y="537"/>
			<point x="325" y="604"/>
			<point x="209" y="604" type="curve" smooth="yes"/>
			<point x="156" y="604"/>
			<point x="117" y="578"/>
			<point x="101" y="553" type="curve"/>
			<point x="108" y="649"/>
			<point x="134" y="713"/>
			<point x="211" y="713" type="curve" smooth="yes"/>
			<point x="271" y="713"/>
			<point x="296" y="690"/>
			<point x="306" y="642" type="curve"/>
			<point x="371" y="642" type="line"/>
			<point x="355" y="722"/>
			<point x="316" y="772"/>
			<point x="211" y="772" type="curve" smooth="yes"/>
			<point x="78" y="772"/>
			<point x="40" y="674"/>
			<point x="40" y="540" type="curve" smooth="yes"/>
			<point x="40" y="413"/>
			<point x="73" y="307"/>
		</contour>
		<contour>
			<point x="209" y="366" type="curve" smooth="yes"/>
			<point x="169" y="366"/>
			<point x="135" y="381"/>
			<point x="118" y="418" type="curve" smooth="yes"/>
			<point x="113" y="429"/>
			<point x="112" y="441"/>
			<point x="112" y="454" type="curve" smooth="yes"/>
			<point x="112" y="513"/>
			<point x="151" y="546"/>
			<point x="209" y="546" type="curve" smooth="yes"/>
			<point x="270" y="546"/>
			<point x="305" y="519"/>
			<point x="305" y="454" type="curve" smooth="yes"/>
			<point x="305" y="402"/>
			<point x="267" y="366"/>
		</contour>
	</outline>
</glyph>
<glyph name="smallzero.z" format="2">
	<advance width="460"/>
	<outline>
		<contour>
			<point x="230" y="-3" type="curve" smooth="yes"/>
			<point x="369" y="-3"/>
			<point x="420" y="103"/>
			<point x="420" y="230" type="curve" smooth="yes"/>
			<point x="420" y="356"/>
			<point x="369" y="462"/>
			<point x="230" y="462" type="curve" smooth="yes"/>
			<point x="91" y="462"/>
			<point x="40" y="356"/>
			<point x="40" y="230" type="curve" smooth="yes"/>
			<point x="40" y="103"/>
			<point x="91" y="-3"/>
		</contour>
		<contour>
			<point x="230" y="76" type="curve" smooth="yes"/>
			<point x="135" y="76"/>
			<point x="121" y="131"/>
			<point x="121" y="230" type="curve" smooth="yes"/>
			<point x="121" y="329"/>
			<point x="135" y="384"/>
			<point x="230" y="384" type="curve" smooth="yes"/>
			<point x="325" y="384"/>
			<point x="339" y="329"/>
			<point x="339" y="230" type="curve" smooth="yes"/>
			<point x="339" y="131"/>
			<point x="325" y="76"/>
		</contour>
		<component base="_slash.zero" xScale="0.65" yScale="0.7" xOffset="6" yOffset="-36"/>
	</outline>
</glyph>
<glyph name="three.dnom" format="2">
	<advance width="390"/>
	<outline>
		<contour>
			<point x="192" y="-3" type="curve" smooth="yes"/>
			<point x="309" y="-3"/>
			<point x="350" y="56"/>
			<point x="350" y="128" type="curve" smooth="yes"/>
			<point x="350" y="179"/>
			<point x="328" y="215"/>
			<point x="282" y="241" type="curve"/>
			<point x="316" y="262"/>
			<point x="336" y="294"/>
			<point x="336" y="338" type="curve" smooth="yes"/>
			<point x="336" y="413"/>
			<point x="286" y="462"/>
			<point x="192" y="462" type="curve" smooth="yes"/>
			<point x="98" y="462"/>
			<point x="48" y="408"/>
			<point x="48" y="338" type="curve"/>
			<point x="115" y="338" type="line"/>
			<point x="115" y="381"/>
			<point x="149" y="402"/>
			<point x="192" y="402" type="curve" smooth="yes"/>
			<point x="236" y="402"/>
			<point x="272" y="386"/>
			<point x="272" y="338" type="curve" smooth="yes"/>
			<point x="272" y="290"/>
			<point x="239" y="272"/>
			<point x="193" y="272" type="curve" smooth="yes"/>
			<point x="186" y="272"/>
			<point x="152" y="272"/>
			<point x="145" y="272" type="curve"/>
			<point x="145" y="205" type="line"/>
			<point x="152" y="205"/>
			<point x="186" y="205"/>
			<point x="193" y="205" type="curve" smooth="yes"/>
			<point x="249" y="205"/>
			<point x="286" y="185"/>
			<point x="286" y="128" type="curve" smooth="yes"/>
			<point x="286" y="72"/>
			<point x="247" y="57"/>
			<point x="192" y="57" type="curve" smooth="yes"/>
			<point x="136" y="57"/>
			<point x="106" y="79"/>
			<point x="106" y="125" type="curve"/>
			<point x="40" y="125" type="line"/>
			<point x="40" y="54"/>
			<point x="75" y="-3"/>
		</contour>
	</outline>
</glyph>
<glyph name="three.numr" format="2">
	<advance width="360"/>
	<outline>
		<contour>
			<point x="192" y="307" type="curve" smooth="yes"/>
			<point x="309" y="307"/>
			<point x="350" y="366"/>
			<point x="350" y="438" type="curve" smooth="yes"/>
			<point x="350" y="489"/>
			<point x="328" y="525"/>
			<point x="282" y="551" type="curve"/>
			<point x="316" y="572"/>
			<point x="336" y="604"/>
			<point x="336" y="648" type="curve" smooth="yes"/>
			<point x="336" y="723"/>
			<point x="286" y="772"/>
			<point x="192" y="772" type="curve" smooth="yes"/>
			<point x="98" y="772"/>
			<point x="48" y="718"/>
			<point x="48" y="648" type="curve"/>
			<point x="115" y="648" type="line"/>
			<point x="115" y="691"/>
			<point x="149" y="712"/>
			<point x="192" y="712" type="curve" smooth="yes"/>
			<point x="236" y="712"/>
			<point x="272" y="696"/>
			<point x="272" y="648" type="curve" smooth="yes"/>
			<point x="272" y="600"/>
			<point x="239" y="582"/>
			<point x="193" y="582" type="curve" smooth="yes"/>
			<point x="186" y="582"/>
			<point x="152" y="582"/>
			<point x="145" y="582" type="curve"/>
			<point x="145" y="515" type="line"/>
			<point x="152" y="515"/>
			<point x="186" y="515"/>
			<point x="193" y="515" type="curve" smooth="yes"/>
			<point x="249" y="515"/>
			<point x="286" y="495"/>
			<point x="286" y="438" type="curve" smooth="yes"/>
			<point x="286" y="382"/>
			<point x="247" y="367"/>
			<point x="192" y="367" type="curve" smooth="yes"/>
			<point x="136" y="367"/>
			<point x="106" y="389"/>
			<point x="106" y="435" type="curve"/>
			<point x="40" y="435" type="line"/>
			<point x="40" y="364"/>
			<point x="75" y="307"/>
		</contour>
	</outline>
</glyph>
<glyph name="tse-cy.loclBGR" format="2">
	<advance width="674"/>
	<outline>
		<contour>
			<point x="539" y="-130" type="line"/>
			<point x="622" y="-130" type="line"/>
			<point x="622" y="80" type="line"/>
			<point x="539" y="80" type="line"/>
		</contour>
		<component base="u"/>
	</outline>
</glyph>
<glyph name="two.dnom" format="2">
	<advance width="394"/>
	<outline>
		<contour>
			<point x="50" y="0" type="line"/>
			<point x="374" y="0" type="line"/>
			<point x="374" y="60" type="line"/>
			<point x="135" y="60" type="line"/>
			<point x="245" y="153" type="line" smooth="yes"/>
			<point x="323" y="219"/>
			<point x="366" y="259"/>
			<point x="366" y="331" type="curve" smooth="yes"/>
			<point x="366" y="408"/>
			<point x="331" y="463"/>
			<point x="217" y="463" type="curve" smooth="yes"/>
			<point x="102" y="463"/>
			<point x="60" y="402"/>
			<point x="60" y="333" type="curve"/>
			<point x="125" y="333" type="line"/>
			<point x="130" y="381"/>
			<point x="157" y="403"/>
			<point x="217" y="403" type="curve" smooth="yes"/>
			<point x="271" y="403"/>
			<point x="301" y="386"/>
			<point x="301" y="331" type="curve" smooth="yes"/>
			<point x="301" y="292"/>
			<point x="267" y="251"/>
			<point x="214" y="207" type="curve" smooth="yes"/>
			<point x="87" y="100" type="line" smooth="yes"/>
			<point x="59" y="77"/>
			<point x="50" y="36"/>
			<point x="50" y="9" type="curve"/>
		</contour>
	</outline>
</glyph>
<glyph name="two.numr" format="2">
	<advance width="404"/>
	<outline>
		<contour>
			<point x="40" y="309" type="line"/>
			<point x="364" y="309" type="line"/>
			<point x="364" y="369" type="line"/>
			<point x="125" y="369" type="line"/>
			<point x="235" y="462" type="line" smooth="yes"/>
			<point x="313" y="528"/>
			<point x="356" y="568"/>
			<point x="356" y="640" type="curve" smooth="yes"/>
			<point x="356" y="717"/>
			<point x="321" y="772"/>
			<point x="207" y="772" type="curve" smooth="yes"/>
			<point x="92" y="772"/>
			<point x="50" y="711"/>
			<point x="50" y="642" type="curve"/>
			<point x="115" y="642" type="line"/>
			<point x="120" y="690"/>
			<point x="147" y="712"/>
			<point x="207" y="712" type="curve" smooth="yes"/>
			<point x="261" y="712"/>
			<point x="291" y="695"/>
			<point x="291" y="640" type="curve" smooth="yes"/>
			<point x="291" y="601"/>
			<point x="257" y="560"/>
			<point x="204" y="516" type="curve" smooth="yes"/>
			<point x="77" y="409" type="line" smooth="yes"/>
			<point x="49" y="386"/>
			<point x="40" y="345"/>
			<point x="40" y="318" type="curve"/>
		</contour>
	</outline>
</glyph>
<glyph name="zero.numr" format="2">
	<advance width="460"/>
	<outline>
		<contour>
			<point x="230" y="309" type="curve" smooth="yes"/>
			<point x="369" y="309"/>
			<point x="420" y="414"/>
			<point x="420" y="541" type="curve" smooth="yes"/>
			<point x="420" y="667"/>
			<point x="369" y="772"/>
			<point x="230" y="772" type="curve" smooth="yes"/>
			<point x="91" y="772"/>
			<point x="40" y="667"/>
			<point x="40" y="541" type="curve" smooth="yes"/>
			<point x="40" y="414"/>
			<point x="91" y="309"/>
		</contour>
		<contour>
			<point x="230" y="382" type="curve" smooth="yes"/>
			<point x="131" y="382"/>
			<point x="116" y="438"/>
			<point x="116" y="541" type="curve" smooth="yes"/>
			<point x="116" y="644"/>
			<point x="131" y="700"/>
			<point x="230" y="700" type="curve" smooth="yes"/>
			<point x="329" y="700"/>
			<point x="344" y="644"/>
			<point x="344" y="541" type="curve" smooth="yes"/>
			<point x="344" y="438"/>
			<point x="329" y="382"/>
		</contour>
	</outline>
</glyph>
<glyph name="zero.osf" format="2">
	<advance width="572"/>
	<outline>
		<contour>
			<point x="286" y="-14" type="curve" smooth="yes"/>
			<point x="473" y="-14"/>
			<point x="537" y="107"/>
			<point x="537" y="288" type="curve" smooth="yes"/>
			<point x="537" y="469"/>
			<point x="473" y="589"/>
			<point x="286" y="589" type="curve" smooth="yes"/>
			<point x="99" y="589"/>
			<point x="35" y="469"/>
			<point x="35" y="288" type="curve" smooth="yes"/>
			<point x="35" y="107"/>
			<point x="99" y="-14"/>
		</contour>
		<contour>
			<point x="286" y="76" type="curve" smooth="yes"/>
			<point x="160" y="76"/>
			<point x="130" y="158"/>
			<point x="130" y="288" type="curve" smooth="yes"/>
			<point x="130" y="418"/>
			<point x="160" y="500"/>
			<point x="286" y="500" type="curve" smooth="yes"/>
			<point x="412" y="500"/>
			<point x="442" y="418"/>
			<point x="442" y="288" type="curve" smooth="yes"/>
			<point x="442" y="158"/>
			<point x="412" y="76"/>
		</contour>
	</outline>
</glyph>
